<?xml version="1.0" encoding="UTF-8" standalone="no"?>
<svg
   version="1.1"
   viewBox="0 0 29098.336 20635.109"
   id="svg630"
   sodipodi:docname="avr-blink.svg"
   inkscape:version="1.2 (dc2aedaf03, 2022-05-15)"
   xmlns:inkscape="http://www.inkscape.org/namespaces/inkscape"
   xmlns:sodipodi="http://sodipodi.sourceforge.net/DTD/sodipodi-0.dtd"
   xmlns="http://www.w3.org/2000/svg"
   xmlns:svg="http://www.w3.org/2000/svg"
   xmlns:rdf="http://www.w3.org/1999/02/22-rdf-syntax-ns#"
   xmlns:cc="http://creativecommons.org/ns#"
   xmlns:dc="http://purl.org/dc/elements/1.1/">
  <defs
     id="defs634" />
  <sodipodi:namedview
     id="namedview632"
     pagecolor="#ffffff"
     bordercolor="#666666"
     borderopacity="1.0"
     inkscape:showpageshadow="2"
     inkscape:pageopacity="0.0"
     inkscape:pagecheckerboard="0"
     inkscape:deskcolor="#d1d1d1"
     inkscape:document-units="cm"
     showgrid="false"
     inkscape:zoom="1.3835803"
     inkscape:cx="198.39832"
     inkscape:cy="81.310786"
     inkscape:current-layer="svg630" />
  <title
     id="title2">SVG Picture created as avr-blink.svg date 2022/08/11 11:26:54 </title>
  <desc
     id="desc4">Picture generated by Eeschema-SVG </desc>
  <g
     style="fill:#000000;fill-opacity:1;stroke:#000000;stroke-linecap:round;stroke-linejoin:round;stroke-opacity:1"
     id="g6"
     transform="translate(-43724.462,-28196)" />
  <g
     style="fill:#f5f4ef;fill-opacity:0;stroke:#f5f4ef;stroke-width:0;stroke-linecap:round;stroke-linejoin:round;stroke-opacity:1"
     id="g8"
     transform="translate(-43724.462,-28196)" />
  <g
     style="fill:#f5f4ef;fill-opacity:1;stroke:#f5f4ef;stroke-width:0.03937;stroke-linecap:round;stroke-linejoin:round;stroke-opacity:1"
     id="g12"
     transform="matrix(0.24885378,0,0,0.24956006,0.00492422,0.00487616)">
    <rect
       x="0"
       y="0"
       width="116930"
       height="82680"
       rx="0.000000"
       id="rect10" />
  </g>
  <g
     style="fill:#006464;fill-opacity:0;stroke:#006464;stroke-width:60;stroke-linecap:round;stroke-linejoin:round;stroke-opacity:1"
     id="g592"
     transform="translate(-43724.462,-28196)" />
  <g
     id="g1224"
     transform="translate(-43203.612,-27675.147)">
    <g
       style="fill:#f5f4ef;fill-opacity:1;stroke:#f5f4ef;stroke-width:60;stroke-linecap:round;stroke-linejoin:round;stroke-opacity:1"
       id="g68">
      <g
         id="g14" />
      <g
         style="fill:#840000;fill-opacity:1;stroke:#840000;stroke-width:60;stroke-linecap:round;stroke-linejoin:round;stroke-opacity:1"
         id="g16" />
      <g
         style="fill:#840000;fill-opacity:0;stroke:#840000;stroke-width:100;stroke-linecap:round;stroke-linejoin:round;stroke-opacity:1"
         id="g20">
        <path
           style="fill:none;fill-opacity:0;stroke:#840000;stroke-width:100;stroke-linecap:round;stroke-linejoin:round;stroke-opacity:1"
           d="m 68500,34500 v 1000"
           id="path18" />
      </g>
      <g
         style="fill:#840000;fill-opacity:0;stroke:#840000;stroke-width:60;stroke-linecap:round;stroke-linejoin:round;stroke-opacity:1"
         id="g24">
        <path
           style="fill:none;fill-opacity:0;stroke:#840000;stroke-width:60;stroke-linecap:round;stroke-linejoin:round;stroke-opacity:1"
           d="M 68500,35000 H 67500"
           id="path22" />
      </g>
      <g
         style="fill:#840000;fill-opacity:0;stroke:#840000;stroke-width:100;stroke-linecap:round;stroke-linejoin:round;stroke-opacity:1"
         id="g28">
        <path
           style="fill:none;fill-opacity:0;stroke:#840000;stroke-width:100;stroke-linecap:round;stroke-linejoin:round;stroke-opacity:1"
           d="m 67500,34500 v 1000 l 1000,-500 z"
           id="path26" />
      </g>
      <g
         style="fill:#840000;fill-opacity:0;stroke:#840000;stroke-width:60;stroke-linecap:round;stroke-linejoin:round;stroke-opacity:1"
         id="g38">
        <path
           style="fill:none;fill-opacity:0;stroke:#840000;stroke-width:60;stroke-linecap:round;stroke-linejoin:round;stroke-opacity:1"
           d="m 69200,34700 600,-600 h -300 300 v 300"
           id="path30" />
        <path
           style="fill:none;fill-opacity:0;stroke:#840000;stroke-width:60;stroke-linecap:round;stroke-linejoin:round;stroke-opacity:1"
           d="m 68700,34700 600,-600 h -300 300 v 300"
           id="path32" />
        <path
           d="m 68500,35000 h 1000"
           id="path34" />
        <path
           d="M 67500,35000 H 66500"
           id="path36" />
      </g>
      <g
         style="fill:#006464;fill-opacity:0;stroke:#006464;stroke-width:60;stroke-linecap:round;stroke-linejoin:round;stroke-opacity:1"
         id="g66">
        <text
           x="68624.961"
           y="32250"
           textLength="1106.1812"
           font-size="666.654px"
           lengthAdjust="spacingAndGlyphs"
           text-anchor="middle"
           opacity="0"
           id="text40">D1</text>
        <g
           class="stroked-text"
           id="g50">
          <desc
             id="desc42">D1</desc>
          <path
             d="m 68255,32226 v -500 h 119 l 72,24 47,47 24,48 24,95 v 71 l -24,96 -24,47 -47,48 -72,24 h -119"
             id="path44" />
          <path
             d="m 69017,32226 h -285"
             id="path46" />
          <path
             d="m 68874,32226 v -500 l -47,71 -48,48 -47,24"
             id="path48" />
        </g>
        <text
           x="68624.961"
           y="33250"
           textLength="1417.126"
           font-size="666.654px"
           lengthAdjust="spacingAndGlyphs"
           text-anchor="middle"
           opacity="0"
           id="text52">LED</text>
        <g
           class="stroked-text"
           id="g64">
          <desc
             id="desc54">LED</desc>
          <path
             d="m 68303,33226 h -238 v -500"
             id="path56" />
          <path
             d="m 68470,32964 h 166"
             id="path58" />
          <path
             d="m 68708,33226 h -238 v -500 h 238"
             id="path60" />
          <path
             d="m 68922,33226 v -500 h 119 l 72,24 47,47 24,48 24,95 v 71 l -24,96 -24,47 -47,48 -72,24 h -119"
             id="path62" />
        </g>
      </g>
    </g>
    <g
       style="fill:#006464;fill-opacity:0;stroke:#006464;stroke-width:60;stroke-linecap:round;stroke-linejoin:round;stroke-opacity:1"
       id="g90">
      <g
         id="g70" />
      <g
         style="fill:#840000;fill-opacity:0;stroke:#840000;stroke-width:60;stroke-linecap:round;stroke-linejoin:round;stroke-opacity:1"
         id="g74">
        <path
           style="fill:none;fill-opacity:0;stroke:#840000;stroke-width:60;stroke-linecap:round;stroke-linejoin:round;stroke-opacity:1"
           d="m 71000,36500 v 500 h 500 l -500,500 -500,-500 h 500"
           id="path72" />
      </g>
      <g
         style="fill:#006464;fill-opacity:0;stroke:#006464;stroke-width:60;stroke-linecap:round;stroke-linejoin:round;stroke-opacity:1"
         id="g88">
        <text
           x="71000"
           y="38749.961"
           textLength="1583.8188"
           font-size="666.654px"
           lengthAdjust="spacingAndGlyphs"
           text-anchor="middle"
           opacity="0"
           id="text76">GND</text>
        <g
           class="stroked-text"
           id="g86">
          <desc
             id="desc78">GND</desc>
          <path
             d="m 70619,38249 -48,-23 h -71 l -72,23 -48,48 -23,48 -24,95 v 71 l 24,96 23,47 48,48 72,24 h 47 l 72,-24 23,-24 v -167 h -95"
             id="path80" />
          <path
             d="m 70857,38726 v -500 l 285,500 v -500"
             id="path82" />
          <path
             d="m 71380,38726 v -500 h 120 l 71,23 48,48 23,48 24,95 v 71 l -24,96 -23,47 -48,48 -71,24 h -120"
             id="path84" />
        </g>
      </g>
    </g>
    <g
       style="fill:#006464;fill-opacity:0;stroke:#006464;stroke-width:60;stroke-linecap:round;stroke-linejoin:round;stroke-opacity:1"
       id="g138">
      <g
         id="g92" />
      <g
         style="fill:#840000;fill-opacity:0;stroke:#840000;stroke-width:60;stroke-linecap:round;stroke-linejoin:round;stroke-opacity:1"
         id="g94" />
      <g
         style="fill:#840000;fill-opacity:0;stroke:#840000;stroke-width:100;stroke-linecap:round;stroke-linejoin:round;stroke-opacity:1"
         id="g98">
        <rect
           x="62500"
           y="34600"
           width="2000"
           height="800"
           rx="0.000000"
           id="rect96" />
      </g>
      <g
         style="fill:#840000;fill-opacity:0;stroke:#840000;stroke-width:60;stroke-linecap:round;stroke-linejoin:round;stroke-opacity:1"
         id="g104">
        <path
           d="m 64500,35000 h 500"
           id="path100" />
        <path
           d="m 62500,35000 h -500"
           id="path102" />
      </g>
      <g
         style="fill:#006464;fill-opacity:0;stroke:#006464;stroke-width:60;stroke-linecap:round;stroke-linejoin:round;stroke-opacity:1"
         id="g136">
        <text
           x="63500"
           y="32749.961"
           textLength="1036.1812"
           font-size="666.654px"
           lengthAdjust="spacingAndGlyphs"
           text-anchor="middle"
           opacity="0"
           id="text106">R1</text>
        <g
           class="stroked-text"
           id="g118">
          <desc
             id="desc108">R1</desc>
          <path
             d="m 63416,32726 -166,-238"
             id="path110" />
          <path
             d="m 63130,32726 v -500 h 191 l 48,23 23,24 24,48 v 71 l -24,48 -23,24 -48,24 h -191"
             id="path112" />
          <path
             d="m 63892,32726 h -285"
             id="path114" />
          <path
             d="m 63750,32726 v -500 l -48,71 -48,48 -47,23"
             id="path116" />
        </g>
        <text
           x="63500"
           y="33749.961"
           textLength="1036.1812"
           font-size="666.654px"
           lengthAdjust="spacingAndGlyphs"
           text-anchor="middle"
           opacity="0"
           id="text120">1K</text>
        <g
           class="stroked-text"
           id="g134">
          <desc
             id="desc122">1K</desc>
          <path
             d="m 63392,33726 h -285"
             id="path124" />
          <path
             d="m 63250,33726 v -500 l -48,71 -48,48 -47,23"
             id="path126" />
          <path
             d="m 63607,33726 v -500"
             id="path128" />
          <path
             d="m 63892,33726 -214,-286"
             id="path130" />
          <path
             d="m 63892,33226 -285,285"
             id="path132" />
        </g>
      </g>
    </g>
    <g
       style="fill:#006464;fill-opacity:0;stroke:#006464;stroke-width:60;stroke-linecap:round;stroke-linejoin:round;stroke-opacity:1"
       id="g160">
      <g
         id="g140" />
      <g
         style="fill:#840000;fill-opacity:0;stroke:#840000;stroke-width:60;stroke-linecap:round;stroke-linejoin:round;stroke-opacity:1"
         id="g144">
        <path
           style="fill:none;fill-opacity:0;stroke:#840000;stroke-width:60;stroke-linecap:round;stroke-linejoin:round;stroke-opacity:1"
           d="m 54500,45500 v 500 h 500 l -500,500 -500,-500 h 500"
           id="path142" />
      </g>
      <g
         style="fill:#006464;fill-opacity:0;stroke:#006464;stroke-width:60;stroke-linecap:round;stroke-linejoin:round;stroke-opacity:1"
         id="g158">
        <text
           x="54500"
           y="47749.961"
           textLength="1583.8188"
           font-size="666.654px"
           lengthAdjust="spacingAndGlyphs"
           text-anchor="middle"
           opacity="0"
           id="text146">GND</text>
        <g
           class="stroked-text"
           id="g156">
          <desc
             id="desc148">GND</desc>
          <path
             d="m 54119,47249 -48,-23 h -71 l -72,23 -48,48 -23,48 -24,95 v 71 l 24,96 23,47 48,48 72,24 h 47 l 72,-24 23,-24 v -167 h -95"
             id="path150" />
          <path
             d="m 54357,47726 v -500 l 285,500 v -500"
             id="path152" />
          <path
             d="m 54880,47726 v -500 h 120 l 71,23 48,48 23,48 24,95 v 71 l -24,96 -23,47 -48,48 -71,24 h -120"
             id="path154" />
        </g>
      </g>
    </g>
    <g
       style="fill:#006464;fill-opacity:0;stroke:#006464;stroke-width:60;stroke-linecap:round;stroke-linejoin:round;stroke-opacity:1"
       id="g562">
      <g
         id="g162" />
      <g
         style="fill:#840000;fill-opacity:0;stroke:#840000;stroke-width:60;stroke-linecap:round;stroke-linejoin:round;stroke-opacity:1"
         id="g164" />
      <g
         style="fill:#ffffc2;fill-opacity:0;stroke:#ffffc2;stroke-width:60;stroke-linecap:round;stroke-linejoin:round;stroke-opacity:1"
         id="g166" />
      <g
         style="fill:#ffffc2;fill-opacity:0.6;stroke:#ffffc2;stroke-width:0.03937;stroke-linecap:round;stroke-linejoin:round;stroke-opacity:1"
         id="g170">
        <rect
           x="49500"
           y="33000"
           width="10000"
           height="10000"
           rx="0.000000"
           id="rect168" />
      </g>
      <g
         style="fill:#840000;fill-opacity:0.6;stroke:#840000;stroke-width:0.03937;stroke-linecap:round;stroke-linejoin:round;stroke-opacity:1"
         id="g172" />
      <g
         style="fill:#840000;fill-opacity:0;stroke:#840000;stroke-width:100;stroke-linecap:round;stroke-linejoin:round;stroke-opacity:1"
         id="g178">
        <rect
           x="49500"
           y="33000"
           width="10000"
           height="10000"
           rx="0.000000"
           id="rect174" />
        <rect
           x="49500"
           y="33000"
           width="10000"
           height="10000"
           rx="0.000000"
           id="rect176" />
      </g>
      <g
         style="fill:#840000;fill-opacity:0;stroke:#840000;stroke-width:60;stroke-linecap:round;stroke-linejoin:round;stroke-opacity:1"
         id="g182">
        <path
           d="m 59500,40000 h 1000"
           id="path180" />
      </g>
      <g
         style="fill:#006464;fill-opacity:0;stroke:#006464;stroke-width:60;stroke-linecap:round;stroke-linejoin:round;stroke-opacity:1"
         id="g226">
        <text
           x="59300"
           y="40250"
           textLength="4321.8896"
           font-size="666.654px"
           lengthAdjust="spacingAndGlyphs"
           text-anchor="end"
           opacity="0"
           id="text184">~{RESET}/PB5</text>
        <g
           class="stroked-text"
           id="g224">
          <desc
             id="desc186">~{RESET}/PB5</desc>
          <path
             d="m 55008,39585 h 500"
             id="path188" />
          <path
             d="m 55412,40226 -166,-238"
             id="path190" />
          <path
             d="m 55127,40226 v -500 h 190 l 48,24 24,23 23,48 v 71 l -23,48 -24,24 -48,24 h -190"
             id="path192" />
          <path
             d="m 55508,39585 h 452"
             id="path194" />
          <path
             d="m 55627,39964 h 166"
             id="path196" />
          <path
             d="m 55865,40226 h -238 v -500 h 238"
             id="path198" />
          <path
             d="m 55960,39585 h 476"
             id="path200" />
          <path
             d="m 56055,40202 72,24 h 119 l 47,-24 24,-24 24,-48 v -47 l -24,-48 -24,-24 -47,-23 -96,-24 -47,-24 -24,-24 -24,-47 v -48 l 24,-48 24,-23 47,-24 h 120 l 71,24"
             id="path202" />
          <path
             d="m 56436,39585 h 453"
             id="path204" />
          <path
             d="m 56555,39964 h 167"
             id="path206" />
          <path
             d="m 56793,40226 h -238 v -500 h 238"
             id="path208" />
          <path
             d="m 56889,39585 h 381"
             id="path210" />
          <path
             d="m 56936,39726 h 286"
             id="path212" />
          <path
             d="m 57079,40226 v -500"
             id="path214" />
          <path
             d="m 57746,39702 -429,643"
             id="path216" />
          <path
             d="m 57912,40226 v -500 h 191 l 47,24 24,23 24,48 v 71 l -24,48 -24,24 -47,24 h -191"
             id="path218" />
          <path
             d="m 58579,39964 71,24 24,23 24,48 v 71 l -24,48 -24,24 -47,24 h -191 v -500 h 167 l 48,24 23,23 24,48 v 48 l -24,47 -23,24 -48,24 h -167"
             id="path220" />
          <path
             d="m 59150,39726 h -238 l -23,238 23,-24 48,-24 h 119 l 48,24 23,24 24,47 v 119 l -24,48 -23,24 -48,24 h -119 l -48,-24 -23,-24"
             id="path222" />
        </g>
      </g>
      <g
         style="fill:#a90000;fill-opacity:0;stroke:#a90000;stroke-width:60;stroke-linecap:round;stroke-linejoin:round;stroke-opacity:1"
         id="g238">
        <text
           x="60000"
           y="39900"
           textLength="536.18109"
           font-size="666.654px"
           lengthAdjust="spacingAndGlyphs"
           text-anchor="middle"
           opacity="0"
           id="text228">1</text>
        <g
           class="stroked-text"
           id="g236">
          <desc
             id="desc230">1</desc>
          <path
             d="m 60142,39876 h -285"
             id="path232" />
          <path
             d="m 60000,39876 v -500 l -48,71 -48,48 -47,24"
             id="path234" />
        </g>
      </g>
      <g
         style="fill:#840000;fill-opacity:0;stroke:#840000;stroke-width:60;stroke-linecap:round;stroke-linejoin:round;stroke-opacity:1"
         id="g242">
        <path
           d="m 59500,38000 h 1000"
           id="path240" />
      </g>
      <g
         style="fill:#006464;fill-opacity:0;stroke:#006464;stroke-width:60;stroke-linecap:round;stroke-linejoin:round;stroke-opacity:1"
         id="g276">
        <text
           x="59300"
           y="38250"
           textLength="4226.6533"
           font-size="666.654px"
           lengthAdjust="spacingAndGlyphs"
           text-anchor="end"
           opacity="0"
           id="text244">XTAL1/PB3</text>
        <g
           class="stroked-text"
           id="g274">
          <desc
             id="desc246">XTAL1/PB3</desc>
          <path
             d="m 55174,37726 334,500"
             id="path248" />
          <path
             d="m 55508,37726 -334,500"
             id="path250" />
          <path
             d="m 55627,37726 h 285"
             id="path252" />
          <path
             d="m 55770,38226 v -500"
             id="path254" />
          <path
             d="m 56055,38083 h 238"
             id="path256" />
          <path
             d="m 56008,38226 166,-500 167,500"
             id="path258" />
          <path
             d="m 56746,38226 h -238 v -500"
             id="path260" />
          <path
             d="m 57174,38226 h -285"
             id="path262" />
          <path
             d="m 57031,38226 v -500 l -47,71 -48,48 -47,24"
             id="path264" />
          <path
             d="m 57746,37702 -429,643"
             id="path266" />
          <path
             d="m 57912,38226 v -500 h 191 l 47,24 24,23 24,48 v 71 l -24,48 -24,24 -47,24 h -191"
             id="path268" />
          <path
             d="m 58579,37964 71,24 24,23 24,48 v 71 l -24,48 -24,24 -47,24 h -191 v -500 h 167 l 48,24 23,23 24,48 v 48 l -24,47 -23,24 -48,24 h -167"
             id="path270" />
          <path
             d="m 58865,37726 h 309 l -166,190 h 71 l 48,24 23,24 24,47 v 119 l -24,48 -23,24 -48,24 h -143 l -47,-24 -24,-24"
             id="path272" />
        </g>
      </g>
      <g
         style="fill:#a90000;fill-opacity:0;stroke:#a90000;stroke-width:60;stroke-linecap:round;stroke-linejoin:round;stroke-opacity:1"
         id="g286">
        <text
           x="60000"
           y="37900"
           textLength="536.18109"
           font-size="666.654px"
           lengthAdjust="spacingAndGlyphs"
           text-anchor="middle"
           opacity="0"
           id="text278">2</text>
        <g
           class="stroked-text"
           id="g284">
          <desc
             id="desc280">2</desc>
          <path
             d="m 59857,37423 23,-23 48,-24 h 119 l 48,24 24,23 23,48 v 48 l -23,71 -286,286 h 309"
             id="path282" />
        </g>
      </g>
      <g
         style="fill:#840000;fill-opacity:0;stroke:#840000;stroke-width:60;stroke-linecap:round;stroke-linejoin:round;stroke-opacity:1"
         id="g290">
        <path
           d="m 59500,39000 h 1000"
           id="path288" />
      </g>
      <g
         style="fill:#006464;fill-opacity:0;stroke:#006464;stroke-width:60;stroke-linecap:round;stroke-linejoin:round;stroke-opacity:1"
         id="g324">
        <text
           x="59300"
           y="39250"
           textLength="4226.6533"
           font-size="666.654px"
           lengthAdjust="spacingAndGlyphs"
           text-anchor="end"
           opacity="0"
           id="text292">XTAL2/PB4</text>
        <g
           class="stroked-text"
           id="g322">
          <desc
             id="desc294">XTAL2/PB4</desc>
          <path
             d="m 55174,38726 334,500"
             id="path296" />
          <path
             d="m 55508,38726 -334,500"
             id="path298" />
          <path
             d="m 55627,38726 h 285"
             id="path300" />
          <path
             d="m 55770,39226 v -500"
             id="path302" />
          <path
             d="m 56055,39083 h 238"
             id="path304" />
          <path
             d="m 56008,39226 166,-500 167,500"
             id="path306" />
          <path
             d="m 56746,39226 h -238 v -500"
             id="path308" />
          <path
             d="m 56889,38773 23,-23 48,-24 h 119 l 48,24 23,23 24,48 v 48 l -24,71 -285,286 h 309"
             id="path310" />
          <path
             d="m 57746,38702 -429,643"
             id="path312" />
          <path
             d="m 57912,39226 v -500 h 191 l 47,24 24,23 24,48 v 71 l -24,48 -24,24 -47,24 h -191"
             id="path314" />
          <path
             d="m 58579,38964 71,24 24,23 24,48 v 71 l -24,48 -24,24 -47,24 h -191 v -500 h 167 l 48,24 23,23 24,48 v 48 l -24,47 -23,24 -48,24 h -167"
             id="path316" />
          <path
             d="m 59127,38892 v 334"
             id="path318" />
          <path
             d="m 59008,38702 -119,357 h 309"
             id="path320" />
        </g>
      </g>
      <g
         style="fill:#a90000;fill-opacity:0;stroke:#a90000;stroke-width:60;stroke-linecap:round;stroke-linejoin:round;stroke-opacity:1"
         id="g334">
        <text
           x="60000"
           y="38900"
           textLength="536.18109"
           font-size="666.654px"
           lengthAdjust="spacingAndGlyphs"
           text-anchor="middle"
           opacity="0"
           id="text326">3</text>
        <g
           class="stroked-text"
           id="g332">
          <desc
             id="desc328">3</desc>
          <path
             d="m 59833,38376 h 309 l -166,190 h 71 l 48,24 24,24 23,47 v 119 l -23,48 -24,24 -48,24 h -143 l -47,-24 -24,-24"
             id="path330" />
        </g>
      </g>
      <g
         style="fill:#840000;fill-opacity:0;stroke:#840000;stroke-width:60;stroke-linecap:round;stroke-linejoin:round;stroke-opacity:1"
         id="g338">
        <path
           d="m 54500,43000 v 1000"
           id="path336" />
      </g>
      <g
         style="fill:#006464;fill-opacity:0;stroke:#006464;stroke-width:60;stroke-linecap:round;stroke-linejoin:round;stroke-opacity:1"
         id="g354">
        <g
           transform="rotate(-90,54500,42800)"
           id="g342">
          <text
             x="54500"
             y="43050"
             textLength="1583.8188"
             font-size="666.654px"
             lengthAdjust="spacingAndGlyphs"
             text-anchor="start"
             opacity="0"
             id="text340">GND</text>
        </g>
        <g
           class="stroked-text"
           id="g352">
          <desc
             id="desc344">GND</desc>
          <path
             d="m 54250,42389 -24,47 v 72 l 24,71 47,48 48,23 95,24 h 71 l 96,-24 47,-23 48,-48 24,-71 v -48 l -24,-71 -24,-24 h -167 v 95"
             id="path346" />
          <path
             d="m 54726,42150 h -500 l 500,-285 h -500"
             id="path348" />
          <path
             d="m 54726,41627 h -500 v -119 l 24,-72 47,-47 48,-24 95,-24 h 71 l 96,24 47,24 48,47 24,72 v 119"
             id="path350" />
        </g>
      </g>
      <g
         style="fill:#a90000;fill-opacity:0;stroke:#a90000;stroke-width:60;stroke-linecap:round;stroke-linejoin:round;stroke-opacity:1"
         id="g368">
        <g
           transform="rotate(-90,54400,43500)"
           id="g358">
          <text
             x="54400"
             y="43500"
             textLength="536.18109"
             font-size="666.654px"
             lengthAdjust="spacingAndGlyphs"
             text-anchor="middle"
             opacity="0"
             id="text356">4</text>
        </g>
        <g
           class="stroked-text"
           id="g366">
          <desc
             id="desc360">4</desc>
          <path
             d="m 54042,43404 h 334"
             id="path362" />
          <path
             d="m 53852,43523 357,119 v -309"
             id="path364" />
        </g>
      </g>
      <g
         style="fill:#840000;fill-opacity:0;stroke:#840000;stroke-width:60;stroke-linecap:round;stroke-linejoin:round;stroke-opacity:1"
         id="g372">
        <path
           d="m 59500,35000 h 1000"
           id="path370" />
      </g>
      <g
         style="fill:#006464;fill-opacity:0;stroke:#006464;stroke-width:60;stroke-linecap:round;stroke-linejoin:round;stroke-opacity:1"
         id="g404">
        <text
           x="59300"
           y="35250"
           textLength="3869.5276"
           font-size="666.654px"
           lengthAdjust="spacingAndGlyphs"
           text-anchor="end"
           opacity="0"
           id="text374">AREF/PB0</text>
        <g
           class="stroked-text"
           id="g402">
          <desc
             id="desc376">AREF/PB0</desc>
          <path
             d="m 55555,35083 h 238"
             id="path378" />
          <path
             d="m 55508,35226 166,-500 167,500"
             id="path380" />
          <path
             d="m 56293,35226 -166,-238"
             id="path382" />
          <path
             d="m 56008,35226 v -500 h 190 l 48,24 24,23 23,48 v 71 l -23,48 -24,24 -48,24 h -190"
             id="path384" />
          <path
             d="m 56508,34964 h 166"
             id="path386" />
          <path
             d="m 56746,35226 h -238 v -500 h 238"
             id="path388" />
          <path
             d="m 57127,34964 h -167"
             id="path390" />
          <path
             d="m 56960,35226 v -500 h 238"
             id="path392" />
          <path
             d="m 57746,34702 -429,643"
             id="path394" />
          <path
             d="m 57912,35226 v -500 h 191 l 47,24 24,23 24,48 v 71 l -24,48 -24,24 -47,24 h -191"
             id="path396" />
          <path
             d="m 58579,34964 71,24 24,23 24,48 v 71 l -24,48 -24,24 -47,24 h -191 v -500 h 167 l 48,24 23,23 24,48 v 48 l -24,47 -23,24 -48,24 h -167"
             id="path398" />
          <path
             d="m 59008,34726 h 47 l 48,24 24,23 23,48 24,95 v 119 l -24,95 -23,48 -24,24 -48,24 h -47 l -48,-24 -24,-24 -24,-48 -23,-95 v -119 l 23,-95 24,-48 24,-23 48,-24"
             id="path400" />
        </g>
      </g>
      <g
         style="fill:#a90000;fill-opacity:0;stroke:#a90000;stroke-width:60;stroke-linecap:round;stroke-linejoin:round;stroke-opacity:1"
         id="g414">
        <text
           x="60000"
           y="34900"
           textLength="536.18109"
           font-size="666.654px"
           lengthAdjust="spacingAndGlyphs"
           text-anchor="middle"
           opacity="0"
           id="text406">5</text>
        <g
           class="stroked-text"
           id="g412">
          <desc
             id="desc408">5</desc>
          <path
             d="m 60119,34376 h -239 l -23,238 23,-24 48,-24 h 119 l 48,24 24,24 23,47 v 119 l -23,48 -24,24 -48,24 h -119 l -48,-24 -23,-24"
             id="path410" />
        </g>
      </g>
      <g
         style="fill:#840000;fill-opacity:0;stroke:#840000;stroke-width:60;stroke-linecap:round;stroke-linejoin:round;stroke-opacity:1"
         id="g418">
        <path
           d="m 59500,36000 h 1000"
           id="path416" />
      </g>
      <g
         style="fill:#006464;fill-opacity:0;stroke:#006464;stroke-width:60;stroke-linecap:round;stroke-linejoin:round;stroke-opacity:1"
         id="g434">
        <text
           x="59300"
           y="36250"
           textLength="1536.1812"
           font-size="666.654px"
           lengthAdjust="spacingAndGlyphs"
           text-anchor="end"
           opacity="0"
           id="text420">PB1</text>
        <g
           class="stroked-text"
           id="g432">
          <desc
             id="desc422">PB1</desc>
          <path
             d="m 57912,36226 v -500 h 191 l 47,24 24,23 24,48 v 71 l -24,48 -24,24 -47,24 h -191"
             id="path424" />
          <path
             d="m 58579,35964 71,24 24,23 24,48 v 71 l -24,48 -24,24 -47,24 h -191 v -500 h 167 l 48,24 23,23 24,48 v 48 l -24,47 -23,24 -48,24 h -167"
             id="path426" />
          <path
             d="m 59174,36226 h -285"
             id="path428" />
          <path
             d="m 59031,36226 v -500 l -47,71 -48,48 -47,24"
             id="path430" />
        </g>
      </g>
      <g
         style="fill:#a90000;fill-opacity:0;stroke:#a90000;stroke-width:60;stroke-linecap:round;stroke-linejoin:round;stroke-opacity:1"
         id="g444">
        <text
           x="60000"
           y="35900"
           textLength="536.18109"
           font-size="666.654px"
           lengthAdjust="spacingAndGlyphs"
           text-anchor="middle"
           opacity="0"
           id="text436">6</text>
        <g
           class="stroked-text"
           id="g442">
          <desc
             id="desc438">6</desc>
          <path
             d="m 60095,35376 h -95 l -48,24 -24,23 -48,72 -23,95 v 190 l 23,48 24,24 48,24 h 95 l 48,-24 24,-24 23,-48 v -119 l -23,-47 -24,-24 -48,-24 h -95 l -48,24 -24,24 -23,47"
             id="path440" />
        </g>
      </g>
      <g
         style="fill:#840000;fill-opacity:0;stroke:#840000;stroke-width:60;stroke-linecap:round;stroke-linejoin:round;stroke-opacity:1"
         id="g448">
        <path
           d="m 59500,37000 h 1000"
           id="path446" />
      </g>
      <g
         style="fill:#006464;fill-opacity:0;stroke:#006464;stroke-width:60;stroke-linecap:round;stroke-linejoin:round;stroke-opacity:1"
         id="g462">
        <text
           x="59300"
           y="37250"
           textLength="1536.1812"
           font-size="666.654px"
           lengthAdjust="spacingAndGlyphs"
           text-anchor="end"
           opacity="0"
           id="text450">PB2</text>
        <g
           class="stroked-text"
           id="g460">
          <desc
             id="desc452">PB2</desc>
          <path
             d="m 57912,37226 v -500 h 191 l 47,24 24,23 24,48 v 71 l -24,48 -24,24 -47,24 h -191"
             id="path454" />
          <path
             d="m 58579,36964 71,24 24,23 24,48 v 71 l -24,48 -24,24 -47,24 h -191 v -500 h 167 l 48,24 23,23 24,48 v 48 l -24,47 -23,24 -48,24 h -167"
             id="path456" />
          <path
             d="m 58889,36773 23,-23 48,-24 h 119 l 48,24 23,23 24,48 v 48 l -24,71 -285,286 h 309"
             id="path458" />
        </g>
      </g>
      <g
         style="fill:#a90000;fill-opacity:0;stroke:#a90000;stroke-width:60;stroke-linecap:round;stroke-linejoin:round;stroke-opacity:1"
         id="g472">
        <text
           x="60000"
           y="36900"
           textLength="536.18109"
           font-size="666.654px"
           lengthAdjust="spacingAndGlyphs"
           text-anchor="middle"
           opacity="0"
           id="text464">7</text>
        <g
           class="stroked-text"
           id="g470">
          <desc
             id="desc466">7</desc>
          <path
             d="m 59833,36376 h 333 l -214,500"
             id="path468" />
        </g>
      </g>
      <g
         style="fill:#840000;fill-opacity:0;stroke:#840000;stroke-width:60;stroke-linecap:round;stroke-linejoin:round;stroke-opacity:1"
         id="g476">
        <path
           d="M 54500,33000 V 32000"
           id="path474" />
      </g>
      <g
         style="fill:#006464;fill-opacity:0;stroke:#006464;stroke-width:60;stroke-linecap:round;stroke-linejoin:round;stroke-opacity:1"
         id="g492">
        <g
           transform="rotate(-90,54500,33200)"
           id="g480">
          <text
             x="54500"
             y="33450"
             textLength="1488.5826"
             font-size="666.654px"
             lengthAdjust="spacingAndGlyphs"
             text-anchor="end"
             opacity="0"
             id="text478">VCC</text>
        </g>
        <g
           class="stroked-text"
           id="g490">
          <desc
             id="desc482">VCC</desc>
          <path
             d="m 54226,34610 500,-166 -500,-167"
             id="path484" />
          <path
             d="m 54678,33825 24,24 24,71 v 48 l -24,71 -48,48 -47,23 -96,24 h -71 l -95,-24 -48,-23 -47,-48 -24,-71 v -48 l 24,-71 23,-24"
             id="path486" />
          <path
             d="m 54678,33325 24,24 24,71 v 48 l -24,71 -48,48 -47,23 -96,24 h -71 l -95,-24 -48,-23 -47,-48 -24,-71 v -48 l 24,-71 23,-24"
             id="path488" />
        </g>
      </g>
      <g
         style="fill:#a90000;fill-opacity:0;stroke:#a90000;stroke-width:60;stroke-linecap:round;stroke-linejoin:round;stroke-opacity:1"
         id="g504">
        <g
           transform="rotate(-90,54400,32500)"
           id="g496">
          <text
             x="54400"
             y="32500"
             textLength="536.18109"
             font-size="666.654px"
             lengthAdjust="spacingAndGlyphs"
             text-anchor="middle"
             opacity="0"
             id="text494">8</text>
        </g>
        <g
           class="stroked-text"
           id="g502">
          <desc
             id="desc498">8</desc>
          <path
             d="m 54090,32547 -24,48 -24,24 -47,23 h -24 l -48,-23 -23,-24 -24,-48 v -95 l 24,-48 23,-24 48,-23 h 24 l 47,23 24,24 24,48 v 95 l 24,48 24,24 47,23 h 95 l 48,-23 24,-24 24,-48 v -95 l -24,-48 -24,-24 -48,-23 h -95 l -47,23 -24,24 -24,48"
             id="path500" />
        </g>
      </g>
      <g
         style="fill:#006464;fill-opacity:0;stroke:#006464;stroke-width:60;stroke-linecap:round;stroke-linejoin:round;stroke-opacity:1"
         id="g560">
        <text
           x="48468.738"
           y="37749.922"
           textLength="1060"
           font-size="666.654px"
           lengthAdjust="spacingAndGlyphs"
           text-anchor="middle"
           opacity="0"
           id="text506">U1</text>
        <g
           class="stroked-text"
           id="g516">
          <desc
             id="desc508">U1</desc>
          <path
             d="m 48087,37226 v 404 l 24,48 24,24 47,24 h 96 l 47,-24 24,-24 24,-48 v -404"
             id="path510" />
          <path
             d="m 48873,37726 h -286"
             id="path512" />
          <path
             d="m 48730,37726 v -500 l -48,71 -47,48 -48,23"
             id="path514" />
        </g>
        <text
           x="46373.504"
           y="38749.922"
           textLength="5250.4727"
           font-size="666.654px"
           lengthAdjust="spacingAndGlyphs"
           text-anchor="middle"
           opacity="0"
           id="text518">ATtiny85-20P</text>
        <g
           class="stroked-text"
           id="g558">
          <desc
             id="desc520">ATtiny85-20P</desc>
          <path
             d="m 43873,38583 h 238"
             id="path522" />
          <path
             d="m 43825,38726 167,-500 167,500"
             id="path524" />
          <path
             d="m 44254,38226 h 286"
             id="path526" />
          <path
             d="m 44397,38726 v -500"
             id="path528" />
          <path
             d="m 44635,38392 h 190"
             id="path530" />
          <path
             d="m 44706,38226 v 428 l 24,48 48,24 h 47"
             id="path532" />
          <path
             d="m 44992,38726 v -334"
             id="path534" />
          <path
             d="m 44992,38226 -24,23 24,24 24,-24 -24,-23 v 47"
             id="path536" />
          <path
             d="m 45230,38392 v 334"
             id="path538" />
          <path
             d="m 45230,38440 24,-24 48,-24 h 71 l 48,24 23,48 v 262"
             id="path540" />
          <path
             d="m 45635,38392 119,334"
             id="path542" />
          <path
             d="m 45873,38392 -119,334 -48,119 -24,23 -47,24"
             id="path544" />
          <path
             d="m 46135,38440 -48,-24 -24,-24 -23,-47 v -24 l 23,-48 24,-24 48,-23 h 95 l 48,23 24,24 23,48 v 24 l -23,47 -24,24 -48,24 h -95 l -48,24 -24,23 -23,48 v 95 l 23,48 24,24 48,24 h 95 l 48,-24 24,-24 23,-48 v -95 l -23,-48 -24,-23 -48,-24"
             id="path546" />
          <path
             d="m 46778,38226 h -238 l -24,238 24,-24 47,-24 h 119 l 48,24 24,24 24,47 v 119 l -24,48 -24,24 -48,24 h -119 l -47,-24 -24,-24"
             id="path548" />
          <path
             d="m 47016,38535 h 381"
             id="path550" />
          <path
             d="m 47611,38273 24,-24 47,-23 h 120 l 47,23 24,24 24,48 v 47 l -24,72 -286,286 h 310"
             id="path552" />
          <path
             d="m 48206,38226 h 48 l 48,23 23,24 24,48 24,95 v 119 l -24,95 -24,48 -23,24 -48,24 h -48 l -47,-24 -24,-24 -24,-48 -24,-95 v -119 l 24,-95 24,-48 24,-24 47,-23"
             id="path554" />
          <path
             d="m 48587,38726 v -500 h 191 l 47,23 24,24 24,48 v 71 l -24,48 -24,24 -47,23 h -191"
             id="path556" />
        </g>
      </g>
    </g>
    <g
       style="fill:#006464;fill-opacity:0;stroke:#006464;stroke-width:60;stroke-linecap:round;stroke-linejoin:round;stroke-opacity:1"
       id="g590">
      <g
         id="g564" />
      <g
         style="fill:#840000;fill-opacity:0;stroke:#840000;stroke-width:60;stroke-linecap:round;stroke-linejoin:round;stroke-opacity:1"
         id="g572">
        <path
           style="fill:none;fill-opacity:0;stroke:#840000;stroke-width:60;stroke-linecap:round;stroke-linejoin:round;stroke-opacity:1"
           d="m 54200,30000 300,-500"
           id="path566" />
        <path
           style="fill:none;fill-opacity:0;stroke:#840000;stroke-width:60;stroke-linecap:round;stroke-linejoin:round;stroke-opacity:1"
           d="M 54500,30500 V 29500"
           id="path568" />
        <path
           style="fill:none;fill-opacity:0;stroke:#840000;stroke-width:60;stroke-linecap:round;stroke-linejoin:round;stroke-opacity:1"
           d="m 54500,29500 300,500"
           id="path570" />
      </g>
      <g
         style="fill:#006464;fill-opacity:0;stroke:#006464;stroke-width:60;stroke-linecap:round;stroke-linejoin:round;stroke-opacity:1"
         id="g588">
        <text
           x="54500"
           y="28749.961"
           textLength="1583.8188"
           font-size="666.654px"
           lengthAdjust="spacingAndGlyphs"
           text-anchor="middle"
           opacity="0"
           id="text574">+5V</text>
        <g
           class="stroked-text"
           id="g586">
          <desc
             id="desc576">+5V</desc>
          <path
             d="m 53857,28535 h 381"
             id="path578" />
          <path
             d="m 54047,28726 v -381"
             id="path580" />
          <path
             d="m 54714,28226 h -238 l -24,238 24,-24 47,-24 h 119 l 48,24 24,24 24,47 v 119 l -24,48 -24,24 -48,24 h -119 l -47,-24 -24,-24"
             id="path582" />
          <path
             d="m 54880,28226 167,500 167,-500"
             id="path584" />
        </g>
      </g>
    </g>
    <g
       style="fill:#009600;fill-opacity:0;stroke:#009600;stroke-width:60;stroke-linecap:round;stroke-linejoin:round;stroke-opacity:1"
       id="g606">
      <path
         d="m 65000,35000 h 1500"
         id="path594" />
      <path
         d="m 69500,35000 h 1500"
         id="path596" />
      <path
         d="m 71000,35000 v 1500"
         id="path598" />
      <path
         d="m 54500,44000 v 1500"
         id="path600" />
      <path
         d="m 54500,30500 v 1500"
         id="path602" />
      <path
         d="m 60500,35000 h 1500"
         id="path604" />
    </g>
    <g
       style="fill:#000084;fill-opacity:0;stroke:#000084;stroke-width:60;stroke-linecap:round;stroke-linejoin:round;stroke-opacity:1"
       id="g628">
      <path
         d="m 60260,38760 480,480"
         id="path608" />
      <path
         d="m 60740,38760 -480,480"
         id="path610" />
      <path
         d="m 60260,39760 480,480"
         id="path612" />
      <path
         d="m 60740,39760 -480,480"
         id="path614" />
      <path
         d="m 60260,35760 480,480"
         id="path616" />
      <path
         d="m 60740,35760 -480,480"
         id="path618" />
      <path
         d="m 60260,36760 480,480"
         id="path620" />
      <path
         d="m 60740,36760 -480,480"
         id="path622" />
      <path
         d="m 60260,37760 480,480"
         id="path624" />
      <path
         d="m 60740,37760 -480,480"
         id="path626" />
    </g>
  </g>
  <metadata
     id="metadata1226">
    <rdf:RDF>
      <cc:Work
         rdf:about="">
        <dc:title>SVG Picture created as avr-blink.svg date 2022/08/11 11:26:54 </dc:title>
      </cc:Work>
    </rdf:RDF>
  </metadata>
</svg>
