<?xml version="1.0" standalone="no"?>
 <!DOCTYPE svg PUBLIC "-//W3C//DTD SVG 1.1//EN" 
 "http://www.w3.org/Graphics/SVG/1.1/DTD/svg11.dtd"> 
<svg
  xmlns:svg="http://www.w3.org/2000/svg"
  xmlns="http://www.w3.org/2000/svg"
  xmlns:xlink="http://www.w3.org/1999/xlink"
  version="1.1"
  width="29.700220cm" height="21.000720cm" viewBox="0 0 116930 82680">
<title>SVG Picture created as avr-blink.svg date 2022/08/11 11:26:54 </title>
  <desc>Picture generated by Eeschema-SVG </desc>
<g style="fill:#000000; fill-opacity:1.000000;stroke:#000000; stroke-opacity:1.000000;
stroke-linecap:round; stroke-linejoin:round;"
 transform="translate(0 0) scale(1 1)">
</g>
<g style="fill:#F5F4EF; fill-opacity:0.0; 
stroke:#F5F4EF; stroke-width:0.000000; stroke-opacity:1; 
stroke-linecap:round; stroke-linejoin:round;">
</g>
<g style="fill:#F5F4EF; fill-opacity:1.0; 
stroke:#F5F4EF; stroke-width:0.039370; stroke-opacity:1; 
stroke-linecap:round; stroke-linejoin:round;">
<rect x="0.000000" y="0.000000" width="116930.000000" height="82680.000000" rx="0.000000" />
</g>
<g style="fill:#F5F4EF; fill-opacity:1.0; 
stroke:#F5F4EF; stroke-width:60.000000; stroke-opacity:1; 
stroke-linecap:round; stroke-linejoin:round;">
<g >
</g>
<g style="fill:#840000; fill-opacity:1.0; 
stroke:#840000; stroke-width:60.000000; stroke-opacity:1; 
stroke-linecap:round; stroke-linejoin:round;">
</g>
<g style="fill:#840000; fill-opacity:0.0; 
stroke:#840000; stroke-width:100.000000; stroke-opacity:1; 
stroke-linecap:round; stroke-linejoin:round;">
<path style="fill:#840000; fill-opacity:0.0; 
stroke:#840000; stroke-width:100.000000; stroke-opacity:1; 
stroke-linecap:round; stroke-linejoin:round;fill:none"
d="M 68500.000000,34500.000000
68500.000000,35500.000000
" /> 
</g>
<g style="fill:#840000; fill-opacity:0.0; 
stroke:#840000; stroke-width:60.000000; stroke-opacity:1; 
stroke-linecap:round; stroke-linejoin:round;">
<path style="fill:#840000; fill-opacity:0.0; 
stroke:#840000; stroke-width:60.000000; stroke-opacity:1; 
stroke-linecap:round; stroke-linejoin:round;fill:none"
d="M 68500.000000,35000.000000
67500.000000,35000.000000
" /> 
</g>
<g style="fill:#840000; fill-opacity:0.0; 
stroke:#840000; stroke-width:100.000000; stroke-opacity:1; 
stroke-linecap:round; stroke-linejoin:round;">
<path style="fill:#840000; fill-opacity:0.0; 
stroke:#840000; stroke-width:100.000000; stroke-opacity:1; 
stroke-linecap:round; stroke-linejoin:round;fill:none"
d="M 67500.000000,34500.000000
67500.000000,35500.000000
68500.000000,35000.000000
Z" /> 
</g>
<g style="fill:#840000; fill-opacity:0.0; 
stroke:#840000; stroke-width:60.000000; stroke-opacity:1; 
stroke-linecap:round; stroke-linejoin:round;">
<path style="fill:#840000; fill-opacity:0.0; 
stroke:#840000; stroke-width:60.000000; stroke-opacity:1; 
stroke-linecap:round; stroke-linejoin:round;fill:none"
d="M 69200.000000,34700.000000
69800.000000,34100.000000
69500.000000,34100.000000
69800.000000,34100.000000
69800.000000,34400.000000
" /> 
<path style="fill:#840000; fill-opacity:0.0; 
stroke:#840000; stroke-width:60.000000; stroke-opacity:1; 
stroke-linecap:round; stroke-linejoin:round;fill:none"
d="M 68700.000000,34700.000000
69300.000000,34100.000000
69000.000000,34100.000000
69300.000000,34100.000000
69300.000000,34400.000000
" /> 
<path d="M68500 35000
L69500 35000
" />
<path d="M67500 35000
L66500 35000
" />
</g>
<g style="fill:#006464; fill-opacity:0.0; 
stroke:#006464; stroke-width:60.000000; stroke-opacity:1; 
stroke-linecap:round; stroke-linejoin:round;">
<text x="68624.960630" y="32250.000000"
textLength="1106.181102" font-size="666.653543" lengthAdjust="spacingAndGlyphs"
text-anchor="middle" opacity="0">D1</text>
<g class="stroked-text"><desc>D1</desc>
<path d="M68255 32226
L68255 31726
L68374 31726
L68446 31750
L68493 31797
L68517 31845
L68541 31940
L68541 32011
L68517 32107
L68493 32154
L68446 32202
L68374 32226
L68255 32226
" />
<path d="M69017 32226
L68732 32226
" />
<path d="M68874 32226
L68874 31726
L68827 31797
L68779 31845
L68732 31869
" />
</g><text x="68624.960630" y="33250.000000"
textLength="1417.125984" font-size="666.653543" lengthAdjust="spacingAndGlyphs"
text-anchor="middle" opacity="0">LED</text>
<g class="stroked-text"><desc>LED</desc>
<path d="M68303 33226
L68065 33226
L68065 32726
" />
<path d="M68470 32964
L68636 32964
" />
<path d="M68708 33226
L68470 33226
L68470 32726
L68708 32726
" />
<path d="M68922 33226
L68922 32726
L69041 32726
L69113 32750
L69160 32797
L69184 32845
L69208 32940
L69208 33011
L69184 33107
L69160 33154
L69113 33202
L69041 33226
L68922 33226
" />
</g></g>
</g>
<g style="fill:#006464; fill-opacity:0.0; 
stroke:#006464; stroke-width:60.000000; stroke-opacity:1; 
stroke-linecap:round; stroke-linejoin:round;">
<g >
</g>
<g style="fill:#840000; fill-opacity:0.0; 
stroke:#840000; stroke-width:60.000000; stroke-opacity:1; 
stroke-linecap:round; stroke-linejoin:round;">
<path style="fill:#840000; fill-opacity:0.0; 
stroke:#840000; stroke-width:60.000000; stroke-opacity:1; 
stroke-linecap:round; stroke-linejoin:round;fill:none"
d="M 71000.000000,36500.000000
71000.000000,37000.000000
71500.000000,37000.000000
71000.000000,37500.000000
70500.000000,37000.000000
71000.000000,37000.000000
" /> 
</g>
<g style="fill:#006464; fill-opacity:0.0; 
stroke:#006464; stroke-width:60.000000; stroke-opacity:1; 
stroke-linecap:round; stroke-linejoin:round;">
<text x="71000.000000" y="38749.960630"
textLength="1583.818898" font-size="666.653543" lengthAdjust="spacingAndGlyphs"
text-anchor="middle" opacity="0">GND</text>
<g class="stroked-text"><desc>GND</desc>
<path d="M70619 38249
L70571 38226
L70500 38226
L70428 38249
L70380 38297
L70357 38345
L70333 38440
L70333 38511
L70357 38607
L70380 38654
L70428 38702
L70500 38726
L70547 38726
L70619 38702
L70642 38678
L70642 38511
L70547 38511
" />
<path d="M70857 38726
L70857 38226
L71142 38726
L71142 38226
" />
<path d="M71380 38726
L71380 38226
L71500 38226
L71571 38249
L71619 38297
L71642 38345
L71666 38440
L71666 38511
L71642 38607
L71619 38654
L71571 38702
L71500 38726
L71380 38726
" />
</g></g>
</g>
<g style="fill:#006464; fill-opacity:0.0; 
stroke:#006464; stroke-width:60.000000; stroke-opacity:1; 
stroke-linecap:round; stroke-linejoin:round;">
<g >
</g>
<g style="fill:#840000; fill-opacity:0.0; 
stroke:#840000; stroke-width:60.000000; stroke-opacity:1; 
stroke-linecap:round; stroke-linejoin:round;">
</g>
<g style="fill:#840000; fill-opacity:0.0; 
stroke:#840000; stroke-width:100.000000; stroke-opacity:1; 
stroke-linecap:round; stroke-linejoin:round;">
<rect x="62500.000000" y="34600.000000" width="2000.000000" height="800.000000" rx="0.000000" />
</g>
<g style="fill:#840000; fill-opacity:0.0; 
stroke:#840000; stroke-width:60.000000; stroke-opacity:1; 
stroke-linecap:round; stroke-linejoin:round;">
<path d="M64500 35000
L65000 35000
" />
<path d="M62500 35000
L62000 35000
" />
</g>
<g style="fill:#006464; fill-opacity:0.0; 
stroke:#006464; stroke-width:60.000000; stroke-opacity:1; 
stroke-linecap:round; stroke-linejoin:round;">
<text x="63500.000000" y="32749.960630"
textLength="1036.181102" font-size="666.653543" lengthAdjust="spacingAndGlyphs"
text-anchor="middle" opacity="0">R1</text>
<g class="stroked-text"><desc>R1</desc>
<path d="M63416 32726
L63250 32488
" />
<path d="M63130 32726
L63130 32226
L63321 32226
L63369 32249
L63392 32273
L63416 32321
L63416 32392
L63392 32440
L63369 32464
L63321 32488
L63130 32488
" />
<path d="M63892 32726
L63607 32726
" />
<path d="M63750 32726
L63750 32226
L63702 32297
L63654 32345
L63607 32368
" />
</g><text x="63500.000000" y="33749.960630"
textLength="1036.181102" font-size="666.653543" lengthAdjust="spacingAndGlyphs"
text-anchor="middle" opacity="0">1K</text>
<g class="stroked-text"><desc>1K</desc>
<path d="M63392 33726
L63107 33726
" />
<path d="M63250 33726
L63250 33226
L63202 33297
L63154 33345
L63107 33368
" />
<path d="M63607 33726
L63607 33226
" />
<path d="M63892 33726
L63678 33440
" />
<path d="M63892 33226
L63607 33511
" />
</g></g>
</g>
<g style="fill:#006464; fill-opacity:0.0; 
stroke:#006464; stroke-width:60.000000; stroke-opacity:1; 
stroke-linecap:round; stroke-linejoin:round;">
<g >
</g>
<g style="fill:#840000; fill-opacity:0.0; 
stroke:#840000; stroke-width:60.000000; stroke-opacity:1; 
stroke-linecap:round; stroke-linejoin:round;">
<path style="fill:#840000; fill-opacity:0.0; 
stroke:#840000; stroke-width:60.000000; stroke-opacity:1; 
stroke-linecap:round; stroke-linejoin:round;fill:none"
d="M 54500.000000,45500.000000
54500.000000,46000.000000
55000.000000,46000.000000
54500.000000,46500.000000
54000.000000,46000.000000
54500.000000,46000.000000
" /> 
</g>
<g style="fill:#006464; fill-opacity:0.0; 
stroke:#006464; stroke-width:60.000000; stroke-opacity:1; 
stroke-linecap:round; stroke-linejoin:round;">
<text x="54500.000000" y="47749.960630"
textLength="1583.818898" font-size="666.653543" lengthAdjust="spacingAndGlyphs"
text-anchor="middle" opacity="0">GND</text>
<g class="stroked-text"><desc>GND</desc>
<path d="M54119 47249
L54071 47226
L54000 47226
L53928 47249
L53880 47297
L53857 47345
L53833 47440
L53833 47511
L53857 47607
L53880 47654
L53928 47702
L54000 47726
L54047 47726
L54119 47702
L54142 47678
L54142 47511
L54047 47511
" />
<path d="M54357 47726
L54357 47226
L54642 47726
L54642 47226
" />
<path d="M54880 47726
L54880 47226
L55000 47226
L55071 47249
L55119 47297
L55142 47345
L55166 47440
L55166 47511
L55142 47607
L55119 47654
L55071 47702
L55000 47726
L54880 47726
" />
</g></g>
</g>
<g style="fill:#006464; fill-opacity:0.0; 
stroke:#006464; stroke-width:60.000000; stroke-opacity:1; 
stroke-linecap:round; stroke-linejoin:round;">
<g >
</g>
<g style="fill:#840000; fill-opacity:0.0; 
stroke:#840000; stroke-width:60.000000; stroke-opacity:1; 
stroke-linecap:round; stroke-linejoin:round;">
</g>
<g style="fill:#FFFFC2; fill-opacity:0.0; 
stroke:#FFFFC2; stroke-width:60.000000; stroke-opacity:1; 
stroke-linecap:round; stroke-linejoin:round;">
</g>
<g style="fill:#FFFFC2; fill-opacity:0.6; 
stroke:#FFFFC2; stroke-width:0.039370; stroke-opacity:1; 
stroke-linecap:round; stroke-linejoin:round;">
<rect x="49500.000000" y="33000.000000" width="10000.000000" height="10000.000000" rx="0.000000" />
</g>
<g style="fill:#840000; fill-opacity:0.6; 
stroke:#840000; stroke-width:0.039370; stroke-opacity:1; 
stroke-linecap:round; stroke-linejoin:round;">
</g>
<g style="fill:#840000; fill-opacity:0.0; 
stroke:#840000; stroke-width:100.000000; stroke-opacity:1; 
stroke-linecap:round; stroke-linejoin:round;">
<rect x="49500.000000" y="33000.000000" width="10000.000000" height="10000.000000" rx="0.000000" />
<rect x="49500.000000" y="33000.000000" width="10000.000000" height="10000.000000" rx="0.000000" />
</g>
<g style="fill:#840000; fill-opacity:0.0; 
stroke:#840000; stroke-width:60.000000; stroke-opacity:1; 
stroke-linecap:round; stroke-linejoin:round;">
<path d="M59500 40000
L60500 40000
" />
</g>
<g style="fill:#006464; fill-opacity:0.0; 
stroke:#006464; stroke-width:60.000000; stroke-opacity:1; 
stroke-linecap:round; stroke-linejoin:round;">
<text x="59300.000000" y="40250.000000"
textLength="4321.889764" font-size="666.653543" lengthAdjust="spacingAndGlyphs"
text-anchor="end" opacity="0">~{RESET}/PB5</text>
<g class="stroked-text"><desc>~{RESET}/PB5</desc>
<path d="M55008 39585
L55508 39585
" />
<path d="M55412 40226
L55246 39988
" />
<path d="M55127 40226
L55127 39726
L55317 39726
L55365 39750
L55389 39773
L55412 39821
L55412 39892
L55389 39940
L55365 39964
L55317 39988
L55127 39988
" />
<path d="M55508 39585
L55960 39585
" />
<path d="M55627 39964
L55793 39964
" />
<path d="M55865 40226
L55627 40226
L55627 39726
L55865 39726
" />
<path d="M55960 39585
L56436 39585
" />
<path d="M56055 40202
L56127 40226
L56246 40226
L56293 40202
L56317 40178
L56341 40130
L56341 40083
L56317 40035
L56293 40011
L56246 39988
L56150 39964
L56103 39940
L56079 39916
L56055 39869
L56055 39821
L56079 39773
L56103 39750
L56150 39726
L56270 39726
L56341 39750
" />
<path d="M56436 39585
L56889 39585
" />
<path d="M56555 39964
L56722 39964
" />
<path d="M56793 40226
L56555 40226
L56555 39726
L56793 39726
" />
<path d="M56889 39585
L57270 39585
" />
<path d="M56936 39726
L57222 39726
" />
<path d="M57079 40226
L57079 39726
" />
<path d="M57746 39702
L57317 40345
" />
<path d="M57912 40226
L57912 39726
L58103 39726
L58150 39750
L58174 39773
L58198 39821
L58198 39892
L58174 39940
L58150 39964
L58103 39988
L57912 39988
" />
<path d="M58579 39964
L58650 39988
L58674 40011
L58698 40059
L58698 40130
L58674 40178
L58650 40202
L58603 40226
L58412 40226
L58412 39726
L58579 39726
L58627 39750
L58650 39773
L58674 39821
L58674 39869
L58650 39916
L58627 39940
L58579 39964
L58412 39964
" />
<path d="M59150 39726
L58912 39726
L58889 39964
L58912 39940
L58960 39916
L59079 39916
L59127 39940
L59150 39964
L59174 40011
L59174 40130
L59150 40178
L59127 40202
L59079 40226
L58960 40226
L58912 40202
L58889 40178
" />
</g></g>
<g style="fill:#A90000; fill-opacity:0.0; 
stroke:#A90000; stroke-width:60.000000; stroke-opacity:1; 
stroke-linecap:round; stroke-linejoin:round;">
<text x="60000.000000" y="39900.000000"
textLength="536.181102" font-size="666.653543" lengthAdjust="spacingAndGlyphs"
text-anchor="middle" opacity="0">1</text>
<g class="stroked-text"><desc>1</desc>
<path d="M60142 39876
L59857 39876
" />
<path d="M60000 39876
L60000 39376
L59952 39447
L59904 39495
L59857 39519
" />
</g></g>
<g style="fill:#840000; fill-opacity:0.0; 
stroke:#840000; stroke-width:60.000000; stroke-opacity:1; 
stroke-linecap:round; stroke-linejoin:round;">
<path d="M59500 38000
L60500 38000
" />
</g>
<g style="fill:#006464; fill-opacity:0.0; 
stroke:#006464; stroke-width:60.000000; stroke-opacity:1; 
stroke-linecap:round; stroke-linejoin:round;">
<text x="59300.000000" y="38250.000000"
textLength="4226.653543" font-size="666.653543" lengthAdjust="spacingAndGlyphs"
text-anchor="end" opacity="0">XTAL1/PB3</text>
<g class="stroked-text"><desc>XTAL1/PB3</desc>
<path d="M55174 37726
L55508 38226
" />
<path d="M55508 37726
L55174 38226
" />
<path d="M55627 37726
L55912 37726
" />
<path d="M55770 38226
L55770 37726
" />
<path d="M56055 38083
L56293 38083
" />
<path d="M56008 38226
L56174 37726
L56341 38226
" />
<path d="M56746 38226
L56508 38226
L56508 37726
" />
<path d="M57174 38226
L56889 38226
" />
<path d="M57031 38226
L57031 37726
L56984 37797
L56936 37845
L56889 37869
" />
<path d="M57746 37702
L57317 38345
" />
<path d="M57912 38226
L57912 37726
L58103 37726
L58150 37750
L58174 37773
L58198 37821
L58198 37892
L58174 37940
L58150 37964
L58103 37988
L57912 37988
" />
<path d="M58579 37964
L58650 37988
L58674 38011
L58698 38059
L58698 38130
L58674 38178
L58650 38202
L58603 38226
L58412 38226
L58412 37726
L58579 37726
L58627 37750
L58650 37773
L58674 37821
L58674 37869
L58650 37916
L58627 37940
L58579 37964
L58412 37964
" />
<path d="M58865 37726
L59174 37726
L59008 37916
L59079 37916
L59127 37940
L59150 37964
L59174 38011
L59174 38130
L59150 38178
L59127 38202
L59079 38226
L58936 38226
L58889 38202
L58865 38178
" />
</g></g>
<g style="fill:#A90000; fill-opacity:0.0; 
stroke:#A90000; stroke-width:60.000000; stroke-opacity:1; 
stroke-linecap:round; stroke-linejoin:round;">
<text x="60000.000000" y="37900.000000"
textLength="536.181102" font-size="666.653543" lengthAdjust="spacingAndGlyphs"
text-anchor="middle" opacity="0">2</text>
<g class="stroked-text"><desc>2</desc>
<path d="M59857 37423
L59880 37400
L59928 37376
L60047 37376
L60095 37400
L60119 37423
L60142 37471
L60142 37519
L60119 37590
L59833 37876
L60142 37876
" />
</g></g>
<g style="fill:#840000; fill-opacity:0.0; 
stroke:#840000; stroke-width:60.000000; stroke-opacity:1; 
stroke-linecap:round; stroke-linejoin:round;">
<path d="M59500 39000
L60500 39000
" />
</g>
<g style="fill:#006464; fill-opacity:0.0; 
stroke:#006464; stroke-width:60.000000; stroke-opacity:1; 
stroke-linecap:round; stroke-linejoin:round;">
<text x="59300.000000" y="39250.000000"
textLength="4226.653543" font-size="666.653543" lengthAdjust="spacingAndGlyphs"
text-anchor="end" opacity="0">XTAL2/PB4</text>
<g class="stroked-text"><desc>XTAL2/PB4</desc>
<path d="M55174 38726
L55508 39226
" />
<path d="M55508 38726
L55174 39226
" />
<path d="M55627 38726
L55912 38726
" />
<path d="M55770 39226
L55770 38726
" />
<path d="M56055 39083
L56293 39083
" />
<path d="M56008 39226
L56174 38726
L56341 39226
" />
<path d="M56746 39226
L56508 39226
L56508 38726
" />
<path d="M56889 38773
L56912 38750
L56960 38726
L57079 38726
L57127 38750
L57150 38773
L57174 38821
L57174 38869
L57150 38940
L56865 39226
L57174 39226
" />
<path d="M57746 38702
L57317 39345
" />
<path d="M57912 39226
L57912 38726
L58103 38726
L58150 38750
L58174 38773
L58198 38821
L58198 38892
L58174 38940
L58150 38964
L58103 38988
L57912 38988
" />
<path d="M58579 38964
L58650 38988
L58674 39011
L58698 39059
L58698 39130
L58674 39178
L58650 39202
L58603 39226
L58412 39226
L58412 38726
L58579 38726
L58627 38750
L58650 38773
L58674 38821
L58674 38869
L58650 38916
L58627 38940
L58579 38964
L58412 38964
" />
<path d="M59127 38892
L59127 39226
" />
<path d="M59008 38702
L58889 39059
L59198 39059
" />
</g></g>
<g style="fill:#A90000; fill-opacity:0.0; 
stroke:#A90000; stroke-width:60.000000; stroke-opacity:1; 
stroke-linecap:round; stroke-linejoin:round;">
<text x="60000.000000" y="38900.000000"
textLength="536.181102" font-size="666.653543" lengthAdjust="spacingAndGlyphs"
text-anchor="middle" opacity="0">3</text>
<g class="stroked-text"><desc>3</desc>
<path d="M59833 38376
L60142 38376
L59976 38566
L60047 38566
L60095 38590
L60119 38614
L60142 38661
L60142 38780
L60119 38828
L60095 38852
L60047 38876
L59904 38876
L59857 38852
L59833 38828
" />
</g></g>
<g style="fill:#840000; fill-opacity:0.0; 
stroke:#840000; stroke-width:60.000000; stroke-opacity:1; 
stroke-linecap:round; stroke-linejoin:round;">
<path d="M54500 43000
L54500 44000
" />
</g>
<g style="fill:#006464; fill-opacity:0.0; 
stroke:#006464; stroke-width:60.000000; stroke-opacity:1; 
stroke-linecap:round; stroke-linejoin:round;">
<g transform="rotate(-90.000000 54500.000000 42800.000000)">
<text x="54500.000000" y="43050.000000"
textLength="1583.818898" font-size="666.653543" lengthAdjust="spacingAndGlyphs"
text-anchor="start" opacity="0">GND</text>
</g>
<g class="stroked-text"><desc>GND</desc>
<path d="M54250 42389
L54226 42436
L54226 42508
L54250 42579
L54297 42627
L54345 42650
L54440 42674
L54511 42674
L54607 42650
L54654 42627
L54702 42579
L54726 42508
L54726 42460
L54702 42389
L54678 42365
L54511 42365
L54511 42460
" />
<path d="M54726 42150
L54226 42150
L54726 41865
L54226 41865
" />
<path d="M54726 41627
L54226 41627
L54226 41508
L54250 41436
L54297 41389
L54345 41365
L54440 41341
L54511 41341
L54607 41365
L54654 41389
L54702 41436
L54726 41508
L54726 41627
" />
</g></g>
<g style="fill:#A90000; fill-opacity:0.0; 
stroke:#A90000; stroke-width:60.000000; stroke-opacity:1; 
stroke-linecap:round; stroke-linejoin:round;">
<g transform="rotate(-90.000000 54400.000000 43500.000000)">
<text x="54400.000000" y="43500.000000"
textLength="536.181102" font-size="666.653543" lengthAdjust="spacingAndGlyphs"
text-anchor="middle" opacity="0">4</text>
</g>
<g class="stroked-text"><desc>4</desc>
<path d="M54042 43404
L54376 43404
" />
<path d="M53852 43523
L54209 43642
L54209 43333
" />
</g></g>
<g style="fill:#840000; fill-opacity:0.0; 
stroke:#840000; stroke-width:60.000000; stroke-opacity:1; 
stroke-linecap:round; stroke-linejoin:round;">
<path d="M59500 35000
L60500 35000
" />
</g>
<g style="fill:#006464; fill-opacity:0.0; 
stroke:#006464; stroke-width:60.000000; stroke-opacity:1; 
stroke-linecap:round; stroke-linejoin:round;">
<text x="59300.000000" y="35250.000000"
textLength="3869.527559" font-size="666.653543" lengthAdjust="spacingAndGlyphs"
text-anchor="end" opacity="0">AREF/PB0</text>
<g class="stroked-text"><desc>AREF/PB0</desc>
<path d="M55555 35083
L55793 35083
" />
<path d="M55508 35226
L55674 34726
L55841 35226
" />
<path d="M56293 35226
L56127 34988
" />
<path d="M56008 35226
L56008 34726
L56198 34726
L56246 34750
L56270 34773
L56293 34821
L56293 34892
L56270 34940
L56246 34964
L56198 34988
L56008 34988
" />
<path d="M56508 34964
L56674 34964
" />
<path d="M56746 35226
L56508 35226
L56508 34726
L56746 34726
" />
<path d="M57127 34964
L56960 34964
" />
<path d="M56960 35226
L56960 34726
L57198 34726
" />
<path d="M57746 34702
L57317 35345
" />
<path d="M57912 35226
L57912 34726
L58103 34726
L58150 34750
L58174 34773
L58198 34821
L58198 34892
L58174 34940
L58150 34964
L58103 34988
L57912 34988
" />
<path d="M58579 34964
L58650 34988
L58674 35011
L58698 35059
L58698 35130
L58674 35178
L58650 35202
L58603 35226
L58412 35226
L58412 34726
L58579 34726
L58627 34750
L58650 34773
L58674 34821
L58674 34869
L58650 34916
L58627 34940
L58579 34964
L58412 34964
" />
<path d="M59008 34726
L59055 34726
L59103 34750
L59127 34773
L59150 34821
L59174 34916
L59174 35035
L59150 35130
L59127 35178
L59103 35202
L59055 35226
L59008 35226
L58960 35202
L58936 35178
L58912 35130
L58889 35035
L58889 34916
L58912 34821
L58936 34773
L58960 34750
L59008 34726
" />
</g></g>
<g style="fill:#A90000; fill-opacity:0.0; 
stroke:#A90000; stroke-width:60.000000; stroke-opacity:1; 
stroke-linecap:round; stroke-linejoin:round;">
<text x="60000.000000" y="34900.000000"
textLength="536.181102" font-size="666.653543" lengthAdjust="spacingAndGlyphs"
text-anchor="middle" opacity="0">5</text>
<g class="stroked-text"><desc>5</desc>
<path d="M60119 34376
L59880 34376
L59857 34614
L59880 34590
L59928 34566
L60047 34566
L60095 34590
L60119 34614
L60142 34661
L60142 34780
L60119 34828
L60095 34852
L60047 34876
L59928 34876
L59880 34852
L59857 34828
" />
</g></g>
<g style="fill:#840000; fill-opacity:0.0; 
stroke:#840000; stroke-width:60.000000; stroke-opacity:1; 
stroke-linecap:round; stroke-linejoin:round;">
<path d="M59500 36000
L60500 36000
" />
</g>
<g style="fill:#006464; fill-opacity:0.0; 
stroke:#006464; stroke-width:60.000000; stroke-opacity:1; 
stroke-linecap:round; stroke-linejoin:round;">
<text x="59300.000000" y="36250.000000"
textLength="1536.181102" font-size="666.653543" lengthAdjust="spacingAndGlyphs"
text-anchor="end" opacity="0">PB1</text>
<g class="stroked-text"><desc>PB1</desc>
<path d="M57912 36226
L57912 35726
L58103 35726
L58150 35750
L58174 35773
L58198 35821
L58198 35892
L58174 35940
L58150 35964
L58103 35988
L57912 35988
" />
<path d="M58579 35964
L58650 35988
L58674 36011
L58698 36059
L58698 36130
L58674 36178
L58650 36202
L58603 36226
L58412 36226
L58412 35726
L58579 35726
L58627 35750
L58650 35773
L58674 35821
L58674 35869
L58650 35916
L58627 35940
L58579 35964
L58412 35964
" />
<path d="M59174 36226
L58889 36226
" />
<path d="M59031 36226
L59031 35726
L58984 35797
L58936 35845
L58889 35869
" />
</g></g>
<g style="fill:#A90000; fill-opacity:0.0; 
stroke:#A90000; stroke-width:60.000000; stroke-opacity:1; 
stroke-linecap:round; stroke-linejoin:round;">
<text x="60000.000000" y="35900.000000"
textLength="536.181102" font-size="666.653543" lengthAdjust="spacingAndGlyphs"
text-anchor="middle" opacity="0">6</text>
<g class="stroked-text"><desc>6</desc>
<path d="M60095 35376
L60000 35376
L59952 35400
L59928 35423
L59880 35495
L59857 35590
L59857 35780
L59880 35828
L59904 35852
L59952 35876
L60047 35876
L60095 35852
L60119 35828
L60142 35780
L60142 35661
L60119 35614
L60095 35590
L60047 35566
L59952 35566
L59904 35590
L59880 35614
L59857 35661
" />
</g></g>
<g style="fill:#840000; fill-opacity:0.0; 
stroke:#840000; stroke-width:60.000000; stroke-opacity:1; 
stroke-linecap:round; stroke-linejoin:round;">
<path d="M59500 37000
L60500 37000
" />
</g>
<g style="fill:#006464; fill-opacity:0.0; 
stroke:#006464; stroke-width:60.000000; stroke-opacity:1; 
stroke-linecap:round; stroke-linejoin:round;">
<text x="59300.000000" y="37250.000000"
textLength="1536.181102" font-size="666.653543" lengthAdjust="spacingAndGlyphs"
text-anchor="end" opacity="0">PB2</text>
<g class="stroked-text"><desc>PB2</desc>
<path d="M57912 37226
L57912 36726
L58103 36726
L58150 36750
L58174 36773
L58198 36821
L58198 36892
L58174 36940
L58150 36964
L58103 36988
L57912 36988
" />
<path d="M58579 36964
L58650 36988
L58674 37011
L58698 37059
L58698 37130
L58674 37178
L58650 37202
L58603 37226
L58412 37226
L58412 36726
L58579 36726
L58627 36750
L58650 36773
L58674 36821
L58674 36869
L58650 36916
L58627 36940
L58579 36964
L58412 36964
" />
<path d="M58889 36773
L58912 36750
L58960 36726
L59079 36726
L59127 36750
L59150 36773
L59174 36821
L59174 36869
L59150 36940
L58865 37226
L59174 37226
" />
</g></g>
<g style="fill:#A90000; fill-opacity:0.0; 
stroke:#A90000; stroke-width:60.000000; stroke-opacity:1; 
stroke-linecap:round; stroke-linejoin:round;">
<text x="60000.000000" y="36900.000000"
textLength="536.181102" font-size="666.653543" lengthAdjust="spacingAndGlyphs"
text-anchor="middle" opacity="0">7</text>
<g class="stroked-text"><desc>7</desc>
<path d="M59833 36376
L60166 36376
L59952 36876
" />
</g></g>
<g style="fill:#840000; fill-opacity:0.0; 
stroke:#840000; stroke-width:60.000000; stroke-opacity:1; 
stroke-linecap:round; stroke-linejoin:round;">
<path d="M54500 33000
L54500 32000
" />
</g>
<g style="fill:#006464; fill-opacity:0.0; 
stroke:#006464; stroke-width:60.000000; stroke-opacity:1; 
stroke-linecap:round; stroke-linejoin:round;">
<g transform="rotate(-90.000000 54500.000000 33200.000000)">
<text x="54500.000000" y="33450.000000"
textLength="1488.582677" font-size="666.653543" lengthAdjust="spacingAndGlyphs"
text-anchor="end" opacity="0">VCC</text>
</g>
<g class="stroked-text"><desc>VCC</desc>
<path d="M54226 34610
L54726 34444
L54226 34277
" />
<path d="M54678 33825
L54702 33849
L54726 33920
L54726 33968
L54702 34039
L54654 34087
L54607 34110
L54511 34134
L54440 34134
L54345 34110
L54297 34087
L54250 34039
L54226 33968
L54226 33920
L54250 33849
L54273 33825
" />
<path d="M54678 33325
L54702 33349
L54726 33420
L54726 33468
L54702 33539
L54654 33587
L54607 33610
L54511 33634
L54440 33634
L54345 33610
L54297 33587
L54250 33539
L54226 33468
L54226 33420
L54250 33349
L54273 33325
" />
</g></g>
<g style="fill:#A90000; fill-opacity:0.0; 
stroke:#A90000; stroke-width:60.000000; stroke-opacity:1; 
stroke-linecap:round; stroke-linejoin:round;">
<g transform="rotate(-90.000000 54400.000000 32500.000000)">
<text x="54400.000000" y="32500.000000"
textLength="536.181102" font-size="666.653543" lengthAdjust="spacingAndGlyphs"
text-anchor="middle" opacity="0">8</text>
</g>
<g class="stroked-text"><desc>8</desc>
<path d="M54090 32547
L54066 32595
L54042 32619
L53995 32642
L53971 32642
L53923 32619
L53900 32595
L53876 32547
L53876 32452
L53900 32404
L53923 32380
L53971 32357
L53995 32357
L54042 32380
L54066 32404
L54090 32452
L54090 32547
L54114 32595
L54138 32619
L54185 32642
L54280 32642
L54328 32619
L54352 32595
L54376 32547
L54376 32452
L54352 32404
L54328 32380
L54280 32357
L54185 32357
L54138 32380
L54114 32404
L54090 32452
" />
</g></g>
<g style="fill:#006464; fill-opacity:0.0; 
stroke:#006464; stroke-width:60.000000; stroke-opacity:1; 
stroke-linecap:round; stroke-linejoin:round;">
<text x="48468.740157" y="37749.921260"
textLength="1060.000000" font-size="666.653543" lengthAdjust="spacingAndGlyphs"
text-anchor="middle" opacity="0">U1</text>
<g class="stroked-text"><desc>U1</desc>
<path d="M48087 37226
L48087 37630
L48111 37678
L48135 37702
L48182 37726
L48278 37726
L48325 37702
L48349 37678
L48373 37630
L48373 37226
" />
<path d="M48873 37726
L48587 37726
" />
<path d="M48730 37726
L48730 37226
L48682 37297
L48635 37345
L48587 37368
" />
</g><text x="46373.503937" y="38749.921260"
textLength="5250.472441" font-size="666.653543" lengthAdjust="spacingAndGlyphs"
text-anchor="middle" opacity="0">ATtiny85-20P</text>
<g class="stroked-text"><desc>ATtiny85-20P</desc>
<path d="M43873 38583
L44111 38583
" />
<path d="M43825 38726
L43992 38226
L44159 38726
" />
<path d="M44254 38226
L44540 38226
" />
<path d="M44397 38726
L44397 38226
" />
<path d="M44635 38392
L44825 38392
" />
<path d="M44706 38226
L44706 38654
L44730 38702
L44778 38726
L44825 38726
" />
<path d="M44992 38726
L44992 38392
" />
<path d="M44992 38226
L44968 38249
L44992 38273
L45016 38249
L44992 38226
L44992 38273
" />
<path d="M45230 38392
L45230 38726
" />
<path d="M45230 38440
L45254 38416
L45302 38392
L45373 38392
L45421 38416
L45444 38464
L45444 38726
" />
<path d="M45635 38392
L45754 38726
" />
<path d="M45873 38392
L45754 38726
L45706 38845
L45682 38868
L45635 38892
" />
<path d="M46135 38440
L46087 38416
L46063 38392
L46040 38345
L46040 38321
L46063 38273
L46087 38249
L46135 38226
L46230 38226
L46278 38249
L46302 38273
L46325 38321
L46325 38345
L46302 38392
L46278 38416
L46230 38440
L46135 38440
L46087 38464
L46063 38487
L46040 38535
L46040 38630
L46063 38678
L46087 38702
L46135 38726
L46230 38726
L46278 38702
L46302 38678
L46325 38630
L46325 38535
L46302 38487
L46278 38464
L46230 38440
" />
<path d="M46778 38226
L46540 38226
L46516 38464
L46540 38440
L46587 38416
L46706 38416
L46754 38440
L46778 38464
L46802 38511
L46802 38630
L46778 38678
L46754 38702
L46706 38726
L46587 38726
L46540 38702
L46516 38678
" />
<path d="M47016 38535
L47397 38535
" />
<path d="M47611 38273
L47635 38249
L47682 38226
L47802 38226
L47849 38249
L47873 38273
L47897 38321
L47897 38368
L47873 38440
L47587 38726
L47897 38726
" />
<path d="M48206 38226
L48254 38226
L48302 38249
L48325 38273
L48349 38321
L48373 38416
L48373 38535
L48349 38630
L48325 38678
L48302 38702
L48254 38726
L48206 38726
L48159 38702
L48135 38678
L48111 38630
L48087 38535
L48087 38416
L48111 38321
L48135 38273
L48159 38249
L48206 38226
" />
<path d="M48587 38726
L48587 38226
L48778 38226
L48825 38249
L48849 38273
L48873 38321
L48873 38392
L48849 38440
L48825 38464
L48778 38487
L48587 38487
" />
</g></g>
</g>
<g style="fill:#006464; fill-opacity:0.0; 
stroke:#006464; stroke-width:60.000000; stroke-opacity:1; 
stroke-linecap:round; stroke-linejoin:round;">
<g >
</g>
<g style="fill:#840000; fill-opacity:0.0; 
stroke:#840000; stroke-width:60.000000; stroke-opacity:1; 
stroke-linecap:round; stroke-linejoin:round;">
<path style="fill:#840000; fill-opacity:0.0; 
stroke:#840000; stroke-width:60.000000; stroke-opacity:1; 
stroke-linecap:round; stroke-linejoin:round;fill:none"
d="M 54200.000000,30000.000000
54500.000000,29500.000000
" /> 
<path style="fill:#840000; fill-opacity:0.0; 
stroke:#840000; stroke-width:60.000000; stroke-opacity:1; 
stroke-linecap:round; stroke-linejoin:round;fill:none"
d="M 54500.000000,30500.000000
54500.000000,29500.000000
" /> 
<path style="fill:#840000; fill-opacity:0.0; 
stroke:#840000; stroke-width:60.000000; stroke-opacity:1; 
stroke-linecap:round; stroke-linejoin:round;fill:none"
d="M 54500.000000,29500.000000
54800.000000,30000.000000
" /> 
</g>
<g style="fill:#006464; fill-opacity:0.0; 
stroke:#006464; stroke-width:60.000000; stroke-opacity:1; 
stroke-linecap:round; stroke-linejoin:round;">
<text x="54500.000000" y="28749.960630"
textLength="1583.818898" font-size="666.653543" lengthAdjust="spacingAndGlyphs"
text-anchor="middle" opacity="0">+5V</text>
<g class="stroked-text"><desc>+5V</desc>
<path d="M53857 28535
L54238 28535
" />
<path d="M54047 28726
L54047 28345
" />
<path d="M54714 28226
L54476 28226
L54452 28464
L54476 28440
L54523 28416
L54642 28416
L54690 28440
L54714 28464
L54738 28511
L54738 28630
L54714 28678
L54690 28702
L54642 28726
L54523 28726
L54476 28702
L54452 28678
" />
<path d="M54880 28226
L55047 28726
L55214 28226
" />
</g></g>
</g>
<g style="fill:#006464; fill-opacity:0.0; 
stroke:#006464; stroke-width:60.000000; stroke-opacity:1; 
stroke-linecap:round; stroke-linejoin:round;">
</g>
<g style="fill:#009600; fill-opacity:0.0; 
stroke:#009600; stroke-width:60.000000; stroke-opacity:1; 
stroke-linecap:round; stroke-linejoin:round;">
<path d="M65000 35000
L66500 35000
" />
<path d="M69500 35000
L71000 35000
" />
<path d="M71000 35000
L71000 36500
" />
<path d="M54500 44000
L54500 45500
" />
<path d="M54500 30500
L54500 32000
" />
<path d="M60500 35000
L62000 35000
" />
</g>
<g style="fill:#000084; fill-opacity:0.0; 
stroke:#000084; stroke-width:60.000000; stroke-opacity:1; 
stroke-linecap:round; stroke-linejoin:round;">
<path d="M60260 38760
L60740 39240
" />
<path d="M60740 38760
L60260 39240
" />
<path d="M60260 39760
L60740 40240
" />
<path d="M60740 39760
L60260 40240
" />
<path d="M60260 35760
L60740 36240
" />
<path d="M60740 35760
L60260 36240
" />
<path d="M60260 36760
L60740 37240
" />
<path d="M60740 36760
L60260 37240
" />
<path d="M60260 37760
L60740 38240
" />
<path d="M60740 37760
L60260 38240
" />
</g> 
</svg>
