<?xml version="1.0" encoding="UTF-8" standalone="no"?>
<svg
   version="1.1"
   viewBox="0 0 23620.941 27417.325"
   id="svg554"
   sodipodi:docname="mosfet-switch.svg"
   inkscape:version="1.2 (dc2aedaf03, 2022-05-15)"
   xmlns:inkscape="http://www.inkscape.org/namespaces/inkscape"
   xmlns:sodipodi="http://sodipodi.sourceforge.net/DTD/sodipodi-0.dtd"
   xmlns="http://www.w3.org/2000/svg"
   xmlns:svg="http://www.w3.org/2000/svg"
   xmlns:rdf="http://www.w3.org/1999/02/22-rdf-syntax-ns#"
   xmlns:cc="http://creativecommons.org/ns#"
   xmlns:dc="http://purl.org/dc/elements/1.1/">
  <defs
     id="defs558" />
  <sodipodi:namedview
     id="namedview556"
     pagecolor="#ffffff"
     bordercolor="#666666"
     borderopacity="1.0"
     inkscape:showpageshadow="2"
     inkscape:pageopacity="0.0"
     inkscape:pagecheckerboard="0"
     inkscape:deskcolor="#d1d1d1"
     inkscape:document-units="cm"
     showgrid="false"
     inkscape:zoom="1.685818"
     inkscape:cx="61.394529"
     inkscape:cy="191.89498"
     inkscape:current-layer="svg554" />
  <title
     id="title2">SVG Picture created as mosfet-switch.svg date 2022/08/12 15:51:43 </title>
  <desc
     id="desc4">Picture generated by Eeschema-SVG </desc>
  <g
     style="fill:#000000;fill-opacity:1;stroke:#000000;stroke-linecap:round;stroke-linejoin:round;stroke-opacity:1"
     id="g6"
     transform="translate(-38255.848,-27196)" />
  <g
     style="fill:#f5f4ef;fill-opacity:0;stroke:#f5f4ef;stroke-width:0;stroke-linecap:round;stroke-linejoin:round;stroke-opacity:1"
     id="g8"
     transform="translate(-38255.848,-27196)" />
  <g
     style="fill:#f5f4ef;fill-opacity:1;stroke:#f5f4ef;stroke-width:0.03937;stroke-linecap:round;stroke-linejoin:round;stroke-opacity:1"
     id="g12"
     transform="matrix(0.20200782,0,0,0.3316036,0.08367406,0.1691717)">
    <rect
       x="0"
       y="0"
       width="116930"
       height="82680"
       rx="0.000000"
       id="rect10" />
  </g>
  <g
     style="fill:#006464;fill-opacity:0;stroke:#006464;stroke-width:62.5197;stroke-linecap:round;stroke-linejoin:round;stroke-opacity:1"
     id="g476"
     transform="translate(-38255.848,-27196)" />
  <g
     style="fill:#006464;fill-opacity:0;stroke:#006464;stroke-width:60;stroke-linecap:round;stroke-linejoin:round;stroke-opacity:1"
     id="g478"
     transform="translate(-38255.848,-27196)" />
  <g
     id="g1109"
     transform="translate(-37039.975,-25784.038)">
    <g
       style="fill:#f5f4ef;fill-opacity:1;stroke:#f5f4ef;stroke-width:60;stroke-linecap:round;stroke-linejoin:round;stroke-opacity:1"
       id="g60">
      <g
         id="g14" />
      <g
         style="fill:#840000;fill-opacity:1;stroke:#840000;stroke-width:60;stroke-linecap:round;stroke-linejoin:round;stroke-opacity:1"
         id="g16" />
      <g
         style="fill:#840000;fill-opacity:0;stroke:#840000;stroke-width:100;stroke-linecap:round;stroke-linejoin:round;stroke-opacity:1"
         id="g20">
        <rect
           x="50600"
           y="44000"
           width="800"
           height="2000"
           rx="0.000000"
           id="rect18" />
      </g>
      <g
         style="fill:#840000;fill-opacity:0;stroke:#840000;stroke-width:60;stroke-linecap:round;stroke-linejoin:round;stroke-opacity:1"
         id="g26">
        <path
           d="m 51000,44000 v -500"
           id="path22" />
        <path
           d="m 51000,46000 v 500"
           id="path24" />
      </g>
      <g
         style="fill:#006464;fill-opacity:0;stroke:#006464;stroke-width:60;stroke-linecap:round;stroke-linejoin:round;stroke-opacity:1"
         id="g58">
        <text
           x="52519.332"
           y="44749.922"
           textLength="1106.1812"
           font-size="666.654px"
           lengthAdjust="spacingAndGlyphs"
           text-anchor="middle"
           opacity="0"
           id="text28">R2</text>
        <g
           class="stroked-text"
           id="g38">
          <desc
             id="desc30">R2</desc>
          <path
             d="m 52435,44726 -166,-239"
             id="path32" />
          <path
             d="m 52150,44726 v -500 h 190 l 48,23 24,24 23,48 v 71 l -23,48 -24,24 -48,23 h -190"
             id="path34" />
          <path
             d="m 52626,44273 24,-24 47,-23 h 119 l 48,23 24,24 24,48 v 47 l -24,72 -286,286 h 310"
             id="path36" />
        </g>
        <text
           x="52757.441"
           y="45749.922"
           textLength="1512.3622"
           font-size="666.654px"
           lengthAdjust="spacingAndGlyphs"
           text-anchor="middle"
           opacity="0"
           id="text40">10K</text>
        <g
           class="stroked-text"
           id="g56">
          <desc
             id="desc42">10K</desc>
          <path
             d="m 52412,45726 h -286"
             id="path44" />
          <path
             d="m 52269,45726 v -500 l -48,71 -47,48 -48,23"
             id="path46" />
          <path
             d="m 52721,45226 h 48 l 47,23 24,24 24,48 24,95 v 119 l -24,95 -24,48 -24,24 -47,24 h -48 l -47,-24 -24,-24 -24,-48 -24,-95 v -119 l 24,-95 24,-48 24,-24 47,-23"
             id="path48" />
          <path
             d="m 53102,45726 v -500"
             id="path50" />
          <path
             d="m 53388,45726 -214,-286"
             id="path52" />
          <path
             d="m 53388,45226 -286,285"
             id="path54" />
        </g>
      </g>
    </g>
    <g
       style="fill:#006464;fill-opacity:0;stroke:#006464;stroke-width:60;stroke-linecap:round;stroke-linejoin:round;stroke-opacity:1"
       id="g82">
      <g
         id="g62" />
      <g
         style="fill:#840000;fill-opacity:0;stroke:#840000;stroke-width:60;stroke-linecap:round;stroke-linejoin:round;stroke-opacity:1"
         id="g66">
        <path
           style="fill:none;fill-opacity:0;stroke:#840000;stroke-width:60;stroke-linecap:round;stroke-linejoin:round;stroke-opacity:1"
           d="m 55500,49500 v 500 h 500 l -500,500 -500,-500 h 500"
           id="path64" />
      </g>
      <g
         style="fill:#006464;fill-opacity:0;stroke:#006464;stroke-width:60;stroke-linecap:round;stroke-linejoin:round;stroke-opacity:1"
         id="g80">
        <text
           x="55500"
           y="51749.961"
           textLength="1583.8188"
           font-size="666.654px"
           lengthAdjust="spacingAndGlyphs"
           text-anchor="middle"
           opacity="0"
           id="text68">GND</text>
        <g
           class="stroked-text"
           id="g78">
          <desc
             id="desc70">GND</desc>
          <path
             d="m 55119,51249 -48,-23 h -71 l -72,23 -48,48 -23,48 -24,95 v 71 l 24,96 23,47 48,48 72,24 h 47 l 72,-24 23,-24 v -167 h -95"
             id="path72" />
          <path
             d="m 55357,51726 v -500 l 285,500 v -500"
             id="path74" />
          <path
             d="m 55880,51726 v -500 h 120 l 71,23 48,48 23,48 24,95 v 71 l -24,96 -23,47 -48,48 -71,24 h -120"
             id="path76" />
        </g>
      </g>
    </g>
    <g
       style="fill:#006464;fill-opacity:0;stroke:#006464;stroke-width:60;stroke-linecap:round;stroke-linejoin:round;stroke-opacity:1"
       id="g210">
      <g
         id="g84" />
      <g
         style="fill:#840000;fill-opacity:0;stroke:#840000;stroke-width:60;stroke-linecap:round;stroke-linejoin:round;stroke-opacity:1"
         id="g88">
        <path
           style="fill:none;fill-opacity:0;stroke:#840000;stroke-width:60;stroke-linecap:round;stroke-linejoin:round;stroke-opacity:1"
           d="M 54600,42000 H 53500"
           id="path86" />
      </g>
      <g
         style="fill:#840000;fill-opacity:0;stroke:#840000;stroke-width:100;stroke-linecap:round;stroke-linejoin:round;stroke-opacity:1"
         id="g98">
        <path
           style="fill:none;fill-opacity:0;stroke:#840000;stroke-width:100;stroke-linecap:round;stroke-linejoin:round;stroke-opacity:1"
           d="m 54600,41250 v 1500"
           id="path90" />
        <path
           style="fill:none;fill-opacity:0;stroke:#840000;stroke-width:100;stroke-linecap:round;stroke-linejoin:round;stroke-opacity:1"
           d="m 54800,42500 v 400"
           id="path92" />
        <path
           style="fill:none;fill-opacity:0;stroke:#840000;stroke-width:100;stroke-linecap:round;stroke-linejoin:round;stroke-opacity:1"
           d="m 54800,41800 v 400"
           id="path94" />
        <path
           style="fill:none;fill-opacity:0;stroke:#840000;stroke-width:100;stroke-linecap:round;stroke-linejoin:round;stroke-opacity:1"
           d="m 54800,41100 v 400"
           id="path96" />
      </g>
      <g
         style="fill:#840000;fill-opacity:0;stroke:#840000;stroke-width:60;stroke-linecap:round;stroke-linejoin:round;stroke-opacity:1"
         id="g106">
        <path
           style="fill:none;fill-opacity:0;stroke:#840000;stroke-width:60;stroke-linecap:round;stroke-linejoin:round;stroke-opacity:1"
           d="m 55500,41000 v 300"
           id="path100" />
        <path
           style="fill:none;fill-opacity:0;stroke:#840000;stroke-width:60;stroke-linecap:round;stroke-linejoin:round;stroke-opacity:1"
           d="m 55500,43000 v -1000 h -700"
           id="path102" />
        <path
           style="fill:none;fill-opacity:0;stroke:#840000;stroke-width:60;stroke-linecap:round;stroke-linejoin:round;stroke-opacity:1"
           d="m 54800,42700 h 1000 v -1400 h -1000"
           id="path104" />
      </g>
      <g
         style="fill:#840000;fill-opacity:1;stroke:#840000;stroke-width:60;stroke-linecap:round;stroke-linejoin:round;stroke-opacity:1"
         id="g110">
        <path
           style="fill:#840000;fill-opacity:1;fill-rule:evenodd;stroke:#840000;stroke-width:60;stroke-linecap:round;stroke-linejoin:round;stroke-opacity:1"
           d="m 54900,42000 400,-150 v 300 z"
           id="path108" />
      </g>
      <g
         style="fill:#840000;fill-opacity:0;stroke:#840000;stroke-width:60;stroke-linecap:round;stroke-linejoin:round;stroke-opacity:1"
         id="g116">
        <path
           style="fill:none;fill-opacity:0;stroke:#840000;stroke-width:60;stroke-linecap:round;stroke-linejoin:round;stroke-opacity:1"
           d="m 55600,41800 50,50 h 300 l 50,50"
           id="path112" />
        <path
           style="fill:none;fill-opacity:0;stroke:#840000;stroke-width:60;stroke-linecap:round;stroke-linejoin:round;stroke-opacity:1"
           d="m 55800,41850 -150,250 h 300 z"
           id="path114" />
      </g>
      <g
         style="fill:#840000;fill-opacity:0;stroke:#840000;stroke-width:100;stroke-linecap:round;stroke-linejoin:round;stroke-opacity:1"
         id="g120">
        <circle
           cx="55150"
           cy="42000"
           r="1100"
           id="circle118" />
      </g>
      <g
         style="fill:#840000;fill-opacity:1;stroke:#840000;stroke-width:60;stroke-linecap:round;stroke-linejoin:round;stroke-opacity:1"
         id="g126">
        <circle
           cx="55500"
           cy="42700"
           r="100"
           id="circle122" />
        <circle
           cx="55500"
           cy="41300"
           r="100"
           id="circle124" />
      </g>
      <g
         style="fill:#840000;fill-opacity:0;stroke:#840000;stroke-width:60;stroke-linecap:round;stroke-linejoin:round;stroke-opacity:1"
         id="g130">
        <path
           d="M 55500,41000 V 40000"
           id="path128" />
      </g>
      <g
         style="fill:#a90000;fill-opacity:0;stroke:#a90000;stroke-width:60;stroke-linecap:round;stroke-linejoin:round;stroke-opacity:1"
         id="g144">
        <g
           transform="rotate(-90,55400,40500)"
           id="g134">
          <text
             x="55400"
             y="40500"
             textLength="536.18109"
             font-size="666.654px"
             lengthAdjust="spacingAndGlyphs"
             text-anchor="middle"
             opacity="0"
             id="text132">1</text>
        </g>
        <g
           class="stroked-text"
           id="g142">
          <desc
             id="desc136">1</desc>
          <path
             d="m 55376,40357 v 285"
             id="path138" />
          <path
             d="m 55376,40500 h -500 l 71,47 48,48 24,47"
             id="path140" />
        </g>
      </g>
      <g
         style="fill:#840000;fill-opacity:0;stroke:#840000;stroke-width:60;stroke-linecap:round;stroke-linejoin:round;stroke-opacity:1"
         id="g148">
        <path
           d="M 53500,42000 H 52500"
           id="path146" />
      </g>
      <g
         style="fill:#a90000;fill-opacity:0;stroke:#a90000;stroke-width:60;stroke-linecap:round;stroke-linejoin:round;stroke-opacity:1"
         id="g158">
        <text
           x="53000"
           y="41900"
           textLength="536.18109"
           font-size="666.654px"
           lengthAdjust="spacingAndGlyphs"
           text-anchor="middle"
           opacity="0"
           id="text150">2</text>
        <g
           class="stroked-text"
           id="g156">
          <desc
             id="desc152">2</desc>
          <path
             d="m 52857,41423 23,-23 48,-24 h 119 l 48,24 24,23 23,48 v 48 l -23,71 -286,286 h 309"
             id="path154" />
        </g>
      </g>
      <g
         style="fill:#840000;fill-opacity:0;stroke:#840000;stroke-width:60;stroke-linecap:round;stroke-linejoin:round;stroke-opacity:1"
         id="g162">
        <path
           d="m 55500,43000 v 1000"
           id="path160" />
      </g>
      <g
         style="fill:#a90000;fill-opacity:0;stroke:#a90000;stroke-width:60;stroke-linecap:round;stroke-linejoin:round;stroke-opacity:1"
         id="g174">
        <g
           transform="rotate(-90,55400,43500)"
           id="g166">
          <text
             x="55400"
             y="43500"
             textLength="536.18109"
             font-size="666.654px"
             lengthAdjust="spacingAndGlyphs"
             text-anchor="middle"
             opacity="0"
             id="text164">3</text>
        </g>
        <g
           class="stroked-text"
           id="g172">
          <desc
             id="desc168">3</desc>
          <path
             d="m 54876,43666 v -309 l 190,166 v -71 l 24,-48 24,-24 47,-23 h 119 l 48,23 24,24 24,48 v 143 l -24,47 -24,24"
             id="path170" />
        </g>
      </g>
      <g
         style="fill:#006464;fill-opacity:0;stroke:#006464;stroke-width:60;stroke-linecap:round;stroke-linejoin:round;stroke-opacity:1"
         id="g208">
        <text
           x="57531.262"
           y="41749.922"
           textLength="1060"
           font-size="666.654px"
           lengthAdjust="spacingAndGlyphs"
           text-anchor="middle"
           opacity="0"
           id="text176">Q1</text>
        <g
           class="stroked-text"
           id="g188">
          <desc
             id="desc178">Q1</desc>
          <path
             d="m 57483,41773 -48,-24 -47,-47 -72,-72 -47,-23 h -48"
             id="path180" />
          <path
             d="m 57245,41726 -48,-24 -47,-48 -24,-95 v -167 l 24,-95 47,-48 48,-23 h 95 l 48,23 47,48 24,95 v 167 l -24,95 -47,48 -48,24 h -95"
             id="path182" />
          <path
             d="m 57935,41726 h -285"
             id="path184" />
          <path
             d="m 57793,41726 v -500 l -48,71 -48,48 -47,23"
             id="path186" />
        </g>
        <text
           x="58233.621"
           y="42749.922"
           textLength="2464.7637"
           font-size="666.654px"
           lengthAdjust="spacingAndGlyphs"
           text-anchor="middle"
           opacity="0"
           id="text190">BS170</text>
        <g
           class="stroked-text"
           id="g206">
          <desc
             id="desc192">BS170</desc>
          <path
             d="m 57316,42464 72,23 24,24 23,48 v 71 l -23,48 -24,24 -48,24 h -190 v -500 h 166 l 48,23 24,24 24,48 v 47 l -24,48 -24,24 -48,24 h -166"
             id="path194" />
          <path
             d="m 57626,42702 71,24 h 119 l 48,-24 24,-24 24,-48 v -47 l -24,-48 -24,-24 -48,-24 -95,-23 -47,-24 -24,-24 -24,-48 v -47 l 24,-48 24,-24 47,-23 h 119 l 72,23"
             id="path196" />
          <path
             d="m 58388,42726 h -286"
             id="path198" />
          <path
             d="m 58245,42726 v -500 l -48,71 -47,48 -48,23"
             id="path200" />
          <path
             d="m 58555,42226 h 333 l -214,500"
             id="path202" />
          <path
             d="m 59174,42226 h 47 l 48,23 24,24 23,48 24,95 v 119 l -24,95 -23,48 -24,24 -48,24 h -47 l -48,-24 -24,-24 -24,-48 -23,-95 v -119 l 23,-95 24,-48 24,-24 48,-23"
             id="path204" />
        </g>
      </g>
    </g>
    <g
       style="fill:#006464;fill-opacity:0;stroke:#006464;stroke-width:60;stroke-linecap:round;stroke-linejoin:round;stroke-opacity:1"
       id="g258">
      <g
         id="g212" />
      <g
         style="fill:#840000;fill-opacity:0;stroke:#840000;stroke-width:60;stroke-linecap:round;stroke-linejoin:round;stroke-opacity:1"
         id="g214" />
      <g
         style="fill:#840000;fill-opacity:0;stroke:#840000;stroke-width:100;stroke-linecap:round;stroke-linejoin:round;stroke-opacity:1"
         id="g218">
        <rect
           x="47000"
           y="41600"
           width="2000"
           height="800"
           rx="0.000000"
           id="rect216" />
      </g>
      <g
         style="fill:#840000;fill-opacity:0;stroke:#840000;stroke-width:60;stroke-linecap:round;stroke-linejoin:round;stroke-opacity:1"
         id="g224">
        <path
           d="m 47000,42000 h -500"
           id="path220" />
        <path
           d="m 49000,42000 h 500"
           id="path222" />
      </g>
      <g
         style="fill:#006464;fill-opacity:0;stroke:#006464;stroke-width:60;stroke-linecap:round;stroke-linejoin:round;stroke-opacity:1"
         id="g256">
        <text
           x="47999.961"
           y="39750"
           textLength="1036.1812"
           font-size="666.654px"
           lengthAdjust="spacingAndGlyphs"
           text-anchor="middle"
           opacity="0"
           id="text226">R1</text>
        <g
           class="stroked-text"
           id="g238">
          <desc
             id="desc228">R1</desc>
          <path
             d="m 47916,39726 -167,-238"
             id="path230" />
          <path
             d="m 47630,39726 v -500 h 191 l 47,24 24,23 24,48 v 71 l -24,48 -24,24 -47,24 h -191"
             id="path232" />
          <path
             d="m 48392,39726 h -285"
             id="path234" />
          <path
             d="m 48249,39726 v -500 l -47,71 -48,48 -47,24"
             id="path236" />
        </g>
        <text
           x="48000"
           y="40750"
           textLength="1988.5826"
           font-size="666.654px"
           lengthAdjust="spacingAndGlyphs"
           text-anchor="middle"
           opacity="0"
           id="text240">330R</text>
        <g
           class="stroked-text"
           id="g254">
          <desc
             id="desc242">330R</desc>
          <path
             d="m 47107,40226 h 309 l -166,190 h 71 l 48,24 23,24 24,47 v 119 l -24,48 -23,24 -48,24 h -143 l -48,-24 -23,-24"
             id="path244" />
          <path
             d="m 47583,40226 h 309 l -166,190 h 71 l 48,24 24,24 23,47 v 119 l -23,48 -24,24 -48,24 h -143 l -47,-24 -24,-24"
             id="path246" />
          <path
             d="m 48202,40226 h 48 l 47,24 24,23 24,48 24,95 v 119 l -24,95 -24,48 -24,24 -47,24 h -48 l -48,-24 -24,-24 -23,-48 -24,-95 v -119 l 24,-95 23,-48 24,-23 48,-24"
             id="path248" />
          <path
             d="m 48869,40726 -167,-238"
             id="path250" />
          <path
             d="m 48583,40726 v -500 h 190 l 48,24 24,23 24,48 v 71 l -24,48 -24,24 -48,24 h -190"
             id="path252" />
        </g>
      </g>
    </g>
    <g
       style="fill:#006464;fill-opacity:0;stroke:#006464;stroke-width:60;stroke-linecap:round;stroke-linejoin:round;stroke-opacity:1"
       id="g286">
      <g
         id="g260" />
      <g
         style="fill:#840000;fill-opacity:0;stroke:#840000;stroke-width:60;stroke-linecap:round;stroke-linejoin:round;stroke-opacity:1"
         id="g268">
        <path
           style="fill:none;fill-opacity:0;stroke:#840000;stroke-width:60;stroke-linecap:round;stroke-linejoin:round;stroke-opacity:1"
           d="m 38700,40000 300,-500"
           id="path262" />
        <path
           style="fill:none;fill-opacity:0;stroke:#840000;stroke-width:60;stroke-linecap:round;stroke-linejoin:round;stroke-opacity:1"
           d="M 39000,40500 V 39500"
           id="path264" />
        <path
           style="fill:none;fill-opacity:0;stroke:#840000;stroke-width:60;stroke-linecap:round;stroke-linejoin:round;stroke-opacity:1"
           d="m 39000,39500 300,500"
           id="path266" />
      </g>
      <g
         style="fill:#006464;fill-opacity:0;stroke:#006464;stroke-width:60;stroke-linecap:round;stroke-linejoin:round;stroke-opacity:1"
         id="g284">
        <text
           x="39000"
           y="38749.961"
           textLength="1583.8188"
           font-size="666.654px"
           lengthAdjust="spacingAndGlyphs"
           text-anchor="middle"
           opacity="0"
           id="text270">+5V</text>
        <g
           class="stroked-text"
           id="g282">
          <desc
             id="desc272">+5V</desc>
          <path
             d="m 38357,38535 h 381"
             id="path274" />
          <path
             d="m 38547,38726 v -381"
             id="path276" />
          <path
             d="m 39214,38226 h -238 l -24,238 24,-24 47,-24 h 119 l 48,24 24,24 24,47 v 119 l -24,48 -24,24 -48,24 h -119 l -47,-24 -24,-24"
             id="path278" />
          <path
             d="m 39380,38226 167,500 167,-500"
             id="path280" />
        </g>
      </g>
    </g>
    <g
       style="fill:#006464;fill-opacity:0;stroke:#006464;stroke-width:60;stroke-linecap:round;stroke-linejoin:round;stroke-opacity:1"
       id="g344">
      <g
         id="g288" />
      <g
         style="fill:#840000;fill-opacity:0;stroke:#840000;stroke-width:60;stroke-linecap:round;stroke-linejoin:round;stroke-opacity:1"
         id="g302">
        <circle
           cx="41700"
           cy="42000"
           r="200"
           id="circle290" />
        <path
           style="fill:none;fill-opacity:0;stroke:#840000;stroke-width:60;stroke-linecap:round;stroke-linejoin:round;stroke-opacity:1"
           d="m 42500,41500 v -700"
           id="path292" />
        <path
           style="fill:none;fill-opacity:0;stroke:#840000;stroke-width:60;stroke-linecap:round;stroke-linejoin:round;stroke-opacity:1"
           d="M 43500,41500 H 41500"
           id="path294" />
        <circle
           cx="43300"
           cy="42000"
           r="200"
           id="circle296" />
        <path
           d="M 41500,42000 H 40500"
           id="path298" />
        <path
           d="m 43500,42000 h 1000"
           id="path300" />
      </g>
      <g
         style="fill:#006464;fill-opacity:0;stroke:#006464;stroke-width:60;stroke-linecap:round;stroke-linejoin:round;stroke-opacity:1"
         id="g342">
        <text
           x="42500"
           y="39249.961"
           textLength="1583.8188"
           font-size="666.654px"
           lengthAdjust="spacingAndGlyphs"
           text-anchor="middle"
           opacity="0"
           id="text304">SW1</text>
        <g
           class="stroked-text"
           id="g316">
          <desc
             id="desc306">SW1</desc>
          <path
             d="m 41833,39202 71,24 h 119 l 48,-24 24,-24 24,-48 v -47 l -24,-48 -24,-24 -48,-23 -95,-24 -48,-24 -23,-24 -24,-48 v -47 l 24,-48 23,-24 48,-23 h 119 l 72,23"
             id="path308" />
          <path
             d="m 42285,38726 119,500 96,-358 95,358 119,-500"
             id="path310" />
          <path
             d="m 43166,39226 h -286"
             id="path312" />
          <path
             d="m 43023,39226 v -500 l -47,71 -48,48 -48,23"
             id="path314" />
        </g>
        <text
           x="42500"
           y="40249.961"
           textLength="3298.1104"
           font-size="666.654px"
           lengthAdjust="spacingAndGlyphs"
           text-anchor="middle"
           opacity="0"
           id="text318">SW_Push</text>
        <g
           class="stroked-text"
           id="g340">
          <desc
             id="desc320">SW_Push</desc>
          <path
             d="m 40976,40202 71,24 h 119 l 48,-24 24,-24 23,-48 v -47 l -23,-48 -24,-24 -48,-23 -95,-24 -48,-24 -23,-24 -24,-48 v -47 l 24,-48 23,-24 48,-23 h 119 l 71,23"
             id="path322" />
          <path
             d="m 41428,39726 119,500 95,-358 96,358 119,-500"
             id="path324" />
          <path
             d="m 41928,40273 h 381"
             id="path326" />
          <path
             d="m 42428,40226 v -500 h 191 l 47,23 24,24 24,48 v 71 l -24,48 -24,24 -47,24 h -191"
             id="path328" />
          <path
             d="m 43142,39892 v 334"
             id="path330" />
          <path
             d="m 42928,39892 v 262 l 24,48 48,24 h 71 l 48,-24 23,-24"
             id="path332" />
          <path
             d="m 43357,40202 47,24 h 96 l 47,-24 24,-48 v -24 l -24,-47 -47,-24 h -72 l -48,-24 -23,-47 v -24 l 23,-48 48,-24 h 72 l 47,24"
             id="path334" />
          <path
             d="m 43785,40226 v -500"
             id="path336" />
          <path
             d="m 44000,40226 v -262 l -24,-48 -48,-24 h -71 l -48,24 -24,24"
             id="path338" />
        </g>
      </g>
    </g>
    <g
       style="fill:#006464;fill-opacity:0;stroke:#006464;stroke-width:60;stroke-linecap:round;stroke-linejoin:round;stroke-opacity:1"
       id="g400">
      <g
         id="g346" />
      <g
         style="fill:#840000;fill-opacity:0;stroke:#840000;stroke-width:60;stroke-linecap:round;stroke-linejoin:round;stroke-opacity:1"
         id="g348" />
      <g
         style="fill:#840000;fill-opacity:0;stroke:#840000;stroke-width:100;stroke-linecap:round;stroke-linejoin:round;stroke-opacity:1"
         id="g352">
        <path
           style="fill:none;fill-opacity:0;stroke:#840000;stroke-width:100;stroke-linecap:round;stroke-linejoin:round;stroke-opacity:1"
           d="M 56000,37500 H 55000"
           id="path350" />
      </g>
      <g
         style="fill:#840000;fill-opacity:0;stroke:#840000;stroke-width:60;stroke-linecap:round;stroke-linejoin:round;stroke-opacity:1"
         id="g356">
        <path
           style="fill:none;fill-opacity:0;stroke:#840000;stroke-width:60;stroke-linecap:round;stroke-linejoin:round;stroke-opacity:1"
           d="M 55500,37500 V 36500"
           id="path354" />
      </g>
      <g
         style="fill:#840000;fill-opacity:0;stroke:#840000;stroke-width:100;stroke-linecap:round;stroke-linejoin:round;stroke-opacity:1"
         id="g360">
        <path
           style="fill:none;fill-opacity:0;stroke:#840000;stroke-width:100;stroke-linecap:round;stroke-linejoin:round;stroke-opacity:1"
           d="m 56000,36500 h -1000 l 500,1000 z"
           id="path358" />
      </g>
      <g
         style="fill:#840000;fill-opacity:0;stroke:#840000;stroke-width:60;stroke-linecap:round;stroke-linejoin:round;stroke-opacity:1"
         id="g370">
        <path
           style="fill:none;fill-opacity:0;stroke:#840000;stroke-width:60;stroke-linecap:round;stroke-linejoin:round;stroke-opacity:1"
           d="m 55800,38200 600,600 v -300 300 h -300"
           id="path362" />
        <path
           style="fill:none;fill-opacity:0;stroke:#840000;stroke-width:60;stroke-linecap:round;stroke-linejoin:round;stroke-opacity:1"
           d="m 55800,37700 600,600 v -300 300 h -300"
           id="path364" />
        <path
           d="m 55500,37500 v 1000"
           id="path366" />
        <path
           d="M 55500,36500 V 35500"
           id="path368" />
      </g>
      <g
         style="fill:#006464;fill-opacity:0;stroke:#006464;stroke-width:60;stroke-linecap:round;stroke-linejoin:round;stroke-opacity:1"
         id="g398">
        <text
           x="57519.332"
           y="37374.961"
           textLength="1036.1812"
           font-size="666.654px"
           lengthAdjust="spacingAndGlyphs"
           text-anchor="middle"
           opacity="0"
           id="text372">D1</text>
        <g
           class="stroked-text"
           id="g382">
          <desc
             id="desc374">D1</desc>
          <path
             d="m 57150,37351 v -500 h 119 l 71,23 48,48 24,48 23,95 v 71 l -23,96 -24,47 -48,48 -71,24 h -119"
             id="path376" />
          <path
             d="m 57912,37351 h -286"
             id="path378" />
          <path
             d="m 57769,37351 v -500 l -48,71 -47,48 -48,23"
             id="path380" />
        </g>
        <text
           x="57709.805"
           y="38374.961"
           textLength="1417.126"
           font-size="666.654px"
           lengthAdjust="spacingAndGlyphs"
           text-anchor="middle"
           opacity="0"
           id="text384">LED</text>
        <g
           class="stroked-text"
           id="g396">
          <desc
             id="desc386">LED</desc>
          <path
             d="m 57388,38351 h -238 v -500"
             id="path388" />
          <path
             d="m 57555,38089 h 166"
             id="path390" />
          <path
             d="m 57793,38351 h -238 v -500 h 238"
             id="path392" />
          <path
             d="m 58007,38351 v -500 h 119 l 71,23 48,48 24,48 24,95 v 71 l -24,96 -24,47 -48,48 -71,24 h -119"
             id="path394" />
        </g>
      </g>
    </g>
    <g
       style="fill:#006464;fill-opacity:0;stroke:#006464;stroke-width:60;stroke-linecap:round;stroke-linejoin:round;stroke-opacity:1"
       id="g446">
      <g
         id="g402" />
      <g
         style="fill:#840000;fill-opacity:0;stroke:#840000;stroke-width:60;stroke-linecap:round;stroke-linejoin:round;stroke-opacity:1"
         id="g404" />
      <g
         style="fill:#840000;fill-opacity:0;stroke:#840000;stroke-width:100;stroke-linecap:round;stroke-linejoin:round;stroke-opacity:1"
         id="g408">
        <rect
           x="55100"
           y="31500"
           width="800"
           height="2000"
           rx="0.000000"
           id="rect406" />
      </g>
      <g
         style="fill:#840000;fill-opacity:0;stroke:#840000;stroke-width:60;stroke-linecap:round;stroke-linejoin:round;stroke-opacity:1"
         id="g414">
        <path
           d="m 55500,31500 v -500"
           id="path410" />
        <path
           d="m 55500,33500 v 500"
           id="path412" />
      </g>
      <g
         style="fill:#006464;fill-opacity:0;stroke:#006464;stroke-width:60;stroke-linecap:round;stroke-linejoin:round;stroke-opacity:1"
         id="g444">
        <text
           x="57019.332"
           y="32249.922"
           textLength="1036.1812"
           font-size="666.654px"
           lengthAdjust="spacingAndGlyphs"
           text-anchor="middle"
           opacity="0"
           id="text416">R3</text>
        <g
           class="stroked-text"
           id="g426">
          <desc
             id="desc418">R3</desc>
          <path
             d="m 56935,32226 -166,-239"
             id="path420" />
          <path
             d="m 56650,32226 v -500 h 190 l 48,23 24,24 23,48 v 71 l -23,48 -24,24 -48,23 h -190"
             id="path422" />
          <path
             d="m 57102,31726 h 310 l -167,190 h 71 l 48,24 24,24 24,47 v 119 l -24,48 -24,24 -48,24 h -142 l -48,-24 -24,-24"
             id="path424" />
        </g>
        <text
           x="57019.332"
           y="33249.922"
           textLength="1036.1812"
           font-size="666.654px"
           lengthAdjust="spacingAndGlyphs"
           text-anchor="middle"
           opacity="0"
           id="text428">1K</text>
        <g
           class="stroked-text"
           id="g442">
          <desc
             id="desc430">1K</desc>
          <path
             d="m 56912,33226 h -286"
             id="path432" />
          <path
             d="m 56769,33226 v -500 l -48,71 -47,48 -48,23"
             id="path434" />
          <path
             d="m 57126,33226 v -500"
             id="path436" />
          <path
             d="m 57412,33226 -215,-286"
             id="path438" />
          <path
             d="m 57412,32726 -286,285"
             id="path440" />
        </g>
      </g>
    </g>
    <g
       style="fill:#006464;fill-opacity:0;stroke:#006464;stroke-width:60;stroke-linecap:round;stroke-linejoin:round;stroke-opacity:1"
       id="g474">
      <g
         id="g448" />
      <g
         style="fill:#840000;fill-opacity:0;stroke:#840000;stroke-width:60;stroke-linecap:round;stroke-linejoin:round;stroke-opacity:1"
         id="g456">
        <path
           style="fill:none;fill-opacity:0;stroke:#840000;stroke-width:60;stroke-linecap:round;stroke-linejoin:round;stroke-opacity:1"
           d="m 55200,29000 300,-500"
           id="path450" />
        <path
           style="fill:none;fill-opacity:0;stroke:#840000;stroke-width:60;stroke-linecap:round;stroke-linejoin:round;stroke-opacity:1"
           d="M 55500,29500 V 28500"
           id="path452" />
        <path
           style="fill:none;fill-opacity:0;stroke:#840000;stroke-width:60;stroke-linecap:round;stroke-linejoin:round;stroke-opacity:1"
           d="m 55500,28500 300,500"
           id="path454" />
      </g>
      <g
         style="fill:#006464;fill-opacity:0;stroke:#006464;stroke-width:60;stroke-linecap:round;stroke-linejoin:round;stroke-opacity:1"
         id="g472">
        <text
           x="55500"
           y="27749.961"
           textLength="1583.8188"
           font-size="666.654px"
           lengthAdjust="spacingAndGlyphs"
           text-anchor="middle"
           opacity="0"
           id="text458">+5V</text>
        <g
           class="stroked-text"
           id="g470">
          <desc
             id="desc460">+5V</desc>
          <path
             d="m 54857,27535 h 381"
             id="path462" />
          <path
             d="m 55047,27726 v -381"
             id="path464" />
          <path
             d="m 55714,27226 h -238 l -24,238 24,-24 47,-24 h 119 l 48,24 24,24 24,47 v 119 l -24,48 -24,24 -48,24 h -119 l -47,-24 -24,-24"
             id="path466" />
          <path
             d="m 55880,27226 167,500 167,-500"
             id="path468" />
        </g>
      </g>
    </g>
    <g
       style="fill:#0000c2;fill-opacity:0;stroke:#0000c2;stroke-width:60;stroke-linecap:round;stroke-linejoin:round;stroke-opacity:1"
       id="g518">
      <text
         x="48500"
         y="37862.48"
         textLength="5526.6533"
         font-size="666.654px"
         lengthAdjust="spacingAndGlyphs"
         text-anchor="start"
         opacity="0"
         id="text480">V_{GS}(_{th}) = 2.1V</text>
      <g
         class="stroked-text"
         id="g516">
        <desc
           id="desc482">V_{GS}(_{th}) = 2.1V</desc>
        <path
           d="m 48577,37338 167,500 166,-500"
           id="path484" />
        <path
           d="m 49263,37512 -38,-19 h -57 l -58,19 -38,38 -19,38 -19,76 v 57 l 19,77 19,38 38,38 58,19 h 38 l 57,-19 19,-19 v -134 h -76"
           id="path486" />
        <path
           d="m 49434,37874 57,19 h 96 l 38,-19 19,-19 19,-38 v -38 l -19,-38 -19,-20 -38,-19 -77,-19 -38,-19 -19,-19 -19,-38 v -38 l 19,-38 19,-19 38,-19 h 96 l 57,19"
           id="path488" />
        <path
           d="m 50001,38029 -24,-24 -47,-72 -24,-47 -24,-72 -24,-119 v -95 l 24,-119 24,-71 24,-48 47,-71 24,-24"
           id="path490" />
        <path
           d="m 50110,37626 h 153"
           id="path492" />
        <path
           d="m 50168,37493 v 343 l 19,38 38,19 h 38"
           id="path494" />
        <path
           d="m 50396,37893 v -400"
           id="path496" />
        <path
           d="m 50568,37893 v -210 l -19,-38 -39,-19 h -57 l -38,19 -19,19"
           id="path498" />
        <path
           d="m 50734,38029 24,-24 48,-72 24,-47 23,-72 24,-119 v -95 l -24,-119 -23,-71 -24,-48 -48,-71 -24,-24"
           id="path500" />
        <path
           d="m 51496,37576 h 381"
           id="path502" />
        <path
           d="m 51877,37719 h -381"
           id="path504" />
        <path
           d="m 52472,37386 24,-24 48,-24 h 119 l 47,24 24,24 24,47 v 48 l -24,71 -285,286 h 309"
           id="path506" />
        <path
           d="m 52972,37791 24,23 -24,24 -23,-24 23,-23 v 47"
           id="path508" />
        <path
           d="m 53472,37838 h -285"
           id="path510" />
        <path
           d="m 53330,37838 v -500 l -48,72 -48,47 -47,24"
           id="path512" />
        <path
           d="m 53615,37338 167,500 167,-500"
           id="path514" />
      </g>
    </g>
    <g
       style="fill:#009600;fill-opacity:0;stroke:#009600;stroke-width:60;stroke-linecap:round;stroke-linejoin:round;stroke-opacity:1"
       id="g546">
      <path
         d="m 55500,44000 v 4000"
         id="path520" />
      <path
         d="M 55500,49500 V 48000"
         id="path522" />
      <path
         d="m 51000,48000 h 4500"
         id="path524" />
      <path
         d="m 51000,46500 v 1500"
         id="path526" />
      <path
         d="m 55500,38500 v 1500"
         id="path528" />
      <path
         d="m 51000,42000 h 1500"
         id="path530" />
      <path
         d="m 39000,42000 h 1500"
         id="path532" />
      <path
         d="m 51000,42000 v 1500"
         id="path534" />
      <path
         d="m 44500,42000 h 2000"
         id="path536" />
      <path
         d="m 39000,40500 v 1500"
         id="path538" />
      <path
         d="m 49500,42000 h 1500"
         id="path540" />
      <path
         d="m 55500,29500 v 1500"
         id="path542" />
      <path
         d="m 55500,34000 v 1500"
         id="path544" />
    </g>
    <g
       style="fill:#009600;fill-opacity:1;stroke:#009600;stroke-width:60;stroke-linecap:round;stroke-linejoin:round;stroke-opacity:1"
       id="g552">
      <circle
         cx="55500"
         cy="48000"
         r="180"
         id="circle548" />
      <circle
         cx="51000"
         cy="42000"
         r="180"
         id="circle550" />
    </g>
  </g>
  <metadata
     id="metadata1111">
    <rdf:RDF>
      <cc:Work
         rdf:about="">
        <dc:title>SVG Picture created as mosfet-switch.svg date 2022/08/12 15:51:43 </dc:title>
      </cc:Work>
    </rdf:RDF>
  </metadata>
</svg>
