<?xml version="1.0" encoding="UTF-8" standalone="no"?>
<svg
   version="1.1"
   viewBox="0 0 31598.339 20635.109"
   id="svg698"
   sodipodi:docname="avr-input-output.svg"
   inkscape:version="1.2 (dc2aedaf03, 2022-05-15)"
   xmlns:inkscape="http://www.inkscape.org/namespaces/inkscape"
   xmlns:sodipodi="http://sodipodi.sourceforge.net/DTD/sodipodi-0.dtd"
   xmlns="http://www.w3.org/2000/svg"
   xmlns:svg="http://www.w3.org/2000/svg"
   xmlns:rdf="http://www.w3.org/1999/02/22-rdf-syntax-ns#"
   xmlns:cc="http://creativecommons.org/ns#"
   xmlns:dc="http://purl.org/dc/elements/1.1/">
  <defs
     id="defs702" />
  <sodipodi:namedview
     id="namedview700"
     pagecolor="#ffffff"
     bordercolor="#666666"
     borderopacity="1.0"
     inkscape:showpageshadow="2"
     inkscape:pageopacity="0.0"
     inkscape:pagecheckerboard="0"
     inkscape:deskcolor="#d1d1d1"
     inkscape:document-units="cm"
     showgrid="false"
     inkscape:zoom="1.6474292"
     inkscape:cx="122.91879"
     inkscape:cy="132.63089"
     inkscape:current-layer="svg698" />
  <title
     id="title2">SVG Picture created as avr-input-output.svg date 2022/08/11 06:55:21 </title>
  <desc
     id="desc4">Picture generated by Eeschema-SVG </desc>
  <g
     style="fill:#000000;fill-opacity:1;stroke:#000000;stroke-linecap:round;stroke-linejoin:round;stroke-opacity:1"
     id="g6"
     transform="translate(-45224.463,-28696)" />
  <g
     style="fill:#f5f4ef;fill-opacity:0;stroke:#f5f4ef;stroke-width:0;stroke-linecap:round;stroke-linejoin:round;stroke-opacity:1"
     id="g8"
     transform="translate(-45224.463,-28696)" />
  <g
     style="fill:#f5f4ef;fill-opacity:1;stroke:#f5f4ef;stroke-width:0.03937;stroke-linecap:round;stroke-linejoin:round;stroke-opacity:1"
     id="g12"
     transform="translate(-41721.537,31899.568)">
    <rect
       x="0"
       y="0"
       width="116930"
       height="82680"
       rx="0.000000"
       id="rect10" />
  </g>
  <g
     style="fill:#006464;fill-opacity:0;stroke:#006464;stroke-width:60;stroke-linecap:round;stroke-linejoin:round;stroke-opacity:1"
     id="g652"
     transform="translate(-45224.463,-28696)" />
  <g
     style="fill:#009600;fill-opacity:0;stroke:#009600;stroke-width:60;stroke-linecap:round;stroke-linejoin:round;stroke-opacity:1"
     id="g692"
     transform="translate(-45224.463,-28696)" />
  <g
     id="g1325"
     transform="translate(-44703.611,-28175.146)">
    <g
       style="fill:#f5f4ef;fill-opacity:1;stroke:#f5f4ef;stroke-width:60;stroke-linecap:round;stroke-linejoin:round;stroke-opacity:1"
       id="g42">
      <g
         id="g14" />
      <g
         style="fill:#840000;fill-opacity:1;stroke:#840000;stroke-width:60;stroke-linecap:round;stroke-linejoin:round;stroke-opacity:1"
         id="g16" />
      <g
         style="fill:#840000;fill-opacity:0;stroke:#840000;stroke-width:60;stroke-linecap:round;stroke-linejoin:round;stroke-opacity:1"
         id="g24">
        <path
           style="fill:none;fill-opacity:0;stroke:#840000;stroke-width:60;stroke-linecap:round;stroke-linejoin:round;stroke-opacity:1"
           d="m 55700,30500 300,-500"
           id="path18" />
        <path
           style="fill:none;fill-opacity:0;stroke:#840000;stroke-width:60;stroke-linecap:round;stroke-linejoin:round;stroke-opacity:1"
           d="M 56000,31000 V 30000"
           id="path20" />
        <path
           style="fill:none;fill-opacity:0;stroke:#840000;stroke-width:60;stroke-linecap:round;stroke-linejoin:round;stroke-opacity:1"
           d="m 56000,30000 300,500"
           id="path22" />
      </g>
      <g
         style="fill:#006464;fill-opacity:0;stroke:#006464;stroke-width:60;stroke-linecap:round;stroke-linejoin:round;stroke-opacity:1"
         id="g40">
        <text
           x="56000"
           y="29249.961"
           textLength="1653.8188"
           font-size="666.654px"
           lengthAdjust="spacingAndGlyphs"
           text-anchor="middle"
           opacity="0"
           id="text26">+5V</text>
        <g
           class="stroked-text"
           id="g38">
          <desc
             id="desc28">+5V</desc>
          <path
             d="m 55357,29035 h 381"
             id="path30" />
          <path
             d="m 55547,29226 v -381"
             id="path32" />
          <path
             d="m 56214,28726 h -238 l -24,238 24,-24 47,-24 h 119 l 48,24 24,24 24,47 v 119 l -24,48 -24,24 -48,24 h -119 l -47,-24 -24,-24"
             id="path34" />
          <path
             d="m 56380,28726 167,500 167,-500"
             id="path36" />
        </g>
      </g>
    </g>
    <g
       style="fill:#006464;fill-opacity:0;stroke:#006464;stroke-width:60;stroke-linecap:round;stroke-linejoin:round;stroke-opacity:1"
       id="g90">
      <g
         id="g44" />
      <g
         style="fill:#840000;fill-opacity:0;stroke:#840000;stroke-width:60;stroke-linecap:round;stroke-linejoin:round;stroke-opacity:1"
         id="g46" />
      <g
         style="fill:#840000;fill-opacity:0;stroke:#840000;stroke-width:100;stroke-linecap:round;stroke-linejoin:round;stroke-opacity:1"
         id="g50">
        <rect
           x="65500"
           y="36100"
           width="2000"
           height="800"
           rx="0.000000"
           id="rect48" />
      </g>
      <g
         style="fill:#840000;fill-opacity:0;stroke:#840000;stroke-width:60;stroke-linecap:round;stroke-linejoin:round;stroke-opacity:1"
         id="g56">
        <path
           d="m 65500,36500 h -500"
           id="path52" />
        <path
           d="m 67500,36500 h 500"
           id="path54" />
      </g>
      <g
         style="fill:#006464;fill-opacity:0;stroke:#006464;stroke-width:60;stroke-linecap:round;stroke-linejoin:round;stroke-opacity:1"
         id="g88">
        <text
           x="66499.961"
           y="34250"
           textLength="1036.1812"
           font-size="666.654px"
           lengthAdjust="spacingAndGlyphs"
           text-anchor="middle"
           opacity="0"
           id="text58">R1</text>
        <g
           class="stroked-text"
           id="g70">
          <desc
             id="desc60">R1</desc>
          <path
             d="m 66416,34226 -167,-238"
             id="path62" />
          <path
             d="m 66130,34226 v -500 h 191 l 47,24 24,23 24,48 v 71 l -24,48 -24,24 -47,24 h -191"
             id="path64" />
          <path
             d="m 66892,34226 h -285"
             id="path66" />
          <path
             d="m 66749,34226 v -500 l -47,71 -48,48 -47,24"
             id="path68" />
        </g>
        <text
           x="66499.961"
           y="35250"
           textLength="1036.1812"
           font-size="666.654px"
           lengthAdjust="spacingAndGlyphs"
           text-anchor="middle"
           opacity="0"
           id="text72">1K</text>
        <g
           class="stroked-text"
           id="g86">
          <desc
             id="desc74">1K</desc>
          <path
             d="m 66392,35226 h -285"
             id="path76" />
          <path
             d="m 66249,35226 v -500 l -47,71 -48,48 -47,24"
             id="path78" />
          <path
             d="m 66607,35226 v -500"
             id="path80" />
          <path
             d="m 66892,35226 -214,-286"
             id="path82" />
          <path
             d="m 66892,34726 -285,285"
             id="path84" />
        </g>
      </g>
    </g>
    <g
       style="fill:#006464;fill-opacity:0;stroke:#006464;stroke-width:60;stroke-linecap:round;stroke-linejoin:round;stroke-opacity:1"
       id="g146">
      <g
         id="g92" />
      <g
         style="fill:#840000;fill-opacity:0;stroke:#840000;stroke-width:60;stroke-linecap:round;stroke-linejoin:round;stroke-opacity:1"
         id="g94" />
      <g
         style="fill:#840000;fill-opacity:0;stroke:#840000;stroke-width:100;stroke-linecap:round;stroke-linejoin:round;stroke-opacity:1"
         id="g98">
        <path
           style="fill:none;fill-opacity:0;stroke:#840000;stroke-width:100;stroke-linecap:round;stroke-linejoin:round;stroke-opacity:1"
           d="m 71500,36000 v 1000"
           id="path96" />
      </g>
      <g
         style="fill:#840000;fill-opacity:0;stroke:#840000;stroke-width:60;stroke-linecap:round;stroke-linejoin:round;stroke-opacity:1"
         id="g102">
        <path
           style="fill:none;fill-opacity:0;stroke:#840000;stroke-width:60;stroke-linecap:round;stroke-linejoin:round;stroke-opacity:1"
           d="M 71500,36500 H 70500"
           id="path100" />
      </g>
      <g
         style="fill:#840000;fill-opacity:0;stroke:#840000;stroke-width:100;stroke-linecap:round;stroke-linejoin:round;stroke-opacity:1"
         id="g106">
        <path
           style="fill:none;fill-opacity:0;stroke:#840000;stroke-width:100;stroke-linecap:round;stroke-linejoin:round;stroke-opacity:1"
           d="m 70500,36000 v 1000 l 1000,-500 z"
           id="path104" />
      </g>
      <g
         style="fill:#840000;fill-opacity:0;stroke:#840000;stroke-width:60;stroke-linecap:round;stroke-linejoin:round;stroke-opacity:1"
         id="g116">
        <path
           style="fill:none;fill-opacity:0;stroke:#840000;stroke-width:60;stroke-linecap:round;stroke-linejoin:round;stroke-opacity:1"
           d="m 72200,36200 600,-600 h -300 300 v 300"
           id="path108" />
        <path
           style="fill:none;fill-opacity:0;stroke:#840000;stroke-width:60;stroke-linecap:round;stroke-linejoin:round;stroke-opacity:1"
           d="m 71700,36200 600,-600 h -300 300 v 300"
           id="path110" />
        <path
           d="m 71500,36500 h 1000"
           id="path112" />
        <path
           d="M 70500,36500 H 69500"
           id="path114" />
      </g>
      <g
         style="fill:#006464;fill-opacity:0;stroke:#006464;stroke-width:60;stroke-linecap:round;stroke-linejoin:round;stroke-opacity:1"
         id="g144">
        <text
           x="71624.961"
           y="33750"
           textLength="1036.1812"
           font-size="666.654px"
           lengthAdjust="spacingAndGlyphs"
           text-anchor="middle"
           opacity="0"
           id="text118">D1</text>
        <g
           class="stroked-text"
           id="g128">
          <desc
             id="desc120">D1</desc>
          <path
             d="m 71255,33726 v -500 h 119 l 72,24 47,47 24,48 24,95 v 71 l -24,96 -24,47 -47,48 -72,24 h -119"
             id="path122" />
          <path
             d="m 72017,33726 h -285"
             id="path124" />
          <path
             d="m 71874,33726 v -500 l -47,71 -48,48 -47,24"
             id="path126" />
        </g>
        <text
           x="71624.961"
           y="34750"
           textLength="1417.126"
           font-size="666.654px"
           lengthAdjust="spacingAndGlyphs"
           text-anchor="middle"
           opacity="0"
           id="text130">LED</text>
        <g
           class="stroked-text"
           id="g142">
          <desc
             id="desc132">LED</desc>
          <path
             d="m 71303,34726 h -238 v -500"
             id="path134" />
          <path
             d="m 71470,34464 h 166"
             id="path136" />
          <path
             d="m 71708,34726 h -238 v -500 h 238"
             id="path138" />
          <path
             d="m 71922,34726 v -500 h 119 l 72,24 47,47 24,48 24,95 v 71 l -24,96 -24,47 -47,48 -72,24 h -119"
             id="path140" />
        </g>
      </g>
    </g>
    <g
       style="fill:#006464;fill-opacity:0;stroke:#006464;stroke-width:60;stroke-linecap:round;stroke-linejoin:round;stroke-opacity:1"
       id="g204">
      <g
         id="g148" />
      <g
         style="fill:#840000;fill-opacity:0;stroke:#840000;stroke-width:60;stroke-linecap:round;stroke-linejoin:round;stroke-opacity:1"
         id="g162">
        <circle
           cx="68200"
           cy="38500"
           r="200"
           id="circle150" />
        <path
           style="fill:none;fill-opacity:0;stroke:#840000;stroke-width:60;stroke-linecap:round;stroke-linejoin:round;stroke-opacity:1"
           d="m 69000,38000 v -700"
           id="path152" />
        <path
           style="fill:none;fill-opacity:0;stroke:#840000;stroke-width:60;stroke-linecap:round;stroke-linejoin:round;stroke-opacity:1"
           d="M 70000,38000 H 68000"
           id="path154" />
        <circle
           cx="69800"
           cy="38500"
           r="200"
           id="circle156" />
        <path
           d="M 68000,38500 H 67000"
           id="path158" />
        <path
           d="m 70000,38500 h 1000"
           id="path160" />
      </g>
      <g
         style="fill:#006464;fill-opacity:0;stroke:#006464;stroke-width:60;stroke-linecap:round;stroke-linejoin:round;stroke-opacity:1"
         id="g202">
        <text
           x="69000"
           y="39749.961"
           textLength="1583.8188"
           font-size="666.654px"
           lengthAdjust="spacingAndGlyphs"
           text-anchor="middle"
           opacity="0"
           id="text164">SW1</text>
        <g
           class="stroked-text"
           id="g176">
          <desc
             id="desc166">SW1</desc>
          <path
             d="m 68333,39702 71,24 h 119 l 48,-24 24,-24 24,-48 v -47 l -24,-48 -24,-24 -48,-23 -95,-24 -48,-24 -23,-24 -24,-48 v -47 l 24,-48 23,-24 48,-23 h 119 l 72,23"
             id="path168" />
          <path
             d="m 68785,39226 119,500 96,-358 95,358 119,-500"
             id="path170" />
          <path
             d="m 69666,39726 h -286"
             id="path172" />
          <path
             d="m 69523,39726 v -500 l -47,71 -48,48 -48,23"
             id="path174" />
        </g>
        <text
           x="69000"
           y="40749.961"
           textLength="3298.1104"
           font-size="666.654px"
           lengthAdjust="spacingAndGlyphs"
           text-anchor="middle"
           opacity="0"
           id="text178">SW_Push</text>
        <g
           class="stroked-text"
           id="g200">
          <desc
             id="desc180">SW_Push</desc>
          <path
             d="m 67476,40702 71,24 h 119 l 48,-24 24,-24 23,-48 v -47 l -23,-48 -24,-24 -48,-23 -95,-24 -48,-24 -23,-24 -24,-48 v -47 l 24,-48 23,-24 48,-23 h 119 l 71,23"
             id="path182" />
          <path
             d="m 67928,40226 119,500 95,-358 96,358 119,-500"
             id="path184" />
          <path
             d="m 68428,40773 h 381"
             id="path186" />
          <path
             d="m 68928,40726 v -500 h 191 l 47,23 24,24 24,48 v 71 l -24,48 -24,24 -47,24 h -191"
             id="path188" />
          <path
             d="m 69642,40392 v 334"
             id="path190" />
          <path
             d="m 69428,40392 v 262 l 24,48 48,24 h 71 l 48,-24 23,-24"
             id="path192" />
          <path
             d="m 69857,40702 47,24 h 96 l 47,-24 24,-48 v -24 l -24,-47 -47,-24 h -72 l -48,-24 -23,-47 v -24 l 23,-48 48,-24 h 72 l 47,24"
             id="path194" />
          <path
             d="m 70285,40726 v -500"
             id="path196" />
          <path
             d="m 70500,40726 v -262 l -24,-48 -48,-24 h -71 l -48,24 -24,24"
             id="path198" />
        </g>
      </g>
    </g>
    <g
       style="fill:#006464;fill-opacity:0;stroke:#006464;stroke-width:60;stroke-linecap:round;stroke-linejoin:round;stroke-opacity:1"
       id="g226">
      <g
         id="g206" />
      <g
         style="fill:#840000;fill-opacity:0;stroke:#840000;stroke-width:60;stroke-linecap:round;stroke-linejoin:round;stroke-opacity:1"
         id="g210">
        <path
           style="fill:none;fill-opacity:0;stroke:#840000;stroke-width:60;stroke-linecap:round;stroke-linejoin:round;stroke-opacity:1"
           d="m 75000,40500 v 500 h 500 l -500,500 -500,-500 h 500"
           id="path208" />
      </g>
      <g
         style="fill:#006464;fill-opacity:0;stroke:#006464;stroke-width:60;stroke-linecap:round;stroke-linejoin:round;stroke-opacity:1"
         id="g224">
        <text
           x="75000"
           y="42749.961"
           textLength="1583.8188"
           font-size="666.654px"
           lengthAdjust="spacingAndGlyphs"
           text-anchor="middle"
           opacity="0"
           id="text212">GND</text>
        <g
           class="stroked-text"
           id="g222">
          <desc
             id="desc214">GND</desc>
          <path
             d="m 74619,42249 -48,-23 h -71 l -72,23 -48,48 -23,48 -24,95 v 71 l 24,96 23,47 48,48 72,24 h 47 l 72,-24 23,-24 v -167 h -95"
             id="path216" />
          <path
             d="m 74857,42726 v -500 l 285,500 v -500"
             id="path218" />
          <path
             d="m 75380,42726 v -500 h 120 l 71,23 48,48 23,48 24,95 v 71 l -24,96 -23,47 -48,48 -71,24 h -120"
             id="path220" />
        </g>
      </g>
    </g>
    <g
       style="fill:#006464;fill-opacity:0;stroke:#006464;stroke-width:60;stroke-linecap:round;stroke-linejoin:round;stroke-opacity:1"
       id="g628">
      <g
         id="g228" />
      <g
         style="fill:#840000;fill-opacity:0;stroke:#840000;stroke-width:60;stroke-linecap:round;stroke-linejoin:round;stroke-opacity:1"
         id="g230" />
      <g
         style="fill:#ffffc2;fill-opacity:0;stroke:#ffffc2;stroke-width:60;stroke-linecap:round;stroke-linejoin:round;stroke-opacity:1"
         id="g232" />
      <g
         style="fill:#ffffc2;fill-opacity:0.6;stroke:#ffffc2;stroke-width:0.03937;stroke-linecap:round;stroke-linejoin:round;stroke-opacity:1"
         id="g236">
        <rect
           x="51000"
           y="33500"
           width="10000"
           height="10000"
           rx="0.000000"
           id="rect234" />
      </g>
      <g
         style="fill:#840000;fill-opacity:0.6;stroke:#840000;stroke-width:0.03937;stroke-linecap:round;stroke-linejoin:round;stroke-opacity:1"
         id="g238" />
      <g
         style="fill:#840000;fill-opacity:0;stroke:#840000;stroke-width:100;stroke-linecap:round;stroke-linejoin:round;stroke-opacity:1"
         id="g244">
        <rect
           x="51000"
           y="33500"
           width="10000"
           height="10000"
           rx="0.000000"
           id="rect240" />
        <rect
           x="51000"
           y="33500"
           width="10000"
           height="10000"
           rx="0.000000"
           id="rect242" />
      </g>
      <g
         style="fill:#840000;fill-opacity:0;stroke:#840000;stroke-width:60;stroke-linecap:round;stroke-linejoin:round;stroke-opacity:1"
         id="g248">
        <path
           d="m 61000,40500 h 1000"
           id="path246" />
      </g>
      <g
         style="fill:#006464;fill-opacity:0;stroke:#006464;stroke-width:60;stroke-linecap:round;stroke-linejoin:round;stroke-opacity:1"
         id="g292">
        <text
           x="60800"
           y="40750"
           textLength="4321.8896"
           font-size="666.654px"
           lengthAdjust="spacingAndGlyphs"
           text-anchor="end"
           opacity="0"
           id="text250">~{RESET}/PB5</text>
        <g
           class="stroked-text"
           id="g290">
          <desc
             id="desc252">~{RESET}/PB5</desc>
          <path
             d="m 56508,40085 h 500"
             id="path254" />
          <path
             d="m 56912,40726 -166,-238"
             id="path256" />
          <path
             d="m 56627,40726 v -500 h 190 l 48,24 24,23 23,48 v 71 l -23,48 -24,24 -48,24 h -190"
             id="path258" />
          <path
             d="m 57008,40085 h 452"
             id="path260" />
          <path
             d="m 57127,40464 h 166"
             id="path262" />
          <path
             d="m 57365,40726 h -238 v -500 h 238"
             id="path264" />
          <path
             d="m 57460,40085 h 476"
             id="path266" />
          <path
             d="m 57555,40702 72,24 h 119 l 47,-24 24,-24 24,-48 v -47 l -24,-48 -24,-24 -47,-23 -96,-24 -47,-24 -24,-24 -24,-47 v -48 l 24,-48 24,-23 47,-24 h 120 l 71,24"
             id="path268" />
          <path
             d="m 57936,40085 h 453"
             id="path270" />
          <path
             d="m 58055,40464 h 167"
             id="path272" />
          <path
             d="m 58293,40726 h -238 v -500 h 238"
             id="path274" />
          <path
             d="m 58389,40085 h 381"
             id="path276" />
          <path
             d="m 58436,40226 h 286"
             id="path278" />
          <path
             d="m 58579,40726 v -500"
             id="path280" />
          <path
             d="m 59246,40202 -429,643"
             id="path282" />
          <path
             d="m 59412,40726 v -500 h 191 l 47,24 24,23 24,48 v 71 l -24,48 -24,24 -47,24 h -191"
             id="path284" />
          <path
             d="m 60079,40464 71,24 24,23 24,48 v 71 l -24,48 -24,24 -47,24 h -191 v -500 h 167 l 48,24 23,23 24,48 v 48 l -24,47 -23,24 -48,24 h -167"
             id="path286" />
          <path
             d="m 60650,40226 h -238 l -23,238 23,-24 48,-24 h 119 l 48,24 23,24 24,47 v 119 l -24,48 -23,24 -48,24 h -119 l -48,-24 -23,-24"
             id="path288" />
        </g>
      </g>
      <g
         style="fill:#a90000;fill-opacity:0;stroke:#a90000;stroke-width:60;stroke-linecap:round;stroke-linejoin:round;stroke-opacity:1"
         id="g304">
        <text
           x="61500"
           y="40400"
           textLength="536.18109"
           font-size="666.654px"
           lengthAdjust="spacingAndGlyphs"
           text-anchor="middle"
           opacity="0"
           id="text294">1</text>
        <g
           class="stroked-text"
           id="g302">
          <desc
             id="desc296">1</desc>
          <path
             d="m 61642,40376 h -285"
             id="path298" />
          <path
             d="m 61500,40376 v -500 l -48,71 -48,48 -47,24"
             id="path300" />
        </g>
      </g>
      <g
         style="fill:#840000;fill-opacity:0;stroke:#840000;stroke-width:60;stroke-linecap:round;stroke-linejoin:round;stroke-opacity:1"
         id="g308">
        <path
           d="m 61000,38500 h 1000"
           id="path306" />
      </g>
      <g
         style="fill:#006464;fill-opacity:0;stroke:#006464;stroke-width:60;stroke-linecap:round;stroke-linejoin:round;stroke-opacity:1"
         id="g342">
        <text
           x="60800"
           y="38750"
           textLength="4226.6533"
           font-size="666.654px"
           lengthAdjust="spacingAndGlyphs"
           text-anchor="end"
           opacity="0"
           id="text310">XTAL1/PB3</text>
        <g
           class="stroked-text"
           id="g340">
          <desc
             id="desc312">XTAL1/PB3</desc>
          <path
             d="m 56674,38226 334,500"
             id="path314" />
          <path
             d="m 57008,38226 -334,500"
             id="path316" />
          <path
             d="m 57127,38226 h 285"
             id="path318" />
          <path
             d="m 57270,38726 v -500"
             id="path320" />
          <path
             d="m 57555,38583 h 238"
             id="path322" />
          <path
             d="m 57508,38726 166,-500 167,500"
             id="path324" />
          <path
             d="m 58246,38726 h -238 v -500"
             id="path326" />
          <path
             d="m 58674,38726 h -285"
             id="path328" />
          <path
             d="m 58531,38726 v -500 l -47,71 -48,48 -47,24"
             id="path330" />
          <path
             d="m 59246,38202 -429,643"
             id="path332" />
          <path
             d="m 59412,38726 v -500 h 191 l 47,24 24,23 24,48 v 71 l -24,48 -24,24 -47,24 h -191"
             id="path334" />
          <path
             d="m 60079,38464 71,24 24,23 24,48 v 71 l -24,48 -24,24 -47,24 h -191 v -500 h 167 l 48,24 23,23 24,48 v 48 l -24,47 -23,24 -48,24 h -167"
             id="path336" />
          <path
             d="m 60365,38226 h 309 l -166,190 h 71 l 48,24 23,24 24,47 v 119 l -24,48 -23,24 -48,24 h -143 l -47,-24 -24,-24"
             id="path338" />
        </g>
      </g>
      <g
         style="fill:#a90000;fill-opacity:0;stroke:#a90000;stroke-width:60;stroke-linecap:round;stroke-linejoin:round;stroke-opacity:1"
         id="g352">
        <text
           x="61500"
           y="38400"
           textLength="536.18109"
           font-size="666.654px"
           lengthAdjust="spacingAndGlyphs"
           text-anchor="middle"
           opacity="0"
           id="text344">2</text>
        <g
           class="stroked-text"
           id="g350">
          <desc
             id="desc346">2</desc>
          <path
             d="m 61357,37923 23,-23 48,-24 h 119 l 48,24 24,23 23,48 v 48 l -23,71 -286,286 h 309"
             id="path348" />
        </g>
      </g>
      <g
         style="fill:#840000;fill-opacity:0;stroke:#840000;stroke-width:60;stroke-linecap:round;stroke-linejoin:round;stroke-opacity:1"
         id="g356">
        <path
           d="m 61000,39500 h 1000"
           id="path354" />
      </g>
      <g
         style="fill:#006464;fill-opacity:0;stroke:#006464;stroke-width:60;stroke-linecap:round;stroke-linejoin:round;stroke-opacity:1"
         id="g390">
        <text
           x="60800"
           y="39750"
           textLength="4226.6533"
           font-size="666.654px"
           lengthAdjust="spacingAndGlyphs"
           text-anchor="end"
           opacity="0"
           id="text358">XTAL2/PB4</text>
        <g
           class="stroked-text"
           id="g388">
          <desc
             id="desc360">XTAL2/PB4</desc>
          <path
             d="m 56674,39226 334,500"
             id="path362" />
          <path
             d="m 57008,39226 -334,500"
             id="path364" />
          <path
             d="m 57127,39226 h 285"
             id="path366" />
          <path
             d="m 57270,39726 v -500"
             id="path368" />
          <path
             d="m 57555,39583 h 238"
             id="path370" />
          <path
             d="m 57508,39726 166,-500 167,500"
             id="path372" />
          <path
             d="m 58246,39726 h -238 v -500"
             id="path374" />
          <path
             d="m 58389,39273 23,-23 48,-24 h 119 l 48,24 23,23 24,48 v 48 l -24,71 -285,286 h 309"
             id="path376" />
          <path
             d="m 59246,39202 -429,643"
             id="path378" />
          <path
             d="m 59412,39726 v -500 h 191 l 47,24 24,23 24,48 v 71 l -24,48 -24,24 -47,24 h -191"
             id="path380" />
          <path
             d="m 60079,39464 71,24 24,23 24,48 v 71 l -24,48 -24,24 -47,24 h -191 v -500 h 167 l 48,24 23,23 24,48 v 48 l -24,47 -23,24 -48,24 h -167"
             id="path382" />
          <path
             d="m 60627,39392 v 334"
             id="path384" />
          <path
             d="m 60508,39202 -119,357 h 309"
             id="path386" />
        </g>
      </g>
      <g
         style="fill:#a90000;fill-opacity:0;stroke:#a90000;stroke-width:60;stroke-linecap:round;stroke-linejoin:round;stroke-opacity:1"
         id="g400">
        <text
           x="61500"
           y="39400"
           textLength="536.18109"
           font-size="666.654px"
           lengthAdjust="spacingAndGlyphs"
           text-anchor="middle"
           opacity="0"
           id="text392">3</text>
        <g
           class="stroked-text"
           id="g398">
          <desc
             id="desc394">3</desc>
          <path
             d="m 61333,38876 h 309 l -166,190 h 71 l 48,24 24,24 23,47 v 119 l -23,48 -24,24 -48,24 h -143 l -47,-24 -24,-24"
             id="path396" />
        </g>
      </g>
      <g
         style="fill:#840000;fill-opacity:0;stroke:#840000;stroke-width:60;stroke-linecap:round;stroke-linejoin:round;stroke-opacity:1"
         id="g404">
        <path
           d="m 56000,43500 v 1000"
           id="path402" />
      </g>
      <g
         style="fill:#006464;fill-opacity:0;stroke:#006464;stroke-width:60;stroke-linecap:round;stroke-linejoin:round;stroke-opacity:1"
         id="g420">
        <g
           transform="rotate(-90,56000,43300)"
           id="g408">
          <text
             x="56000"
             y="43550"
             textLength="1583.8188"
             font-size="666.654px"
             lengthAdjust="spacingAndGlyphs"
             text-anchor="start"
             opacity="0"
             id="text406">GND</text>
        </g>
        <g
           class="stroked-text"
           id="g418">
          <desc
             id="desc410">GND</desc>
          <path
             d="m 55750,42889 -24,47 v 72 l 24,71 47,48 48,23 95,24 h 71 l 96,-24 47,-23 48,-48 24,-71 v -48 l -24,-71 -24,-24 h -167 v 95"
             id="path412" />
          <path
             d="m 56226,42650 h -500 l 500,-285 h -500"
             id="path414" />
          <path
             d="m 56226,42127 h -500 v -119 l 24,-72 47,-47 48,-24 95,-24 h 71 l 96,24 47,24 48,47 24,72 v 119"
             id="path416" />
        </g>
      </g>
      <g
         style="fill:#a90000;fill-opacity:0;stroke:#a90000;stroke-width:60;stroke-linecap:round;stroke-linejoin:round;stroke-opacity:1"
         id="g434">
        <g
           transform="rotate(-90,55900,44000)"
           id="g424">
          <text
             x="55900"
             y="44000"
             textLength="536.18109"
             font-size="666.654px"
             lengthAdjust="spacingAndGlyphs"
             text-anchor="middle"
             opacity="0"
             id="text422">4</text>
        </g>
        <g
           class="stroked-text"
           id="g432">
          <desc
             id="desc426">4</desc>
          <path
             d="m 55542,43904 h 334"
             id="path428" />
          <path
             d="m 55352,44023 357,119 v -309"
             id="path430" />
        </g>
      </g>
      <g
         style="fill:#840000;fill-opacity:0;stroke:#840000;stroke-width:60;stroke-linecap:round;stroke-linejoin:round;stroke-opacity:1"
         id="g438">
        <path
           d="m 61000,35500 h 1000"
           id="path436" />
      </g>
      <g
         style="fill:#006464;fill-opacity:0;stroke:#006464;stroke-width:60;stroke-linecap:round;stroke-linejoin:round;stroke-opacity:1"
         id="g470">
        <text
           x="60800"
           y="35750"
           textLength="3869.5276"
           font-size="666.654px"
           lengthAdjust="spacingAndGlyphs"
           text-anchor="end"
           opacity="0"
           id="text440">AREF/PB0</text>
        <g
           class="stroked-text"
           id="g468">
          <desc
             id="desc442">AREF/PB0</desc>
          <path
             d="m 57055,35583 h 238"
             id="path444" />
          <path
             d="m 57008,35726 166,-500 167,500"
             id="path446" />
          <path
             d="m 57793,35726 -166,-238"
             id="path448" />
          <path
             d="m 57508,35726 v -500 h 190 l 48,24 24,23 23,48 v 71 l -23,48 -24,24 -48,24 h -190"
             id="path450" />
          <path
             d="m 58008,35464 h 166"
             id="path452" />
          <path
             d="m 58246,35726 h -238 v -500 h 238"
             id="path454" />
          <path
             d="m 58627,35464 h -167"
             id="path456" />
          <path
             d="m 58460,35726 v -500 h 238"
             id="path458" />
          <path
             d="m 59246,35202 -429,643"
             id="path460" />
          <path
             d="m 59412,35726 v -500 h 191 l 47,24 24,23 24,48 v 71 l -24,48 -24,24 -47,24 h -191"
             id="path462" />
          <path
             d="m 60079,35464 71,24 24,23 24,48 v 71 l -24,48 -24,24 -47,24 h -191 v -500 h 167 l 48,24 23,23 24,48 v 48 l -24,47 -23,24 -48,24 h -167"
             id="path464" />
          <path
             d="m 60508,35226 h 47 l 48,24 24,23 23,48 24,95 v 119 l -24,95 -23,48 -24,24 -48,24 h -47 l -48,-24 -24,-24 -24,-48 -23,-95 v -119 l 23,-95 24,-48 24,-23 48,-24"
             id="path466" />
        </g>
      </g>
      <g
         style="fill:#a90000;fill-opacity:0;stroke:#a90000;stroke-width:60;stroke-linecap:round;stroke-linejoin:round;stroke-opacity:1"
         id="g480">
        <text
           x="61500"
           y="35400"
           textLength="536.18109"
           font-size="666.654px"
           lengthAdjust="spacingAndGlyphs"
           text-anchor="middle"
           opacity="0"
           id="text472">5</text>
        <g
           class="stroked-text"
           id="g478">
          <desc
             id="desc474">5</desc>
          <path
             d="m 61619,34876 h -239 l -23,238 23,-24 48,-24 h 119 l 48,24 24,24 23,47 v 119 l -23,48 -24,24 -48,24 h -119 l -48,-24 -23,-24"
             id="path476" />
        </g>
      </g>
      <g
         style="fill:#840000;fill-opacity:0;stroke:#840000;stroke-width:60;stroke-linecap:round;stroke-linejoin:round;stroke-opacity:1"
         id="g484">
        <path
           d="m 61000,36500 h 1000"
           id="path482" />
      </g>
      <g
         style="fill:#006464;fill-opacity:0;stroke:#006464;stroke-width:60;stroke-linecap:round;stroke-linejoin:round;stroke-opacity:1"
         id="g500">
        <text
           x="60800"
           y="36750"
           textLength="1536.1812"
           font-size="666.654px"
           lengthAdjust="spacingAndGlyphs"
           text-anchor="end"
           opacity="0"
           id="text486">PB1</text>
        <g
           class="stroked-text"
           id="g498">
          <desc
             id="desc488">PB1</desc>
          <path
             d="m 59412,36726 v -500 h 191 l 47,24 24,23 24,48 v 71 l -24,48 -24,24 -47,24 h -191"
             id="path490" />
          <path
             d="m 60079,36464 71,24 24,23 24,48 v 71 l -24,48 -24,24 -47,24 h -191 v -500 h 167 l 48,24 23,23 24,48 v 48 l -24,47 -23,24 -48,24 h -167"
             id="path492" />
          <path
             d="m 60674,36726 h -285"
             id="path494" />
          <path
             d="m 60531,36726 v -500 l -47,71 -48,48 -47,24"
             id="path496" />
        </g>
      </g>
      <g
         style="fill:#a90000;fill-opacity:0;stroke:#a90000;stroke-width:60;stroke-linecap:round;stroke-linejoin:round;stroke-opacity:1"
         id="g510">
        <text
           x="61500"
           y="36400"
           textLength="536.18109"
           font-size="666.654px"
           lengthAdjust="spacingAndGlyphs"
           text-anchor="middle"
           opacity="0"
           id="text502">6</text>
        <g
           class="stroked-text"
           id="g508">
          <desc
             id="desc504">6</desc>
          <path
             d="m 61595,35876 h -95 l -48,24 -24,23 -48,72 -23,95 v 190 l 23,48 24,24 48,24 h 95 l 48,-24 24,-24 23,-48 v -119 l -23,-47 -24,-24 -48,-24 h -95 l -48,24 -24,24 -23,47"
             id="path506" />
        </g>
      </g>
      <g
         style="fill:#840000;fill-opacity:0;stroke:#840000;stroke-width:60;stroke-linecap:round;stroke-linejoin:round;stroke-opacity:1"
         id="g514">
        <path
           d="m 61000,37500 h 1000"
           id="path512" />
      </g>
      <g
         style="fill:#006464;fill-opacity:0;stroke:#006464;stroke-width:60;stroke-linecap:round;stroke-linejoin:round;stroke-opacity:1"
         id="g528">
        <text
           x="60800"
           y="37750"
           textLength="1536.1812"
           font-size="666.654px"
           lengthAdjust="spacingAndGlyphs"
           text-anchor="end"
           opacity="0"
           id="text516">PB2</text>
        <g
           class="stroked-text"
           id="g526">
          <desc
             id="desc518">PB2</desc>
          <path
             d="m 59412,37726 v -500 h 191 l 47,24 24,23 24,48 v 71 l -24,48 -24,24 -47,24 h -191"
             id="path520" />
          <path
             d="m 60079,37464 71,24 24,23 24,48 v 71 l -24,48 -24,24 -47,24 h -191 v -500 h 167 l 48,24 23,23 24,48 v 48 l -24,47 -23,24 -48,24 h -167"
             id="path522" />
          <path
             d="m 60389,37273 23,-23 48,-24 h 119 l 48,24 23,23 24,48 v 48 l -24,71 -285,286 h 309"
             id="path524" />
        </g>
      </g>
      <g
         style="fill:#a90000;fill-opacity:0;stroke:#a90000;stroke-width:60;stroke-linecap:round;stroke-linejoin:round;stroke-opacity:1"
         id="g538">
        <text
           x="61500"
           y="37400"
           textLength="536.18109"
           font-size="666.654px"
           lengthAdjust="spacingAndGlyphs"
           text-anchor="middle"
           opacity="0"
           id="text530">7</text>
        <g
           class="stroked-text"
           id="g536">
          <desc
             id="desc532">7</desc>
          <path
             d="m 61333,36876 h 333 l -214,500"
             id="path534" />
        </g>
      </g>
      <g
         style="fill:#840000;fill-opacity:0;stroke:#840000;stroke-width:60;stroke-linecap:round;stroke-linejoin:round;stroke-opacity:1"
         id="g542">
        <path
           d="M 56000,33500 V 32500"
           id="path540" />
      </g>
      <g
         style="fill:#006464;fill-opacity:0;stroke:#006464;stroke-width:60;stroke-linecap:round;stroke-linejoin:round;stroke-opacity:1"
         id="g558">
        <g
           transform="rotate(-90,56000,33700)"
           id="g546">
          <text
             x="56000"
             y="33950"
             textLength="1488.5826"
             font-size="666.654px"
             lengthAdjust="spacingAndGlyphs"
             text-anchor="end"
             opacity="0"
             id="text544">VCC</text>
        </g>
        <g
           class="stroked-text"
           id="g556">
          <desc
             id="desc548">VCC</desc>
          <path
             d="m 55726,35110 500,-166 -500,-167"
             id="path550" />
          <path
             d="m 56178,34325 24,24 24,71 v 48 l -24,71 -48,48 -47,23 -96,24 h -71 l -95,-24 -48,-23 -47,-48 -24,-71 v -48 l 24,-71 23,-24"
             id="path552" />
          <path
             d="m 56178,33825 24,24 24,71 v 48 l -24,71 -48,48 -47,23 -96,24 h -71 l -95,-24 -48,-23 -47,-48 -24,-71 v -48 l 24,-71 23,-24"
             id="path554" />
        </g>
      </g>
      <g
         style="fill:#a90000;fill-opacity:0;stroke:#a90000;stroke-width:60;stroke-linecap:round;stroke-linejoin:round;stroke-opacity:1"
         id="g570">
        <g
           transform="rotate(-90,55900,33000)"
           id="g562">
          <text
             x="55900"
             y="33000"
             textLength="536.18109"
             font-size="666.654px"
             lengthAdjust="spacingAndGlyphs"
             text-anchor="middle"
             opacity="0"
             id="text560">8</text>
        </g>
        <g
           class="stroked-text"
           id="g568">
          <desc
             id="desc564">8</desc>
          <path
             d="m 55590,33047 -24,48 -24,24 -47,23 h -24 l -48,-23 -23,-24 -24,-48 v -95 l 24,-48 23,-24 48,-23 h 24 l 47,23 24,24 24,48 v 95 l 24,48 24,24 47,23 h 95 l 48,-23 24,-24 24,-48 v -95 l -24,-48 -24,-24 -48,-23 h -95 l -47,23 -24,24 -24,48"
             id="path566" />
        </g>
      </g>
      <g
         style="fill:#006464;fill-opacity:0;stroke:#006464;stroke-width:60;stroke-linecap:round;stroke-linejoin:round;stroke-opacity:1"
         id="g626">
        <text
           x="49968.738"
           y="38249.922"
           textLength="1060"
           font-size="666.654px"
           lengthAdjust="spacingAndGlyphs"
           text-anchor="middle"
           opacity="0"
           id="text572">U1</text>
        <g
           class="stroked-text"
           id="g582">
          <desc
             id="desc574">U1</desc>
          <path
             d="m 49587,37726 v 404 l 24,48 24,24 47,24 h 96 l 47,-24 24,-24 24,-48 v -404"
             id="path576" />
          <path
             d="m 50373,38226 h -286"
             id="path578" />
          <path
             d="m 50230,38226 v -500 l -48,71 -47,48 -48,23"
             id="path580" />
        </g>
        <text
           x="47873.504"
           y="39249.922"
           textLength="5250.4727"
           font-size="666.654px"
           lengthAdjust="spacingAndGlyphs"
           text-anchor="middle"
           opacity="0"
           id="text584">ATtiny85-20P</text>
        <g
           class="stroked-text"
           id="g624">
          <desc
             id="desc586">ATtiny85-20P</desc>
          <path
             d="m 45373,39083 h 238"
             id="path588" />
          <path
             d="m 45325,39226 167,-500 167,500"
             id="path590" />
          <path
             d="m 45754,38726 h 286"
             id="path592" />
          <path
             d="m 45897,39226 v -500"
             id="path594" />
          <path
             d="m 46135,38892 h 190"
             id="path596" />
          <path
             d="m 46206,38726 v 428 l 24,48 48,24 h 47"
             id="path598" />
          <path
             d="m 46492,39226 v -334"
             id="path600" />
          <path
             d="m 46492,38726 -24,23 24,24 24,-24 -24,-23 v 47"
             id="path602" />
          <path
             d="m 46730,38892 v 334"
             id="path604" />
          <path
             d="m 46730,38940 24,-24 48,-24 h 71 l 48,24 23,48 v 262"
             id="path606" />
          <path
             d="m 47135,38892 119,334"
             id="path608" />
          <path
             d="m 47373,38892 -119,334 -48,119 -24,23 -47,24"
             id="path610" />
          <path
             d="m 47635,38940 -48,-24 -24,-24 -23,-47 v -24 l 23,-48 24,-24 48,-23 h 95 l 48,23 24,24 23,48 v 24 l -23,47 -24,24 -48,24 h -95 l -48,24 -24,23 -23,48 v 95 l 23,48 24,24 48,24 h 95 l 48,-24 24,-24 23,-48 v -95 l -23,-48 -24,-23 -48,-24"
             id="path612" />
          <path
             d="m 48278,38726 h -238 l -24,238 24,-24 47,-24 h 119 l 48,24 24,24 24,47 v 119 l -24,48 -24,24 -48,24 h -119 l -47,-24 -24,-24"
             id="path614" />
          <path
             d="m 48516,39035 h 381"
             id="path616" />
          <path
             d="m 49111,38773 24,-24 47,-23 h 120 l 47,23 24,24 24,48 v 47 l -24,72 -286,286 h 310"
             id="path618" />
          <path
             d="m 49706,38726 h 48 l 48,23 23,24 24,48 24,95 v 119 l -24,95 -24,48 -23,24 -48,24 h -48 l -47,-24 -24,-24 -24,-48 -24,-95 v -119 l 24,-95 24,-48 24,-24 47,-23"
             id="path620" />
          <path
             d="m 50087,39226 v -500 h 191 l 47,23 24,24 24,48 v 71 l -24,48 -24,24 -47,23 h -191"
             id="path622" />
        </g>
      </g>
    </g>
    <g
       style="fill:#006464;fill-opacity:0;stroke:#006464;stroke-width:60;stroke-linecap:round;stroke-linejoin:round;stroke-opacity:1"
       id="g650">
      <g
         id="g630" />
      <g
         style="fill:#840000;fill-opacity:0;stroke:#840000;stroke-width:60;stroke-linecap:round;stroke-linejoin:round;stroke-opacity:1"
         id="g634">
        <path
           style="fill:none;fill-opacity:0;stroke:#840000;stroke-width:60;stroke-linecap:round;stroke-linejoin:round;stroke-opacity:1"
           d="m 56000,46000 v 500 h 500 l -500,500 -500,-500 h 500"
           id="path632" />
      </g>
      <g
         style="fill:#006464;fill-opacity:0;stroke:#006464;stroke-width:60;stroke-linecap:round;stroke-linejoin:round;stroke-opacity:1"
         id="g648">
        <text
           x="56000"
           y="48249.961"
           textLength="1583.8188"
           font-size="666.654px"
           lengthAdjust="spacingAndGlyphs"
           text-anchor="middle"
           opacity="0"
           id="text636">GND</text>
        <g
           class="stroked-text"
           id="g646">
          <desc
             id="desc638">GND</desc>
          <path
             d="m 55619,47749 -48,-23 h -71 l -72,23 -48,48 -23,48 -24,95 v 71 l 24,96 23,47 48,48 72,24 h 47 l 72,-24 23,-24 v -167 h -95"
             id="path640" />
          <path
             d="m 55857,48226 v -500 l 285,500 v -500"
             id="path642" />
          <path
             d="m 56380,48226 v -500 h 120 l 71,23 48,48 23,48 24,95 v 71 l -24,96 -23,47 -48,48 -71,24 h -120"
             id="path644" />
        </g>
      </g>
    </g>
    <g
       style="fill:#009600;fill-opacity:0;stroke:#009600;stroke-width:60;stroke-linecap:round;stroke-linejoin:round;stroke-opacity:1"
       id="g672">
      <path
         d="m 56000,31000 v 1500"
         id="path654" />
      <path
         d="m 62000,36500 h 3000"
         id="path656" />
      <path
         d="m 62000,38500 h 5000"
         id="path658" />
      <path
         d="m 68000,36500 h 1500"
         id="path660" />
      <path
         d="m 71000,38500 h 4000"
         id="path662" />
      <path
         d="m 72500,36500 h 2500"
         id="path664" />
      <path
         d="m 75000,38500 v 2000"
         id="path666" />
      <path
         d="m 75000,36500 v 2000"
         id="path668" />
      <path
         d="m 56000,44500 v 1500"
         id="path670" />
    </g>
    <g
       style="fill:#000084;fill-opacity:0;stroke:#000084;stroke-width:60;stroke-linecap:round;stroke-linejoin:round;stroke-opacity:1"
       id="g690">
      <path
         d="m 61760,35260 480,480"
         id="path674" />
      <path
         d="m 62240,35260 -480,480"
         id="path676" />
      <path
         d="m 61760,37260 480,480"
         id="path678" />
      <path
         d="m 62240,37260 -480,480"
         id="path680" />
      <path
         d="m 61760,39260 480,480"
         id="path682" />
      <path
         d="m 62240,39260 -480,480"
         id="path684" />
      <path
         d="m 61760,40260 480,480"
         id="path686" />
      <path
         d="m 62240,40260 -480,480"
         id="path688" />
    </g>
    <g
       style="fill:#009600;fill-opacity:1;stroke:#009600;stroke-width:60;stroke-linecap:round;stroke-linejoin:round;stroke-opacity:1"
       id="g696">
      <circle
         cx="75000"
         cy="38500"
         r="180"
         id="circle694" />
    </g>
  </g>
  <metadata
     id="metadata1327">
    <rdf:RDF>
      <cc:Work
         rdf:about="">
        <dc:title>SVG Picture created as avr-input-output.svg date 2022/08/11 06:55:21 </dc:title>
      </cc:Work>
    </rdf:RDF>
  </metadata>
</svg>
