<?xml version="1.0" standalone="no"?>
 <!DOCTYPE svg PUBLIC "-//W3C//DTD SVG 1.1//EN" 
 "http://www.w3.org/Graphics/SVG/1.1/DTD/svg11.dtd"> 
<svg
  xmlns:svg="http://www.w3.org/2000/svg"
  xmlns="http://www.w3.org/2000/svg"
  xmlns:xlink="http://www.w3.org/1999/xlink"
  version="1.1"
  width="29.700220cm" height="21.000720cm" viewBox="0 0 116930 82680">
<title>SVG Picture created as latching-power-switch.svg date 2022/07/18 16:07:36 </title>
  <desc>Picture generated by Eeschema-SVG </desc>
<g style="fill:#000000; fill-opacity:1.000000;stroke:#000000; stroke-opacity:1.000000;
stroke-linecap:round; stroke-linejoin:round;"
 transform="translate(0 0) scale(1 1)">
</g>
<g style="fill:#840000; fill-opacity:0.0; 
stroke:#840000; stroke-width:0.000000; stroke-opacity:1; 
stroke-linecap:round; stroke-linejoin:round;">
</g>
<g style="fill:#840000; fill-opacity:0.0; 
stroke:#840000; stroke-width:60.000000; stroke-opacity:1; 
stroke-linecap:round; stroke-linejoin:round;">
<rect x="69685.905512" y="65357.165354" width="42519.685039" height="12598.425197" rx="0.000000" />
<rect x="3937.007874" y="3937.007874" width="109055.984252" height="74805.984252" rx="0.000000" />
<rect x="4724.409449" y="4724.409449" width="107481.181102" height="73231.181102" rx="0.000000" />
<path d="M23622 4724
L23622 3937
" />
<path d="M43307 4724
L43307 3937
" />
<path d="M62992 4724
L62992 3937
" />
<path d="M82677 4724
L82677 3937
" />
<path d="M102362 4724
L102362 3937
" />
<text x="13779.527559" y="4586.614173"
textLength="549.960630" font-size="682.401575" lengthAdjust="spacingAndGlyphs"
text-anchor="start" opacity="0">1</text>
<g class="stroked-text"><desc>1</desc>
<path d="M14199 4562
L13907 4562
" />
<path d="M14053 4562
L14053 4050
L14004 4123
L13955 4172
L13907 4196
" />
</g><text x="33464.566929" y="4586.614173"
textLength="547.440945" font-size="682.401575" lengthAdjust="spacingAndGlyphs"
text-anchor="start" opacity="0">2</text>
<g class="stroked-text"><desc>2</desc>
<path d="M33592 4099
L33616 4074
L33665 4050
L33787 4050
L33835 4074
L33860 4099
L33884 4147
L33884 4196
L33860 4269
L33567 4562
L33884 4562
" />
</g><text x="53149.606299" y="4586.614173"
textLength="547.440945" font-size="682.401575" lengthAdjust="spacingAndGlyphs"
text-anchor="start" opacity="0">3</text>
<g class="stroked-text"><desc>3</desc>
<path d="M53252 4050
L53569 4050
L53398 4245
L53472 4245
L53520 4269
L53545 4294
L53569 4342
L53569 4464
L53545 4513
L53520 4537
L53472 4562
L53325 4562
L53277 4537
L53252 4513
" />
</g><text x="72834.645669" y="4586.614173"
textLength="547.440945" font-size="682.401575" lengthAdjust="spacingAndGlyphs"
text-anchor="start" opacity="0">4</text>
<g class="stroked-text"><desc>4</desc>
<path d="M73205 4221
L73205 4562
" />
<path d="M73083 4026
L72962 4391
L73278 4391
" />
</g><text x="92519.685039" y="4586.614173"
textLength="547.440945" font-size="682.401575" lengthAdjust="spacingAndGlyphs"
text-anchor="start" opacity="0">5</text>
<g class="stroked-text"><desc>5</desc>
<path d="M92915 4050
L92671 4050
L92647 4294
L92671 4269
L92720 4245
L92842 4245
L92890 4269
L92915 4294
L92939 4342
L92939 4464
L92915 4513
L92890 4537
L92842 4562
L92720 4562
L92671 4537
L92647 4513
" />
</g><text x="112204.724409" y="4586.614173"
textLength="547.440945" font-size="682.401575" lengthAdjust="spacingAndGlyphs"
text-anchor="start" opacity="0">6</text>
<g class="stroked-text"><desc>6</desc>
<path d="M112575 4050
L112478 4050
L112429 4074
L112405 4099
L112356 4172
L112332 4269
L112332 4464
L112356 4513
L112380 4537
L112429 4562
L112527 4562
L112575 4537
L112600 4513
L112624 4464
L112624 4342
L112600 4294
L112575 4269
L112527 4245
L112429 4245
L112380 4269
L112356 4294
L112332 4342
" />
</g><path d="M23622 77955
L23622 78742
" />
<path d="M43307 77955
L43307 78742
" />
<path d="M62992 77955
L62992 78742
" />
<path d="M82677 77955
L82677 78742
" />
<path d="M102362 77955
L102362 78742
" />
<text x="13779.527559" y="78605.196850"
textLength="547.440945" font-size="682.401575" lengthAdjust="spacingAndGlyphs"
text-anchor="start" opacity="0">1</text>
<g class="stroked-text"><desc>1</desc>
<path d="M14199 78580
L13907 78580
" />
<path d="M14053 78580
L14053 78068
L14004 78142
L13955 78190
L13907 78215
" />
</g><text x="33464.566929" y="78605.196850"
textLength="547.440945" font-size="682.401575" lengthAdjust="spacingAndGlyphs"
text-anchor="start" opacity="0">2</text>
<g class="stroked-text"><desc>2</desc>
<path d="M33592 78117
L33616 78093
L33665 78068
L33787 78068
L33835 78093
L33860 78117
L33884 78166
L33884 78215
L33860 78288
L33567 78580
L33884 78580
" />
</g><text x="53149.606299" y="78605.196850"
textLength="547.440945" font-size="682.401575" lengthAdjust="spacingAndGlyphs"
text-anchor="start" opacity="0">3</text>
<g class="stroked-text"><desc>3</desc>
<path d="M53252 78068
L53569 78068
L53398 78263
L53472 78263
L53520 78288
L53545 78312
L53569 78361
L53569 78483
L53545 78532
L53520 78556
L53472 78580
L53325 78580
L53277 78556
L53252 78532
" />
</g><text x="72834.645669" y="78605.196850"
textLength="547.440945" font-size="682.401575" lengthAdjust="spacingAndGlyphs"
text-anchor="start" opacity="0">4</text>
<g class="stroked-text"><desc>4</desc>
<path d="M73205 78239
L73205 78580
" />
<path d="M73083 78044
L72962 78410
L73278 78410
" />
</g><text x="92519.685039" y="78605.196850"
textLength="547.440945" font-size="682.401575" lengthAdjust="spacingAndGlyphs"
text-anchor="start" opacity="0">5</text>
<g class="stroked-text"><desc>5</desc>
<path d="M92915 78068
L92671 78068
L92647 78312
L92671 78288
L92720 78263
L92842 78263
L92890 78288
L92915 78312
L92939 78361
L92939 78483
L92915 78532
L92890 78556
L92842 78580
L92720 78580
L92671 78556
L92647 78532
" />
</g><text x="112204.724409" y="78605.196850"
textLength="547.440945" font-size="682.401575" lengthAdjust="spacingAndGlyphs"
text-anchor="start" opacity="0">6</text>
<g class="stroked-text"><desc>6</desc>
<path d="M112575 78068
L112478 78068
L112429 78093
L112405 78117
L112356 78190
L112332 78288
L112332 78483
L112356 78532
L112380 78556
L112429 78580
L112527 78580
L112575 78556
L112600 78532
L112624 78483
L112624 78361
L112600 78312
L112575 78288
L112527 78263
L112429 78263
L112380 78288
L112356 78312
L112332 78361
" />
</g><path d="M3937 23622
L4724 23622
" />
<path d="M3937 43307
L4724 43307
" />
<path d="M3937 62992
L4724 62992
" />
<text x="4330.708661" y="14035.433071"
textLength="498.700787" font-size="682.401575" lengthAdjust="spacingAndGlyphs"
text-anchor="middle" opacity="0">A</text>
<g class="stroked-text"><desc>A</desc>
<path d="M4208 13864
L4452 13864
" />
<path d="M4160 14011
L4330 13499
L4501 14011
" />
</g><text x="4330.708661" y="33720.472441"
textLength="571.811024" font-size="682.401575" lengthAdjust="spacingAndGlyphs"
text-anchor="middle" opacity="0">B</text>
<g class="stroked-text"><desc>B</desc>
<path d="M4367 33427
L4440 33452
L4464 33476
L4489 33525
L4489 33598
L4464 33647
L4440 33671
L4391 33696
L4196 33696
L4196 33184
L4367 33184
L4415 33208
L4440 33233
L4464 33281
L4464 33330
L4440 33379
L4415 33403
L4367 33427
L4196 33427
" />
</g><text x="4330.708661" y="53405.511811"
textLength="571.811024" font-size="682.401575" lengthAdjust="spacingAndGlyphs"
text-anchor="middle" opacity="0">C</text>
<g class="stroked-text"><desc>C</desc>
<path d="M4489 53332
L4464 53356
L4391 53381
L4342 53381
L4269 53356
L4221 53307
L4196 53259
L4172 53161
L4172 53088
L4196 52991
L4221 52942
L4269 52893
L4342 52869
L4391 52869
L4464 52893
L4489 52918
" />
</g><text x="4330.708661" y="73090.551181"
textLength="571.811024" font-size="682.401575" lengthAdjust="spacingAndGlyphs"
text-anchor="middle" opacity="0">D</text>
<g class="stroked-text"><desc>D</desc>
<path d="M4196 73066
L4196 72554
L4318 72554
L4391 72578
L4440 72627
L4464 72676
L4489 72773
L4489 72846
L4464 72944
L4440 72993
L4391 73041
L4318 73066
L4196 73066
" />
</g><path d="M112992 23622
L112205 23622
" />
<path d="M112992 43307
L112205 43307
" />
<path d="M112992 62992
L112205 62992
" />
<text x="112599.291339" y="14035.433071"
textLength="498.700787" font-size="682.401575" lengthAdjust="spacingAndGlyphs"
text-anchor="middle" opacity="0">A</text>
<g class="stroked-text"><desc>A</desc>
<path d="M112477 13864
L112721 13864
" />
<path d="M112428 14011
L112599 13499
L112769 14011
" />
</g><text x="112599.291339" y="33720.472441"
textLength="571.811024" font-size="682.401575" lengthAdjust="spacingAndGlyphs"
text-anchor="middle" opacity="0">B</text>
<g class="stroked-text"><desc>B</desc>
<path d="M112635 33427
L112708 33452
L112733 33476
L112757 33525
L112757 33598
L112733 33647
L112708 33671
L112660 33696
L112465 33696
L112465 33184
L112635 33184
L112684 33208
L112708 33233
L112733 33281
L112733 33330
L112708 33379
L112684 33403
L112635 33427
L112465 33427
" />
</g><text x="112599.291339" y="53405.511811"
textLength="571.811024" font-size="682.401575" lengthAdjust="spacingAndGlyphs"
text-anchor="middle" opacity="0">C</text>
<g class="stroked-text"><desc>C</desc>
<path d="M112757 53332
L112733 53356
L112660 53381
L112611 53381
L112538 53356
L112489 53307
L112465 53259
L112440 53161
L112440 53088
L112465 52991
L112489 52942
L112538 52893
L112611 52869
L112660 52869
L112733 52893
L112757 52918
" />
</g><text x="112599.291339" y="73090.551181"
textLength="571.811024" font-size="682.401575" lengthAdjust="spacingAndGlyphs"
text-anchor="middle" opacity="0">D</text>
<g class="stroked-text"><desc>D</desc>
<path d="M112465 73066
L112465 72554
L112587 72554
L112660 72578
L112708 72627
L112733 72676
L112757 72773
L112757 72846
L112733 72944
L112708 72993
L112660 73041
L112587 73066
L112465 73066
" />
</g><text x="78741.023622" y="76321.732283"
textLength="2759.645669" font-size="787.401575" lengthAdjust="spacingAndGlyphs"
text-anchor="start" opacity="0">Date: </text>
<g class="stroked-text"><desc>Date: </desc>
<path d="M78911 76293
L78911 75703
L79052 75703
L79136 75731
L79192 75787
L79220 75843
L79249 75956
L79249 76040
L79220 76152
L79192 76209
L79136 76265
L79052 76293
L78911 76293
" />
<path d="M79755 76293
L79755 75984
L79727 75928
L79670 75899
L79558 75899
L79502 75928
" />
<path d="M79755 76265
L79699 76293
L79558 76293
L79502 76265
L79474 76209
L79474 76152
L79502 76096
L79558 76068
L79699 76068
L79755 76040
" />
<path d="M79952 75899
L80177 75899
" />
<path d="M80036 75703
L80036 76209
L80064 76265
L80120 76293
L80177 76293
" />
<path d="M80598 76265
L80542 76293
L80430 76293
L80373 76265
L80345 76209
L80345 75984
L80373 75928
L80430 75899
L80542 75899
L80598 75928
L80627 75984
L80627 76040
L80345 76096
" />
<path d="M80880 76237
L80908 76265
L80880 76293
L80852 76265
L80880 76237
L80880 76293
" />
<path d="M80880 75928
L80908 75956
L80880 75984
L80852 75956
L80880 75928
L80880 75984
" />
</g><path d="M69685 76577
L112205 76577
" />
<text x="70079.606299" y="77424.094488"
textLength="11449.212598" font-size="787.401575" lengthAdjust="spacingAndGlyphs"
text-anchor="start" opacity="0">KiCad E.D.A.  kicad 6.0.6</text>
<g class="stroked-text"><desc>KiCad E.D.A.  kicad 6.0.6</desc>
<path d="M70250 77395
L70250 76805
" />
<path d="M70587 77395
L70334 77058
" />
<path d="M70587 76805
L70250 77142
" />
<path d="M70840 77395
L70840 77002
" />
<path d="M70840 76805
L70812 76833
L70840 76861
L70868 76833
L70840 76805
L70840 76861
" />
<path d="M71459 77339
L71431 77367
L71346 77395
L71290 77395
L71206 77367
L71150 77311
L71121 77255
L71093 77142
L71093 77058
L71121 76946
L71150 76889
L71206 76833
L71290 76805
L71346 76805
L71431 76833
L71459 76861
" />
<path d="M71965 77395
L71965 77086
L71937 77030
L71881 77002
L71768 77002
L71712 77030
" />
<path d="M71965 77367
L71909 77395
L71768 77395
L71712 77367
L71684 77311
L71684 77255
L71712 77199
L71768 77170
L71909 77170
L71965 77142
" />
<path d="M72499 77395
L72499 76805
" />
<path d="M72499 77367
L72443 77395
L72331 77395
L72274 77367
L72246 77339
L72218 77283
L72218 77114
L72246 77058
L72274 77030
L72331 77002
L72443 77002
L72499 77030
" />
<path d="M73231 77086
L73427 77086
" />
<path d="M73512 77395
L73231 77395
L73231 76805
L73512 76805
" />
<path d="M73765 77339
L73793 77367
L73765 77395
L73737 77367
L73765 77339
L73765 77395
" />
<path d="M74046 77395
L74046 76805
L74187 76805
L74271 76833
L74327 76889
L74355 76946
L74384 77058
L74384 77142
L74355 77255
L74327 77311
L74271 77367
L74187 77395
L74046 77395
" />
<path d="M74637 77339
L74665 77367
L74637 77395
L74609 77367
L74637 77339
L74637 77395
" />
<path d="M74890 77227
L75171 77227
" />
<path d="M74834 77395
L75030 76805
L75227 77395
" />
<path d="M75424 77339
L75452 77367
L75424 77395
L75396 77367
L75424 77339
L75424 77395
" />
<path d="M76605 77395
L76605 76805
" />
<path d="M76661 77170
L76830 77395
" />
<path d="M76830 77002
L76605 77227
" />
<path d="M77083 77395
L77083 77002
" />
<path d="M77083 76805
L77055 76833
L77083 76861
L77111 76833
L77083 76805
L77083 76861
" />
<path d="M77618 77367
L77561 77395
L77449 77395
L77393 77367
L77364 77339
L77336 77283
L77336 77114
L77364 77058
L77393 77030
L77449 77002
L77561 77002
L77618 77030
" />
<path d="M78124 77395
L78124 77086
L78096 77030
L78039 77002
L77927 77002
L77871 77030
" />
<path d="M78124 77367
L78067 77395
L77927 77395
L77871 77367
L77842 77311
L77842 77255
L77871 77199
L77927 77170
L78067 77170
L78124 77142
" />
<path d="M78658 77395
L78658 76805
" />
<path d="M78658 77367
L78602 77395
L78489 77395
L78433 77367
L78405 77339
L78377 77283
L78377 77114
L78405 77058
L78433 77030
L78489 77002
L78602 77002
L78658 77030
" />
<path d="M79642 76805
L79530 76805
L79474 76833
L79445 76861
L79389 76946
L79361 77058
L79361 77283
L79389 77339
L79417 77367
L79474 77395
L79586 77395
L79642 77367
L79670 77339
L79699 77283
L79699 77142
L79670 77086
L79642 77058
L79586 77030
L79474 77030
L79417 77058
L79389 77086
L79361 77142
" />
<path d="M79952 77339
L79980 77367
L79952 77395
L79923 77367
L79952 77339
L79952 77395
" />
<path d="M80345 76805
L80402 76805
L80458 76833
L80486 76861
L80514 76917
L80542 77030
L80542 77170
L80514 77283
L80486 77339
L80458 77367
L80402 77395
L80345 77395
L80289 77367
L80261 77339
L80233 77283
L80205 77170
L80205 77030
L80233 76917
L80261 76861
L80289 76833
L80345 76805
" />
<path d="M80795 77339
L80823 77367
L80795 77395
L80767 77367
L80795 77339
L80795 77395
" />
<path d="M81330 76805
L81217 76805
L81161 76833
L81133 76861
L81076 76946
L81048 77058
L81048 77283
L81076 77339
L81105 77367
L81161 77395
L81273 77395
L81330 77367
L81358 77339
L81386 77283
L81386 77142
L81358 77086
L81330 77058
L81273 77030
L81161 77030
L81105 77058
L81076 77086
L81048 77142
" />
</g><path d="M69685 75396
L112205 75396
" />
</g>
<g style="fill:#840000; fill-opacity:0.0; 
stroke:#840000; stroke-width:118.110236; stroke-opacity:1; 
stroke-linecap:round; stroke-linejoin:round;">
<text x="103544.173228" y="76321.732283"
textLength="2337.834646" font-size="787.401575" lengthAdjust="spacingAndGlyphs"
text-anchor="start" opacity="0">Rev: </text>
<g class="stroked-text"><desc>Rev: </desc>
<path d="M104098 76293
L103902 76012
" />
<path d="M103761 76293
L103761 75703
L103986 75703
L104042 75731
L104070 75759
L104098 75815
L104098 75899
L104070 75956
L104042 75984
L103986 76012
L103761 76012
" />
<path d="M104577 76265
L104520 76293
L104408 76293
L104352 76265
L104323 76209
L104323 75984
L104352 75928
L104408 75899
L104520 75899
L104577 75928
L104605 75984
L104605 76040
L104323 76096
" />
<path d="M104802 75899
L104942 76293
L105083 75899
" />
<path d="M105308 76237
L105336 76265
L105308 76293
L105280 76265
L105308 76237
L105308 76293
" />
<path d="M105308 75928
L105336 75956
L105308 75984
L105280 75956
L105308 75928
L105308 75984
" />
</g></g>
<g style="fill:#840000; fill-opacity:0.0; 
stroke:#840000; stroke-width:60.000000; stroke-opacity:1; 
stroke-linecap:round; stroke-linejoin:round;">
<text x="70079.606299" y="76321.732283"
textLength="3781.220472" font-size="787.401575" lengthAdjust="spacingAndGlyphs"
text-anchor="start" opacity="0">Size: A4</text>
<g class="stroked-text"><desc>Size: A4</desc>
<path d="M70222 76265
L70306 76293
L70447 76293
L70503 76265
L70531 76237
L70559 76181
L70559 76124
L70531 76068
L70503 76040
L70447 76012
L70334 75984
L70278 75956
L70250 75928
L70222 75871
L70222 75815
L70250 75759
L70278 75731
L70334 75703
L70475 75703
L70559 75731
" />
<path d="M70812 76293
L70812 75899
" />
<path d="M70812 75703
L70784 75731
L70812 75759
L70840 75731
L70812 75703
L70812 75759
" />
<path d="M71037 75899
L71346 75899
L71037 76293
L71346 76293
" />
<path d="M71796 76265
L71740 76293
L71628 76293
L71571 76265
L71543 76209
L71543 75984
L71571 75928
L71628 75899
L71740 75899
L71796 75928
L71825 75984
L71825 76040
L71543 76096
" />
<path d="M72078 76237
L72106 76265
L72078 76293
L72049 76265
L72078 76237
L72078 76293
" />
<path d="M72078 75928
L72106 75956
L72078 75984
L72049 75956
L72078 75928
L72078 75984
" />
<path d="M72781 76124
L73062 76124
" />
<path d="M72724 76293
L72921 75703
L73118 76293
" />
<path d="M73568 75899
L73568 76293
" />
<path d="M73427 75674
L73287 76096
L73652 76096
" />
</g><text x="103544.173228" y="77424.094488"
textLength="3350.196850" font-size="787.401575" lengthAdjust="spacingAndGlyphs"
text-anchor="start" opacity="0">Id: 1/1</text>
<g class="stroked-text"><desc>Id: 1/1</desc>
<path d="M103714 77395
L103714 76805
" />
<path d="M104249 77395
L104249 76805
" />
<path d="M104249 77367
L104192 77395
L104080 77395
L104024 77367
L103995 77339
L103967 77283
L103967 77114
L103995 77058
L104024 77030
L104080 77002
L104192 77002
L104249 77030
" />
<path d="M104530 77339
L104558 77367
L104530 77395
L104502 77367
L104530 77339
L104530 77395
" />
<path d="M104530 77030
L104558 77058
L104530 77086
L104502 77058
L104530 77030
L104530 77086
" />
<path d="M105570 77395
L105233 77395
" />
<path d="M105402 77395
L105402 76805
L105345 76889
L105289 76946
L105233 76974
" />
<path d="M106245 76777
L105739 77536
" />
<path d="M106751 77395
L106414 77395
" />
<path d="M106583 77395
L106583 76805
L106526 76889
L106470 76946
L106414 76974
" />
</g><path d="M69685 73821
L112205 73821
" />
</g>
<g style="fill:#840000; fill-opacity:0.0; 
stroke:#840000; stroke-width:157.480315; stroke-opacity:1; 
stroke-linecap:round; stroke-linejoin:round;">
<text x="70079.606299" y="74924.094488"
textLength="3705.511811" font-size="1049.842520" lengthAdjust="spacingAndGlyphs"
text-anchor="start" opacity="0">Title: </text>
<g class="stroked-text"><desc>Title: </desc>
<path d="M70360 74099
L70810 74099
" />
<path d="M70486 74886
L70585 74099
" />
<path d="M70974 74886
L71039 74361
" />
<path d="M71072 74099
L71030 74136
L71063 74174
L71105 74136
L71072 74099
L71063 74174
" />
<path d="M71302 74361
L71602 74361
" />
<path d="M71447 74099
L71363 74774
L71391 74849
L71461 74886
L71536 74886
" />
<path d="M71911 74886
L71841 74849
L71812 74774
L71897 74099
" />
<path d="M72516 74849
L72436 74886
L72286 74886
L72216 74849
L72187 74774
L72225 74474
L72272 74399
L72352 74361
L72501 74361
L72572 74399
L72600 74474
L72591 74549
L72206 74624
" />
<path d="M72895 74811
L72928 74849
L72886 74886
L72853 74849
L72895 74811
L72886 74886
" />
<path d="M72947 74399
L72980 74436
L72937 74474
L72905 74436
L72947 74399
L72937 74474
" />
</g></g>
<g style="fill:#840000; fill-opacity:0.0; 
stroke:#840000; stroke-width:60.000000; stroke-opacity:1; 
stroke-linecap:round; stroke-linejoin:round;">
<text x="70079.606299" y="73408.346457"
textLength="17471.299213" font-size="787.401575" lengthAdjust="spacingAndGlyphs"
text-anchor="start" opacity="0">File: latching-power-switch.kicad_sch</text>
<g class="stroked-text"><desc>File: latching-power-switch.kicad_sch</desc>
<path d="M70447 73070
L70250 73070
" />
<path d="M70250 73380
L70250 72789
L70531 72789
" />
<path d="M70756 73380
L70756 72986
" />
<path d="M70756 72789
L70728 72817
L70756 72845
L70784 72817
L70756 72789
L70756 72845
" />
<path d="M71121 73380
L71065 73352
L71037 73295
L71037 72789
" />
<path d="M71571 73352
L71515 73380
L71403 73380
L71346 73352
L71318 73295
L71318 73070
L71346 73014
L71403 72986
L71515 72986
L71571 73014
L71600 73070
L71600 73127
L71318 73183
" />
<path d="M71853 73323
L71881 73352
L71853 73380
L71825 73352
L71853 73323
L71853 73380
" />
<path d="M71853 73014
L71881 73042
L71853 73070
L71825 73042
L71853 73014
L71853 73070
" />
<path d="M72668 73380
L72612 73352
L72584 73295
L72584 72789
" />
<path d="M73146 73380
L73146 73070
L73118 73014
L73062 72986
L72949 72986
L72893 73014
" />
<path d="M73146 73352
L73090 73380
L72949 73380
L72893 73352
L72865 73295
L72865 73239
L72893 73183
L72949 73155
L73090 73155
L73146 73127
" />
<path d="M73343 72986
L73568 72986
" />
<path d="M73427 72789
L73427 73295
L73456 73352
L73512 73380
L73568 73380
" />
<path d="M74018 73352
L73962 73380
L73849 73380
L73793 73352
L73765 73323
L73737 73267
L73737 73098
L73765 73042
L73793 73014
L73849 72986
L73962 72986
L74018 73014
" />
<path d="M74271 73380
L74271 72789
" />
<path d="M74524 73380
L74524 73070
L74496 73014
L74440 72986
L74355 72986
L74299 73014
L74271 73042
" />
<path d="M74805 73380
L74805 72986
" />
<path d="M74805 72789
L74777 72817
L74805 72845
L74834 72817
L74805 72789
L74805 72845
" />
<path d="M75087 72986
L75087 73380
" />
<path d="M75087 73042
L75115 73014
L75171 72986
L75255 72986
L75312 73014
L75340 73070
L75340 73380
" />
<path d="M75874 72986
L75874 73464
L75846 73520
L75818 73548
L75762 73577
L75677 73577
L75621 73548
" />
<path d="M75874 73352
L75818 73380
L75705 73380
L75649 73352
L75621 73323
L75593 73267
L75593 73098
L75621 73042
L75649 73014
L75705 72986
L75818 72986
L75874 73014
" />
<path d="M76155 73155
L76605 73155
" />
<path d="M76886 72986
L76886 73577
" />
<path d="M76886 73014
L76943 72986
L77055 72986
L77111 73014
L77139 73042
L77168 73098
L77168 73267
L77139 73323
L77111 73352
L77055 73380
L76943 73380
L76886 73352
" />
<path d="M77505 73380
L77449 73352
L77421 73323
L77393 73267
L77393 73098
L77421 73042
L77449 73014
L77505 72986
L77589 72986
L77646 73014
L77674 73042
L77702 73098
L77702 73267
L77674 73323
L77646 73352
L77589 73380
L77505 73380
" />
<path d="M77899 72986
L78011 73380
L78124 73098
L78236 73380
L78349 72986
" />
<path d="M78799 73352
L78742 73380
L78630 73380
L78574 73352
L78546 73295
L78546 73070
L78574 73014
L78630 72986
L78742 72986
L78799 73014
L78827 73070
L78827 73127
L78546 73183
" />
<path d="M79080 73380
L79080 72986
" />
<path d="M79080 73098
L79108 73042
L79136 73014
L79192 72986
L79249 72986
" />
<path d="M79445 73155
L79895 73155
" />
<path d="M80148 73352
L80205 73380
L80317 73380
L80373 73352
L80402 73295
L80402 73267
L80373 73211
L80317 73183
L80233 73183
L80177 73155
L80148 73098
L80148 73070
L80177 73014
L80233 72986
L80317 72986
L80373 73014
" />
<path d="M80598 72986
L80711 73380
L80823 73098
L80936 73380
L81048 72986
" />
<path d="M81273 73380
L81273 72986
" />
<path d="M81273 72789
L81245 72817
L81273 72845
L81301 72817
L81273 72789
L81273 72845
" />
<path d="M81470 72986
L81695 72986
" />
<path d="M81555 72789
L81555 73295
L81583 73352
L81639 73380
L81695 73380
" />
<path d="M82145 73352
L82089 73380
L81976 73380
L81920 73352
L81892 73323
L81864 73267
L81864 73098
L81892 73042
L81920 73014
L81976 72986
L82089 72986
L82145 73014
" />
<path d="M82398 73380
L82398 72789
" />
<path d="M82651 73380
L82651 73070
L82623 73014
L82567 72986
L82483 72986
L82426 73014
L82398 73042
" />
<path d="M82932 73323
L82961 73352
L82932 73380
L82904 73352
L82932 73323
L82932 73380
" />
<path d="M83214 73380
L83214 72789
" />
<path d="M83270 73155
L83439 73380
" />
<path d="M83439 72986
L83214 73211
" />
<path d="M83692 73380
L83692 72986
" />
<path d="M83692 72789
L83664 72817
L83692 72845
L83720 72817
L83692 72789
L83692 72845
" />
<path d="M84226 73352
L84170 73380
L84057 73380
L84001 73352
L83973 73323
L83945 73267
L83945 73098
L83973 73042
L84001 73014
L84057 72986
L84170 72986
L84226 73014
" />
<path d="M84732 73380
L84732 73070
L84704 73014
L84648 72986
L84535 72986
L84479 73014
" />
<path d="M84732 73352
L84676 73380
L84535 73380
L84479 73352
L84451 73295
L84451 73239
L84479 73183
L84535 73155
L84676 73155
L84732 73127
" />
<path d="M85267 73380
L85267 72789
" />
<path d="M85267 73352
L85210 73380
L85098 73380
L85042 73352
L85013 73323
L84985 73267
L84985 73098
L85013 73042
L85042 73014
L85098 72986
L85210 72986
L85267 73014
" />
<path d="M85407 73436
L85857 73436
" />
<path d="M85970 73352
L86026 73380
L86138 73380
L86195 73352
L86223 73295
L86223 73267
L86195 73211
L86138 73183
L86054 73183
L85998 73155
L85970 73098
L85970 73070
L85998 73014
L86054 72986
L86138 72986
L86195 73014
" />
<path d="M86729 73352
L86673 73380
L86560 73380
L86504 73352
L86476 73323
L86448 73267
L86448 73098
L86476 73042
L86504 73014
L86560 72986
L86673 72986
L86729 73014
" />
<path d="M86982 73380
L86982 72789
" />
<path d="M87235 73380
L87235 73070
L87207 73014
L87151 72986
L87066 72986
L87010 73014
L86982 73042
" />
</g><path d="M69685 71459
L112205 71459
" />
<text x="70079.606299" y="72345.354331"
textLength="3856.417323" font-size="787.401575" lengthAdjust="spacingAndGlyphs"
text-anchor="start" opacity="0">Sheet: /</text>
<g class="stroked-text"><desc>Sheet: /</desc>
<path d="M70222 72289
L70306 72317
L70447 72317
L70503 72289
L70531 72260
L70559 72204
L70559 72148
L70531 72092
L70503 72064
L70447 72035
L70334 72007
L70278 71979
L70250 71951
L70222 71895
L70222 71839
L70250 71782
L70278 71754
L70334 71726
L70475 71726
L70559 71754
" />
<path d="M70812 72317
L70812 71726
" />
<path d="M71065 72317
L71065 72007
L71037 71951
L70981 71923
L70897 71923
L70840 71951
L70812 71979
" />
<path d="M71571 72289
L71515 72317
L71403 72317
L71346 72289
L71318 72232
L71318 72007
L71346 71951
L71403 71923
L71515 71923
L71571 71951
L71600 72007
L71600 72064
L71318 72120
" />
<path d="M72078 72289
L72021 72317
L71909 72317
L71853 72289
L71825 72232
L71825 72007
L71853 71951
L71909 71923
L72021 71923
L72078 71951
L72106 72007
L72106 72064
L71825 72120
" />
<path d="M72274 71923
L72499 71923
" />
<path d="M72359 71726
L72359 72232
L72387 72289
L72443 72317
L72499 72317
" />
<path d="M72696 72260
L72724 72289
L72696 72317
L72668 72289
L72696 72260
L72696 72317
" />
<path d="M72696 71951
L72724 71979
L72696 72007
L72668 71979
L72696 71951
L72696 72007
" />
<path d="M73849 71698
L73343 72457
" />
</g></g>
<g style="fill:#840000; fill-opacity:0.0; 
stroke:#840000; stroke-width:118.110236; stroke-opacity:1; 
stroke-linecap:round; stroke-linejoin:round;">
<text x="70079.606299" y="71164.251969"
textLength="60.000000" font-size="787.401575" lengthAdjust="spacingAndGlyphs"
text-anchor="start" opacity="0"></text>
<g class="stroked-text"><desc></desc>
</g></g>
<g style="fill:#840000; fill-opacity:0.0; 
stroke:#840000; stroke-width:60.000000; stroke-opacity:1; 
stroke-linecap:round; stroke-linejoin:round;">
<text x="70079.606299" y="69983.149606"
textLength="118.110236" font-size="787.401575" lengthAdjust="spacingAndGlyphs"
text-anchor="start" opacity="0"></text>
<g class="stroked-text"><desc></desc>
</g><text x="70079.606299" y="68802.047244"
textLength="60.000000" font-size="787.401575" lengthAdjust="spacingAndGlyphs"
text-anchor="start" opacity="0"></text>
<g class="stroked-text"><desc></desc>
</g><text x="70079.606299" y="67620.944882"
textLength="60.000000" font-size="787.401575" lengthAdjust="spacingAndGlyphs"
text-anchor="start" opacity="0"></text>
<g class="stroked-text"><desc></desc>
</g><text x="70079.606299" y="66439.842520"
textLength="60.000000" font-size="787.401575" lengthAdjust="spacingAndGlyphs"
text-anchor="start" opacity="0"></text>
<g class="stroked-text"><desc></desc>
</g><path d="M77559 75396
L77559 76577
" />
<path d="M102756 75396
L102756 77955
" />
<g >
</g>
<g style="fill:#840000; fill-opacity:0.0; 
stroke:#840000; stroke-width:100.000000; stroke-opacity:1; 
stroke-linecap:round; stroke-linejoin:round;">
<rect x="59100.000000" y="43000.000000" width="800.000000" height="2000.000000" rx="0.000000" />
</g>
<g style="fill:#840000; fill-opacity:0.0; 
stroke:#840000; stroke-width:60.000000; stroke-opacity:1; 
stroke-linecap:round; stroke-linejoin:round;">
<path d="M59500 43000
L59500 42500
" />
<path d="M59500 45000
L59500 45500
" />
</g>
<g style="fill:#006464; fill-opacity:0.0; 
stroke:#006464; stroke-width:60.000000; stroke-opacity:1; 
stroke-linecap:round; stroke-linejoin:round;">
<text x="61019.330709" y="43749.921260"
textLength="1036.181102" font-size="666.653543" lengthAdjust="spacingAndGlyphs"
text-anchor="middle" opacity="0">R5</text>
<g class="stroked-text"><desc>R5</desc>
<path d="M60935 43726
L60769 43487
" />
<path d="M60650 43726
L60650 43226
L60840 43226
L60888 43249
L60912 43273
L60935 43321
L60935 43392
L60912 43440
L60888 43464
L60840 43487
L60650 43487
" />
<path d="M61388 43226
L61150 43226
L61126 43464
L61150 43440
L61197 43416
L61316 43416
L61364 43440
L61388 43464
L61412 43511
L61412 43630
L61388 43678
L61364 43702
L61316 43726
L61197 43726
L61150 43702
L61126 43678
" />
</g><text x="61257.440945" y="44749.921260"
textLength="1512.362205" font-size="666.653543" lengthAdjust="spacingAndGlyphs"
text-anchor="middle" opacity="0">10K</text>
<g class="stroked-text"><desc>10K</desc>
<path d="M60912 44726
L60626 44726
" />
<path d="M60769 44726
L60769 44226
L60721 44297
L60674 44345
L60626 44368
" />
<path d="M61221 44226
L61269 44226
L61316 44249
L61340 44273
L61364 44321
L61388 44416
L61388 44535
L61364 44630
L61340 44678
L61316 44702
L61269 44726
L61221 44726
L61174 44702
L61150 44678
L61126 44630
L61102 44535
L61102 44416
L61126 44321
L61150 44273
L61174 44249
L61221 44226
" />
<path d="M61602 44726
L61602 44226
" />
<path d="M61888 44726
L61674 44440
" />
<path d="M61888 44226
L61602 44511
" />
</g></g>
</g>
<g style="fill:#006464; fill-opacity:0.0; 
stroke:#006464; stroke-width:60.000000; stroke-opacity:1; 
stroke-linecap:round; stroke-linejoin:round;">
<g >
</g>
<g style="fill:#840000; fill-opacity:0.0; 
stroke:#840000; stroke-width:60.000000; stroke-opacity:1; 
stroke-linecap:round; stroke-linejoin:round;">
</g>
<g style="fill:#840000; fill-opacity:0.0; 
stroke:#840000; stroke-width:100.000000; stroke-opacity:1; 
stroke-linecap:round; stroke-linejoin:round;">
<rect x="49100.000000" y="34000.000000" width="800.000000" height="2000.000000" rx="0.000000" />
</g>
<g style="fill:#840000; fill-opacity:0.0; 
stroke:#840000; stroke-width:60.000000; stroke-opacity:1; 
stroke-linecap:round; stroke-linejoin:round;">
<path d="M49500 34000
L49500 33500
" />
<path d="M49500 36000
L49500 36500
" />
</g>
<g style="fill:#006464; fill-opacity:0.0; 
stroke:#006464; stroke-width:60.000000; stroke-opacity:1; 
stroke-linecap:round; stroke-linejoin:round;">
<text x="51019.330709" y="34749.921260"
textLength="1036.181102" font-size="666.653543" lengthAdjust="spacingAndGlyphs"
text-anchor="middle" opacity="0">R3</text>
<g class="stroked-text"><desc>R3</desc>
<path d="M50935 34726
L50769 34487
" />
<path d="M50650 34726
L50650 34226
L50840 34226
L50888 34249
L50912 34273
L50935 34321
L50935 34392
L50912 34440
L50888 34464
L50840 34487
L50650 34487
" />
<path d="M51102 34226
L51412 34226
L51245 34416
L51316 34416
L51364 34440
L51388 34464
L51412 34511
L51412 34630
L51388 34678
L51364 34702
L51316 34726
L51174 34726
L51126 34702
L51102 34678
" />
</g><text x="51257.440945" y="35749.921260"
textLength="1512.362205" font-size="666.653543" lengthAdjust="spacingAndGlyphs"
text-anchor="middle" opacity="0">10K</text>
<g class="stroked-text"><desc>10K</desc>
<path d="M50912 35726
L50626 35726
" />
<path d="M50769 35726
L50769 35226
L50721 35297
L50674 35345
L50626 35368
" />
<path d="M51221 35226
L51269 35226
L51316 35249
L51340 35273
L51364 35321
L51388 35416
L51388 35535
L51364 35630
L51340 35678
L51316 35702
L51269 35726
L51221 35726
L51174 35702
L51150 35678
L51126 35630
L51102 35535
L51102 35416
L51126 35321
L51150 35273
L51174 35249
L51221 35226
" />
<path d="M51602 35726
L51602 35226
" />
<path d="M51888 35726
L51674 35440
" />
<path d="M51888 35226
L51602 35511
" />
</g></g>
</g>
<g style="fill:#006464; fill-opacity:0.0; 
stroke:#006464; stroke-width:60.000000; stroke-opacity:1; 
stroke-linecap:round; stroke-linejoin:round;">
<g >
</g>
<g style="fill:#840000; fill-opacity:0.0; 
stroke:#840000; stroke-width:60.000000; stroke-opacity:1; 
stroke-linecap:round; stroke-linejoin:round;">
<path style="fill:#840000; fill-opacity:0.0; 
stroke:#840000; stroke-width:60.000000; stroke-opacity:1; 
stroke-linecap:round; stroke-linejoin:round;fill:none"
d="M 49500.000000,51500.000000
49500.000000,52000.000000
50000.000000,52000.000000
49500.000000,52500.000000
49000.000000,52000.000000
49500.000000,52000.000000
" /> 
</g>
<g style="fill:#006464; fill-opacity:0.0; 
stroke:#006464; stroke-width:60.000000; stroke-opacity:1; 
stroke-linecap:round; stroke-linejoin:round;">
<text x="49500.000000" y="53749.960630"
textLength="1583.818898" font-size="666.653543" lengthAdjust="spacingAndGlyphs"
text-anchor="middle" opacity="0">GND</text>
<g class="stroked-text"><desc>GND</desc>
<path d="M49119 53249
L49071 53226
L49000 53226
L48928 53249
L48880 53297
L48857 53345
L48833 53440
L48833 53511
L48857 53607
L48880 53654
L48928 53702
L49000 53726
L49047 53726
L49119 53702
L49142 53678
L49142 53511
L49047 53511
" />
<path d="M49357 53726
L49357 53226
L49642 53726
L49642 53226
" />
<path d="M49880 53726
L49880 53226
L50000 53226
L50071 53249
L50119 53297
L50142 53345
L50166 53440
L50166 53511
L50142 53607
L50119 53654
L50071 53702
L50000 53726
L49880 53726
" />
</g></g>
</g>
<g style="fill:#006464; fill-opacity:0.0; 
stroke:#006464; stroke-width:60.000000; stroke-opacity:1; 
stroke-linecap:round; stroke-linejoin:round;">
<g >
</g>
<g style="fill:#840000; fill-opacity:0.0; 
stroke:#840000; stroke-width:60.000000; stroke-opacity:1; 
stroke-linecap:round; stroke-linejoin:round;">
</g>
<g style="fill:#840000; fill-opacity:0.0; 
stroke:#840000; stroke-width:100.000000; stroke-opacity:1; 
stroke-linecap:round; stroke-linejoin:round;">
<rect x="54600.000000" y="43000.000000" width="800.000000" height="2000.000000" rx="0.000000" />
</g>
<g style="fill:#840000; fill-opacity:0.0; 
stroke:#840000; stroke-width:60.000000; stroke-opacity:1; 
stroke-linecap:round; stroke-linejoin:round;">
<path d="M55000 43000
L55000 42500
" />
<path d="M55000 45000
L55000 45500
" />
</g>
<g style="fill:#006464; fill-opacity:0.0; 
stroke:#006464; stroke-width:60.000000; stroke-opacity:1; 
stroke-linecap:round; stroke-linejoin:round;">
<text x="56519.330709" y="43749.921260"
textLength="1036.181102" font-size="666.653543" lengthAdjust="spacingAndGlyphs"
text-anchor="middle" opacity="0">R4</text>
<g class="stroked-text"><desc>R4</desc>
<path d="M56435 43726
L56269 43487
" />
<path d="M56150 43726
L56150 43226
L56340 43226
L56388 43249
L56412 43273
L56435 43321
L56435 43392
L56412 43440
L56388 43464
L56340 43487
L56150 43487
" />
<path d="M56864 43392
L56864 43726
" />
<path d="M56745 43202
L56626 43559
L56935 43559
" />
</g><text x="56995.551181" y="44749.921260"
textLength="1988.582677" font-size="666.653543" lengthAdjust="spacingAndGlyphs"
text-anchor="middle" opacity="0">100K</text>
<g class="stroked-text"><desc>100K</desc>
<path d="M56412 44726
L56126 44726
" />
<path d="M56269 44726
L56269 44226
L56221 44297
L56174 44345
L56126 44368
" />
<path d="M56721 44226
L56769 44226
L56816 44249
L56840 44273
L56864 44321
L56888 44416
L56888 44535
L56864 44630
L56840 44678
L56816 44702
L56769 44726
L56721 44726
L56674 44702
L56650 44678
L56626 44630
L56602 44535
L56602 44416
L56626 44321
L56650 44273
L56674 44249
L56721 44226
" />
<path d="M57197 44226
L57245 44226
L57293 44249
L57316 44273
L57340 44321
L57364 44416
L57364 44535
L57340 44630
L57316 44678
L57293 44702
L57245 44726
L57197 44726
L57150 44702
L57126 44678
L57102 44630
L57078 44535
L57078 44416
L57102 44321
L57126 44273
L57150 44249
L57197 44226
" />
<path d="M57578 44726
L57578 44226
" />
<path d="M57864 44726
L57650 44440
" />
<path d="M57864 44226
L57578 44511
" />
</g></g>
</g>
<g style="fill:#006464; fill-opacity:0.0; 
stroke:#006464; stroke-width:60.000000; stroke-opacity:1; 
stroke-linecap:round; stroke-linejoin:round;">
<g >
</g>
<g style="fill:#840000; fill-opacity:0.0; 
stroke:#840000; stroke-width:60.000000; stroke-opacity:1; 
stroke-linecap:round; stroke-linejoin:round;">
</g>
<g style="fill:#840000; fill-opacity:0.0; 
stroke:#840000; stroke-width:100.000000; stroke-opacity:1; 
stroke-linecap:round; stroke-linejoin:round;">
<rect x="44500.000000" y="39100.000000" width="2000.000000" height="800.000000" rx="0.000000" />
</g>
<g style="fill:#840000; fill-opacity:0.0; 
stroke:#840000; stroke-width:60.000000; stroke-opacity:1; 
stroke-linecap:round; stroke-linejoin:round;">
<path d="M44500 39500
L44000 39500
" />
<path d="M46500 39500
L47000 39500
" />
</g>
<g style="fill:#006464; fill-opacity:0.0; 
stroke:#006464; stroke-width:60.000000; stroke-opacity:1; 
stroke-linecap:round; stroke-linejoin:round;">
<text x="45499.960630" y="37250.000000"
textLength="1036.181102" font-size="666.653543" lengthAdjust="spacingAndGlyphs"
text-anchor="middle" opacity="0">R1</text>
<g class="stroked-text"><desc>R1</desc>
<path d="M45416 37226
L45249 36988
" />
<path d="M45130 37226
L45130 36726
L45321 36726
L45368 36750
L45392 36773
L45416 36821
L45416 36892
L45392 36940
L45368 36964
L45321 36988
L45130 36988
" />
<path d="M45892 37226
L45607 37226
" />
<path d="M45749 37226
L45749 36726
L45702 36797
L45654 36845
L45607 36869
" />
</g><text x="45499.960630" y="38250.000000"
textLength="1583.818898" font-size="666.653543" lengthAdjust="spacingAndGlyphs"
text-anchor="middle" opacity="0">10M</text>
<g class="stroked-text"><desc>10M</desc>
<path d="M45118 38226
L44833 38226
" />
<path d="M44976 38226
L44976 37726
L44928 37797
L44880 37845
L44833 37869
" />
<path d="M45428 37726
L45476 37726
L45523 37750
L45547 37773
L45571 37821
L45595 37916
L45595 38035
L45571 38130
L45547 38178
L45523 38202
L45476 38226
L45428 38226
L45380 38202
L45357 38178
L45333 38130
L45309 38035
L45309 37916
L45333 37821
L45357 37773
L45380 37750
L45428 37726
" />
<path d="M45809 38226
L45809 37726
L45976 38083
L46142 37726
L46142 38226
" />
</g></g>
</g>
<g style="fill:#006464; fill-opacity:0.0; 
stroke:#006464; stroke-width:60.000000; stroke-opacity:1; 
stroke-linecap:round; stroke-linejoin:round;">
<g >
</g>
<g style="fill:#840000; fill-opacity:0.0; 
stroke:#840000; stroke-width:60.000000; stroke-opacity:1; 
stroke-linecap:round; stroke-linejoin:round;">
<path style="fill:#840000; fill-opacity:0.0; 
stroke:#840000; stroke-width:60.000000; stroke-opacity:1; 
stroke-linecap:round; stroke-linejoin:round;fill:none"
d="M 50250.000000,46250.000000
49500.000000,45500.000000
" /> 
<path style="fill:#840000; fill-opacity:0.0; 
stroke:#840000; stroke-width:60.000000; stroke-opacity:1; 
stroke-linecap:round; stroke-linejoin:round;fill:none"
d="M 50250.000000,46750.000000
49500.000000,47500.000000
49500.000000,47500.000000
" /> 
</g>
<g style="fill:#840000; fill-opacity:0.0; 
stroke:#840000; stroke-width:200.000000; stroke-opacity:1; 
stroke-linecap:round; stroke-linejoin:round;">
<path style="fill:#840000; fill-opacity:0.0; 
stroke:#840000; stroke-width:200.000000; stroke-opacity:1; 
stroke-linecap:round; stroke-linejoin:round;fill:none"
d="M 50250.000000,45750.000000
50250.000000,47250.000000
50250.000000,47250.000000
" /> 
</g>
<g style="fill:#840000; fill-opacity:1.0; 
stroke:#840000; stroke-width:60.000000; stroke-opacity:1; 
stroke-linecap:round; stroke-linejoin:round;">
<path style="fill:#840000; fill-opacity:1.0; 
stroke:#840000; stroke-width:60.000000; stroke-opacity:1; 
stroke-linecap:round; stroke-linejoin:round;fill-rule:evenodd;"
d="M 50000.000000,47200.000000
49800.000000,47000.000000
49600.000000,47400.000000
50000.000000,47200.000000
Z" /> 
</g>
<g style="fill:#840000; fill-opacity:0.0; 
stroke:#840000; stroke-width:100.000000; stroke-opacity:1; 
stroke-linecap:round; stroke-linejoin:round;">
<circle cx="50000.000000" cy="46500.000000" r="1110.000000" /> 
</g>
<g style="fill:#840000; fill-opacity:0.0; 
stroke:#840000; stroke-width:60.000000; stroke-opacity:1; 
stroke-linecap:round; stroke-linejoin:round;">
<path d="M49500 47500
L49500 48500
" />
</g>
<g style="fill:#A90000; fill-opacity:0.0; 
stroke:#A90000; stroke-width:60.000000; stroke-opacity:1; 
stroke-linecap:round; stroke-linejoin:round;">
<g transform="rotate(-90.000000 49600.000000 48000.000000)">
<text x="49600.000000" y="48500.000000"
textLength="536.181102" font-size="666.653543" lengthAdjust="spacingAndGlyphs"
text-anchor="middle" opacity="0">1</text>
</g>
<g class="stroked-text"><desc>1</desc>
<path d="M50076 47857
L50076 48142
" />
<path d="M50076 48000
L49576 48000
L49647 48047
L49695 48095
L49719 48142
" />
</g></g>
<g style="fill:#840000; fill-opacity:0.0; 
stroke:#840000; stroke-width:60.000000; stroke-opacity:1; 
stroke-linecap:round; stroke-linejoin:round;">
<path d="M50250 46500
L52500 46500
" />
</g>
<g style="fill:#A90000; fill-opacity:0.0; 
stroke:#A90000; stroke-width:60.000000; stroke-opacity:1; 
stroke-linecap:round; stroke-linejoin:round;">
<text x="51375.000000" y="47100.000000"
textLength="536.181102" font-size="666.653543" lengthAdjust="spacingAndGlyphs"
text-anchor="middle" opacity="0">2</text>
<g class="stroked-text"><desc>2</desc>
<path d="M51232 46623
L51255 46600
L51303 46576
L51422 46576
L51470 46600
L51494 46623
L51517 46671
L51517 46719
L51494 46790
L51208 47076
L51517 47076
" />
</g></g>
<g style="fill:#840000; fill-opacity:0.0; 
stroke:#840000; stroke-width:60.000000; stroke-opacity:1; 
stroke-linecap:round; stroke-linejoin:round;">
<path d="M49500 45500
L49500 44500
" />
</g>
<g style="fill:#A90000; fill-opacity:0.0; 
stroke:#A90000; stroke-width:60.000000; stroke-opacity:1; 
stroke-linecap:round; stroke-linejoin:round;">
<g transform="rotate(-90.000000 49600.000000 45000.000000)">
<text x="49600.000000" y="45500.000000"
textLength="536.181102" font-size="666.653543" lengthAdjust="spacingAndGlyphs"
text-anchor="middle" opacity="0">3</text>
</g>
<g class="stroked-text"><desc>3</desc>
<path d="M49576 45166
L49576 44857
L49766 45023
L49766 44952
L49790 44904
L49814 44880
L49861 44857
L49980 44857
L50028 44880
L50052 44904
L50076 44952
L50076 45095
L50052 45142
L50028 45166
" />
</g></g>
<g style="fill:#006464; fill-opacity:0.0; 
stroke:#006464; stroke-width:60.000000; stroke-opacity:1; 
stroke-linecap:round; stroke-linejoin:round;">
<text x="47968.740157" y="46249.921260"
textLength="1060.000000" font-size="666.653543" lengthAdjust="spacingAndGlyphs"
text-anchor="middle" opacity="0">Q1</text>
<g class="stroked-text"><desc>Q1</desc>
<path d="M47921 46273
L47873 46249
L47825 46202
L47754 46130
L47706 46107
L47659 46107
" />
<path d="M47682 46226
L47635 46202
L47587 46154
L47563 46059
L47563 45892
L47587 45797
L47635 45749
L47682 45726
L47778 45726
L47825 45749
L47873 45797
L47897 45892
L47897 46059
L47873 46154
L47825 46202
L47778 46226
L47682 46226
" />
<path d="M48373 46226
L48087 46226
" />
<path d="M48230 46226
L48230 45726
L48182 45797
L48135 45845
L48087 45868
" />
</g><text x="47016.338583" y="47249.921260"
textLength="2964.763780" font-size="666.653543" lengthAdjust="spacingAndGlyphs"
text-anchor="middle" opacity="0">2N3904</text>
<g class="stroked-text"><desc>2N3904</desc>
<path d="M45659 46773
L45682 46749
L45730 46726
L45849 46726
L45897 46749
L45921 46773
L45944 46821
L45944 46868
L45921 46940
L45635 47226
L45944 47226
" />
<path d="M46159 47226
L46159 46726
L46444 47226
L46444 46726
" />
<path d="M46635 46726
L46944 46726
L46778 46916
L46849 46916
L46897 46940
L46921 46964
L46944 47011
L46944 47130
L46921 47178
L46897 47202
L46849 47226
L46706 47226
L46659 47202
L46635 47178
" />
<path d="M47182 47226
L47278 47226
L47325 47202
L47349 47178
L47397 47107
L47421 47011
L47421 46821
L47397 46773
L47373 46749
L47325 46726
L47230 46726
L47182 46749
L47159 46773
L47135 46821
L47135 46940
L47159 46987
L47182 47011
L47230 47035
L47325 47035
L47373 47011
L47397 46987
L47421 46940
" />
<path d="M47730 46726
L47778 46726
L47825 46749
L47849 46773
L47873 46821
L47897 46916
L47897 47035
L47873 47130
L47849 47178
L47825 47202
L47778 47226
L47730 47226
L47682 47202
L47659 47178
L47635 47130
L47611 47035
L47611 46916
L47635 46821
L47659 46773
L47682 46749
L47730 46726
" />
<path d="M48325 46892
L48325 47226
" />
<path d="M48206 46702
L48087 47059
L48397 47059
" />
</g></g>
</g>
<g style="fill:#006464; fill-opacity:0.0; 
stroke:#006464; stroke-width:60.000000; stroke-opacity:1; 
stroke-linecap:round; stroke-linejoin:round;">
<g >
</g>
<g style="fill:#840000; fill-opacity:0.0; 
stroke:#840000; stroke-width:60.000000; stroke-opacity:1; 
stroke-linecap:round; stroke-linejoin:round;">
</g>
<g style="fill:#840000; fill-opacity:0.0; 
stroke:#840000; stroke-width:200.000000; stroke-opacity:1; 
stroke-linecap:round; stroke-linejoin:round;">
<path style="fill:#840000; fill-opacity:0.0; 
stroke:#840000; stroke-width:200.000000; stroke-opacity:1; 
stroke-linecap:round; stroke-linejoin:round;fill:none"
d="M 40700.000000,44300.000000
42300.000000,44300.000000
" /> 
<path style="fill:#840000; fill-opacity:0.0; 
stroke:#840000; stroke-width:200.000000; stroke-opacity:1; 
stroke-linecap:round; stroke-linejoin:round;fill:none"
d="M 40700.000000,43700.000000
42300.000000,43700.000000
" /> 
</g>
<g style="fill:#840000; fill-opacity:0.0; 
stroke:#840000; stroke-width:60.000000; stroke-opacity:1; 
stroke-linecap:round; stroke-linejoin:round;">
<path d="M41500 43600
L41500 42500
" />
<path d="M41500 44400
L41500 45500
" />
</g>
<g style="fill:#006464; fill-opacity:0.0; 
stroke:#006464; stroke-width:60.000000; stroke-opacity:1; 
stroke-linecap:round; stroke-linejoin:round;">
<text x="43519.330709" y="43749.921260"
textLength="1036.181102" font-size="666.653543" lengthAdjust="spacingAndGlyphs"
text-anchor="middle" opacity="0">C1</text>
<g class="stroked-text"><desc>C1</desc>
<path d="M43435 43678
L43412 43702
L43340 43726
L43293 43726
L43221 43702
L43174 43654
L43150 43607
L43126 43511
L43126 43440
L43150 43345
L43174 43297
L43221 43249
L43293 43226
L43340 43226
L43412 43249
L43435 43273
" />
<path d="M43912 43726
L43626 43726
" />
<path d="M43769 43726
L43769 43226
L43721 43297
L43674 43345
L43626 43368
" />
</g><text x="44305.078740" y="44749.921260"
textLength="2607.637795" font-size="666.653543" lengthAdjust="spacingAndGlyphs"
text-anchor="middle" opacity="0">0.33uF</text>
<g class="stroked-text"><desc>0.33uF</desc>
<path d="M43245 44226
L43293 44226
L43340 44249
L43364 44273
L43388 44321
L43412 44416
L43412 44535
L43388 44630
L43364 44678
L43340 44702
L43293 44726
L43245 44726
L43197 44702
L43174 44678
L43150 44630
L43126 44535
L43126 44416
L43150 44321
L43174 44273
L43197 44249
L43245 44226
" />
<path d="M43626 44678
L43650 44702
L43626 44726
L43602 44702
L43626 44678
L43626 44726
" />
<path d="M43816 44226
L44126 44226
L43959 44416
L44031 44416
L44078 44440
L44102 44464
L44126 44511
L44126 44630
L44102 44678
L44078 44702
L44031 44726
L43888 44726
L43840 44702
L43816 44678
" />
<path d="M44293 44226
L44602 44226
L44436 44416
L44507 44416
L44555 44440
L44578 44464
L44602 44511
L44602 44630
L44578 44678
L44555 44702
L44507 44726
L44364 44726
L44316 44702
L44293 44678
" />
<path d="M45031 44392
L45031 44726
" />
<path d="M44816 44392
L44816 44654
L44840 44702
L44888 44726
L44959 44726
L45007 44702
L45031 44678
" />
<path d="M45436 44464
L45269 44464
" />
<path d="M45269 44726
L45269 44226
L45507 44226
" />
</g></g>
</g>
<g style="fill:#006464; fill-opacity:0.0; 
stroke:#006464; stroke-width:60.000000; stroke-opacity:1; 
stroke-linecap:round; stroke-linejoin:round;">
<g >
</g>
<g style="fill:#840000; fill-opacity:0.0; 
stroke:#840000; stroke-width:60.000000; stroke-opacity:1; 
stroke-linecap:round; stroke-linejoin:round;">
</g>
<g style="fill:#840000; fill-opacity:0.0; 
stroke:#840000; stroke-width:100.000000; stroke-opacity:1; 
stroke-linecap:round; stroke-linejoin:round;">
<rect x="46100.000000" y="34000.000000" width="800.000000" height="2000.000000" rx="0.000000" />
</g>
<g style="fill:#840000; fill-opacity:0.0; 
stroke:#840000; stroke-width:60.000000; stroke-opacity:1; 
stroke-linecap:round; stroke-linejoin:round;">
<path d="M46500 34000
L46500 33500
" />
<path d="M46500 36000
L46500 36500
" />
</g>
<g style="fill:#006464; fill-opacity:0.0; 
stroke:#006464; stroke-width:60.000000; stroke-opacity:1; 
stroke-linecap:round; stroke-linejoin:round;">
<text x="48019.330709" y="34749.921260"
textLength="1036.181102" font-size="666.653543" lengthAdjust="spacingAndGlyphs"
text-anchor="middle" opacity="0">R2</text>
<g class="stroked-text"><desc>R2</desc>
<path d="M47935 34726
L47769 34487
" />
<path d="M47650 34726
L47650 34226
L47840 34226
L47888 34249
L47912 34273
L47935 34321
L47935 34392
L47912 34440
L47888 34464
L47840 34487
L47650 34487
" />
<path d="M48126 34273
L48150 34249
L48197 34226
L48316 34226
L48364 34249
L48388 34273
L48412 34321
L48412 34368
L48388 34440
L48102 34726
L48412 34726
" />
</g><text x="48257.440945" y="35749.921260"
textLength="1512.362205" font-size="666.653543" lengthAdjust="spacingAndGlyphs"
text-anchor="middle" opacity="0">10K</text>
<g class="stroked-text"><desc>10K</desc>
<path d="M47912 35726
L47626 35726
" />
<path d="M47769 35726
L47769 35226
L47721 35297
L47674 35345
L47626 35368
" />
<path d="M48221 35226
L48269 35226
L48316 35249
L48340 35273
L48364 35321
L48388 35416
L48388 35535
L48364 35630
L48340 35678
L48316 35702
L48269 35726
L48221 35726
L48174 35702
L48150 35678
L48126 35630
L48102 35535
L48102 35416
L48126 35321
L48150 35273
L48174 35249
L48221 35226
" />
<path d="M48602 35726
L48602 35226
" />
<path d="M48888 35726
L48674 35440
" />
<path d="M48888 35226
L48602 35511
" />
</g></g>
</g>
<g style="fill:#006464; fill-opacity:0.0; 
stroke:#006464; stroke-width:60.000000; stroke-opacity:1; 
stroke-linecap:round; stroke-linejoin:round;">
<g >
</g>
<g style="fill:#840000; fill-opacity:0.0; 
stroke:#840000; stroke-width:60.000000; stroke-opacity:1; 
stroke-linecap:round; stroke-linejoin:round;">
<path style="fill:#840000; fill-opacity:0.0; 
stroke:#840000; stroke-width:60.000000; stroke-opacity:1; 
stroke-linecap:round; stroke-linejoin:round;fill:none"
d="M 46200.000000,27000.000000
46500.000000,26500.000000
" /> 
<path style="fill:#840000; fill-opacity:0.0; 
stroke:#840000; stroke-width:60.000000; stroke-opacity:1; 
stroke-linecap:round; stroke-linejoin:round;fill:none"
d="M 46500.000000,27500.000000
46500.000000,26500.000000
" /> 
<path style="fill:#840000; fill-opacity:0.0; 
stroke:#840000; stroke-width:60.000000; stroke-opacity:1; 
stroke-linecap:round; stroke-linejoin:round;fill:none"
d="M 46500.000000,26500.000000
46800.000000,27000.000000
" /> 
</g>
<g style="fill:#006464; fill-opacity:0.0; 
stroke:#006464; stroke-width:60.000000; stroke-opacity:1; 
stroke-linecap:round; stroke-linejoin:round;">
<text x="46500.000000" y="25749.960630"
textLength="1583.818898" font-size="666.653543" lengthAdjust="spacingAndGlyphs"
text-anchor="middle" opacity="0">+5V</text>
<g class="stroked-text"><desc>+5V</desc>
<path d="M45857 25535
L46238 25535
" />
<path d="M46047 25726
L46047 25345
" />
<path d="M46714 25226
L46476 25226
L46452 25464
L46476 25440
L46523 25416
L46642 25416
L46690 25440
L46714 25464
L46738 25511
L46738 25630
L46714 25678
L46690 25702
L46642 25726
L46523 25726
L46476 25702
L46452 25678
" />
<path d="M46880 25226
L47047 25726
L47214 25226
" />
</g></g>
</g>
<g style="fill:#006464; fill-opacity:0.0; 
stroke:#006464; stroke-width:60.000000; stroke-opacity:1; 
stroke-linecap:round; stroke-linejoin:round;">
<g >
</g>
<g style="fill:#840000; fill-opacity:0.0; 
stroke:#840000; stroke-width:60.000000; stroke-opacity:1; 
stroke-linecap:round; stroke-linejoin:round;">
<path style="fill:#840000; fill-opacity:0.0; 
stroke:#840000; stroke-width:60.000000; stroke-opacity:1; 
stroke-linecap:round; stroke-linejoin:round;fill:none"
d="M 54700.000000,27000.000000
55000.000000,26500.000000
" /> 
<path style="fill:#840000; fill-opacity:0.0; 
stroke:#840000; stroke-width:60.000000; stroke-opacity:1; 
stroke-linecap:round; stroke-linejoin:round;fill:none"
d="M 55000.000000,27500.000000
55000.000000,26500.000000
" /> 
<path style="fill:#840000; fill-opacity:0.0; 
stroke:#840000; stroke-width:60.000000; stroke-opacity:1; 
stroke-linecap:round; stroke-linejoin:round;fill:none"
d="M 55000.000000,26500.000000
55300.000000,27000.000000
" /> 
</g>
<g style="fill:#006464; fill-opacity:0.0; 
stroke:#006464; stroke-width:60.000000; stroke-opacity:1; 
stroke-linecap:round; stroke-linejoin:round;">
<text x="55000.000000" y="25749.960630"
textLength="1583.818898" font-size="666.653543" lengthAdjust="spacingAndGlyphs"
text-anchor="middle" opacity="0">+5V</text>
<g class="stroked-text"><desc>+5V</desc>
<path d="M54357 25535
L54738 25535
" />
<path d="M54547 25726
L54547 25345
" />
<path d="M55214 25226
L54976 25226
L54952 25464
L54976 25440
L55023 25416
L55142 25416
L55190 25440
L55214 25464
L55238 25511
L55238 25630
L55214 25678
L55190 25702
L55142 25726
L55023 25726
L54976 25702
L54952 25678
" />
<path d="M55380 25226
L55547 25726
L55714 25226
" />
</g></g>
</g>
<g style="fill:#006464; fill-opacity:0.0; 
stroke:#006464; stroke-width:60.000000; stroke-opacity:1; 
stroke-linecap:round; stroke-linejoin:round;">
<g >
</g>
<g style="fill:#840000; fill-opacity:0.0; 
stroke:#840000; stroke-width:60.000000; stroke-opacity:1; 
stroke-linecap:round; stroke-linejoin:round;">
<path style="fill:#840000; fill-opacity:0.0; 
stroke:#840000; stroke-width:60.000000; stroke-opacity:1; 
stroke-linecap:round; stroke-linejoin:round;fill:none"
d="M 54100.000000,32000.000000
53000.000000,32000.000000
" /> 
</g>
<g style="fill:#840000; fill-opacity:0.0; 
stroke:#840000; stroke-width:100.000000; stroke-opacity:1; 
stroke-linecap:round; stroke-linejoin:round;">
<path style="fill:#840000; fill-opacity:0.0; 
stroke:#840000; stroke-width:100.000000; stroke-opacity:1; 
stroke-linecap:round; stroke-linejoin:round;fill:none"
d="M 54100.000000,32750.000000
54100.000000,31250.000000
" /> 
<path style="fill:#840000; fill-opacity:0.0; 
stroke:#840000; stroke-width:100.000000; stroke-opacity:1; 
stroke-linecap:round; stroke-linejoin:round;fill:none"
d="M 54300.000000,31500.000000
54300.000000,31100.000000
" /> 
<path style="fill:#840000; fill-opacity:0.0; 
stroke:#840000; stroke-width:100.000000; stroke-opacity:1; 
stroke-linecap:round; stroke-linejoin:round;fill:none"
d="M 54300.000000,32200.000000
54300.000000,31800.000000
" /> 
<path style="fill:#840000; fill-opacity:0.0; 
stroke:#840000; stroke-width:100.000000; stroke-opacity:1; 
stroke-linecap:round; stroke-linejoin:round;fill:none"
d="M 54300.000000,32900.000000
54300.000000,32500.000000
" /> 
</g>
<g style="fill:#840000; fill-opacity:0.0; 
stroke:#840000; stroke-width:60.000000; stroke-opacity:1; 
stroke-linecap:round; stroke-linejoin:round;">
<path style="fill:#840000; fill-opacity:0.0; 
stroke:#840000; stroke-width:60.000000; stroke-opacity:1; 
stroke-linecap:round; stroke-linejoin:round;fill:none"
d="M 55000.000000,33000.000000
55000.000000,32700.000000
" /> 
<path style="fill:#840000; fill-opacity:0.0; 
stroke:#840000; stroke-width:60.000000; stroke-opacity:1; 
stroke-linecap:round; stroke-linejoin:round;fill:none"
d="M 55000.000000,31000.000000
55000.000000,32000.000000
54300.000000,32000.000000
" /> 
<path style="fill:#840000; fill-opacity:0.0; 
stroke:#840000; stroke-width:60.000000; stroke-opacity:1; 
stroke-linecap:round; stroke-linejoin:round;fill:none"
d="M 54300.000000,32700.000000
55300.000000,32700.000000
55300.000000,31300.000000
54300.000000,31300.000000
" /> 
</g>
<g style="fill:#840000; fill-opacity:1.0; 
stroke:#840000; stroke-width:60.000000; stroke-opacity:1; 
stroke-linecap:round; stroke-linejoin:round;">
<path style="fill:#840000; fill-opacity:1.0; 
stroke:#840000; stroke-width:60.000000; stroke-opacity:1; 
stroke-linecap:round; stroke-linejoin:round;fill-rule:evenodd;"
d="M 54900.000000,32000.000000
54500.000000,32150.000000
54500.000000,31850.000000
Z" /> 
</g>
<g style="fill:#840000; fill-opacity:0.0; 
stroke:#840000; stroke-width:60.000000; stroke-opacity:1; 
stroke-linecap:round; stroke-linejoin:round;">
<path style="fill:#840000; fill-opacity:0.0; 
stroke:#840000; stroke-width:60.000000; stroke-opacity:1; 
stroke-linecap:round; stroke-linejoin:round;fill:none"
d="M 55100.000000,31800.000000
55150.000000,31850.000000
55450.000000,31850.000000
55500.000000,31900.000000
" /> 
<path style="fill:#840000; fill-opacity:0.0; 
stroke:#840000; stroke-width:60.000000; stroke-opacity:1; 
stroke-linecap:round; stroke-linejoin:round;fill:none"
d="M 55300.000000,31850.000000
55150.000000,32100.000000
55450.000000,32100.000000
Z" /> 
</g>
<g style="fill:#840000; fill-opacity:0.0; 
stroke:#840000; stroke-width:100.000000; stroke-opacity:1; 
stroke-linecap:round; stroke-linejoin:round;">
<circle cx="54650.000000" cy="32000.000000" r="1100.000000" /> 
</g>
<g style="fill:#840000; fill-opacity:1.0; 
stroke:#840000; stroke-width:60.000000; stroke-opacity:1; 
stroke-linecap:round; stroke-linejoin:round;">
<circle cx="55000.000000" cy="31300.000000" r="100.000000" /> 
<circle cx="55000.000000" cy="32700.000000" r="100.000000" /> 
</g>
<g style="fill:#840000; fill-opacity:0.0; 
stroke:#840000; stroke-width:60.000000; stroke-opacity:1; 
stroke-linecap:round; stroke-linejoin:round;">
<path d="M55000 33000
L55000 34000
" />
</g>
<g style="fill:#A90000; fill-opacity:0.0; 
stroke:#A90000; stroke-width:60.000000; stroke-opacity:1; 
stroke-linecap:round; stroke-linejoin:round;">
<g transform="rotate(-90.000000 54900.000000 33500.000000)">
<text x="54900.000000" y="33500.000000"
textLength="536.181102" font-size="666.653543" lengthAdjust="spacingAndGlyphs"
text-anchor="middle" opacity="0">1</text>
</g>
<g class="stroked-text"><desc>1</desc>
<path d="M54876 33357
L54876 33642
" />
<path d="M54876 33500
L54376 33500
L54447 33547
L54495 33595
L54519 33642
" />
</g></g>
<g style="fill:#840000; fill-opacity:0.0; 
stroke:#840000; stroke-width:60.000000; stroke-opacity:1; 
stroke-linecap:round; stroke-linejoin:round;">
<path d="M53000 32000
L52000 32000
" />
</g>
<g style="fill:#A90000; fill-opacity:0.0; 
stroke:#A90000; stroke-width:60.000000; stroke-opacity:1; 
stroke-linecap:round; stroke-linejoin:round;">
<text x="52500.000000" y="31900.000000"
textLength="536.181102" font-size="666.653543" lengthAdjust="spacingAndGlyphs"
text-anchor="middle" opacity="0">2</text>
<g class="stroked-text"><desc>2</desc>
<path d="M52357 31423
L52380 31400
L52428 31376
L52547 31376
L52595 31400
L52619 31423
L52642 31471
L52642 31519
L52619 31590
L52333 31876
L52642 31876
" />
</g></g>
<g style="fill:#840000; fill-opacity:0.0; 
stroke:#840000; stroke-width:60.000000; stroke-opacity:1; 
stroke-linecap:round; stroke-linejoin:round;">
<path d="M55000 31000
L55000 30000
" />
</g>
<g style="fill:#A90000; fill-opacity:0.0; 
stroke:#A90000; stroke-width:60.000000; stroke-opacity:1; 
stroke-linecap:round; stroke-linejoin:round;">
<g transform="rotate(-90.000000 54900.000000 30500.000000)">
<text x="54900.000000" y="30500.000000"
textLength="536.181102" font-size="666.653543" lengthAdjust="spacingAndGlyphs"
text-anchor="middle" opacity="0">3</text>
</g>
<g class="stroked-text"><desc>3</desc>
<path d="M54376 30666
L54376 30357
L54566 30523
L54566 30452
L54590 30404
L54614 30380
L54661 30357
L54780 30357
L54828 30380
L54852 30404
L54876 30452
L54876 30595
L54852 30642
L54828 30666
" />
</g></g>
<g style="fill:#006464; fill-opacity:0.0; 
stroke:#006464; stroke-width:60.000000; stroke-opacity:1; 
stroke-linecap:round; stroke-linejoin:round;">
<text x="57031.259843" y="31749.960630"
textLength="1060.000000" font-size="666.653543" lengthAdjust="spacingAndGlyphs"
text-anchor="middle" opacity="0">Q2</text>
<g class="stroked-text"><desc>Q2</desc>
<path d="M56983 31773
L56935 31749
L56888 31702
L56816 31630
L56769 31607
L56721 31607
" />
<path d="M56745 31726
L56697 31702
L56650 31654
L56626 31559
L56626 31392
L56650 31297
L56697 31249
L56745 31226
L56840 31226
L56888 31249
L56935 31297
L56959 31392
L56959 31559
L56935 31654
L56888 31702
L56840 31726
L56745 31726
" />
<path d="M57150 31273
L57174 31249
L57221 31226
L57340 31226
L57388 31249
L57412 31273
L57435 31321
L57435 31368
L57412 31440
L57126 31726
L57435 31726
" />
</g><text x="57733.622047" y="32749.960630"
textLength="2464.763780" font-size="666.653543" lengthAdjust="spacingAndGlyphs"
text-anchor="middle" opacity="0">BS250</text>
<g class="stroked-text"><desc>BS250</desc>
<path d="M56816 32464
L56888 32488
L56912 32511
L56935 32559
L56935 32630
L56912 32678
L56888 32702
L56840 32726
L56650 32726
L56650 32226
L56816 32226
L56864 32249
L56888 32273
L56912 32321
L56912 32368
L56888 32416
L56864 32440
L56816 32464
L56650 32464
" />
<path d="M57126 32702
L57197 32726
L57316 32726
L57364 32702
L57388 32678
L57412 32630
L57412 32583
L57388 32535
L57364 32511
L57316 32488
L57221 32464
L57174 32440
L57150 32416
L57126 32368
L57126 32321
L57150 32273
L57174 32249
L57221 32226
L57340 32226
L57412 32249
" />
<path d="M57602 32273
L57626 32249
L57674 32226
L57793 32226
L57840 32249
L57864 32273
L57888 32321
L57888 32368
L57864 32440
L57578 32726
L57888 32726
" />
<path d="M58340 32226
L58102 32226
L58078 32464
L58102 32440
L58150 32416
L58269 32416
L58316 32440
L58340 32464
L58364 32511
L58364 32630
L58340 32678
L58316 32702
L58269 32726
L58150 32726
L58102 32702
L58078 32678
" />
<path d="M58674 32226
L58721 32226
L58769 32249
L58793 32273
L58816 32321
L58840 32416
L58840 32535
L58816 32630
L58793 32678
L58769 32702
L58721 32726
L58674 32726
L58626 32702
L58602 32678
L58578 32630
L58555 32535
L58555 32416
L58578 32321
L58602 32273
L58626 32249
L58674 32226
" />
</g></g>
</g>
<g style="fill:#006464; fill-opacity:0.0; 
stroke:#006464; stroke-width:60.000000; stroke-opacity:1; 
stroke-linecap:round; stroke-linejoin:round;">
<g >
</g>
<g style="fill:#840000; fill-opacity:0.0; 
stroke:#840000; stroke-width:60.000000; stroke-opacity:1; 
stroke-linecap:round; stroke-linejoin:round;">
<circle cx="41500.000000" cy="35800.000000" r="200.000000" /> 
<path style="fill:#840000; fill-opacity:0.0; 
stroke:#840000; stroke-width:60.000000; stroke-opacity:1; 
stroke-linecap:round; stroke-linejoin:round;fill:none"
d="M 41000.000000,35000.000000
40300.000000,35000.000000
" /> 
<path style="fill:#840000; fill-opacity:0.0; 
stroke:#840000; stroke-width:60.000000; stroke-opacity:1; 
stroke-linecap:round; stroke-linejoin:round;fill:none"
d="M 41000.000000,34000.000000
41000.000000,36000.000000
" /> 
<circle cx="41500.000000" cy="34200.000000" r="200.000000" /> 
<path d="M41500 36000
L41500 37000
" />
<path d="M41500 34000
L41500 33000
" />
</g>
<g style="fill:#006464; fill-opacity:0.0; 
stroke:#006464; stroke-width:60.000000; stroke-opacity:1; 
stroke-linecap:round; stroke-linejoin:round;">
<text x="42793.149606" y="34749.960630"
textLength="1583.818898" font-size="666.653543" lengthAdjust="spacingAndGlyphs"
text-anchor="middle" opacity="0">SW1</text>
<g class="stroked-text"><desc>SW1</desc>
<path d="M42126 34702
L42197 34726
L42316 34726
L42364 34702
L42388 34678
L42412 34630
L42412 34583
L42388 34535
L42364 34511
L42316 34488
L42221 34464
L42174 34440
L42150 34416
L42126 34368
L42126 34321
L42150 34273
L42174 34249
L42221 34226
L42340 34226
L42412 34249
" />
<path d="M42578 34226
L42697 34726
L42793 34368
L42888 34726
L43007 34226
" />
<path d="M43459 34726
L43174 34726
" />
<path d="M43316 34726
L43316 34226
L43269 34297
L43221 34345
L43174 34368
" />
</g><text x="43650.314961" y="35749.960630"
textLength="3298.110236" font-size="666.653543" lengthAdjust="spacingAndGlyphs"
text-anchor="middle" opacity="0">SW_Push</text>
<g class="stroked-text"><desc>SW_Push</desc>
<path d="M42126 35702
L42197 35726
L42316 35726
L42364 35702
L42388 35678
L42412 35630
L42412 35583
L42388 35535
L42364 35511
L42316 35488
L42221 35464
L42174 35440
L42150 35416
L42126 35368
L42126 35321
L42150 35273
L42174 35249
L42221 35226
L42340 35226
L42412 35249
" />
<path d="M42578 35226
L42697 35726
L42793 35368
L42888 35726
L43007 35226
" />
<path d="M43078 35773
L43459 35773
" />
<path d="M43578 35726
L43578 35226
L43769 35226
L43816 35249
L43840 35273
L43864 35321
L43864 35392
L43840 35440
L43816 35464
L43769 35488
L43578 35488
" />
<path d="M44293 35392
L44293 35726
" />
<path d="M44078 35392
L44078 35654
L44102 35702
L44150 35726
L44221 35726
L44269 35702
L44293 35678
" />
<path d="M44507 35702
L44555 35726
L44650 35726
L44697 35702
L44721 35654
L44721 35630
L44697 35583
L44650 35559
L44578 35559
L44531 35535
L44507 35488
L44507 35464
L44531 35416
L44578 35392
L44650 35392
L44697 35416
" />
<path d="M44936 35726
L44936 35226
" />
<path d="M45150 35726
L45150 35464
L45126 35416
L45078 35392
L45007 35392
L44959 35416
L44936 35440
" />
</g></g>
</g>
<g style="fill:#006464; fill-opacity:0.0; 
stroke:#006464; stroke-width:62.519685; stroke-opacity:1; 
stroke-linecap:round; stroke-linejoin:round;">
</g>
<g style="fill:#006464; fill-opacity:0.0; 
stroke:#006464; stroke-width:60.000000; stroke-opacity:1; 
stroke-linecap:round; stroke-linejoin:round;">
</g>
<g style="fill:#840000; fill-opacity:0.0; 
stroke:#840000; stroke-width:60.000000; stroke-opacity:1; 
stroke-linecap:round; stroke-linejoin:round;">
<text x="64062.519685" y="36785.748031"
textLength="1488.582677" font-size="666.653543" lengthAdjust="spacingAndGlyphs"
text-anchor="start" opacity="0">OUT</text>
<g class="stroked-text"><desc>OUT</desc>
<path d="M64306 36261
L64402 36261
L64449 36285
L64497 36333
L64521 36428
L64521 36595
L64497 36690
L64449 36738
L64402 36761
L64306 36761
L64259 36738
L64211 36690
L64187 36595
L64187 36428
L64211 36333
L64259 36285
L64306 36261
" />
<path d="M64735 36261
L64735 36666
L64759 36714
L64782 36738
L64830 36761
L64925 36761
L64973 36738
L64997 36714
L65021 36666
L65021 36261
" />
<path d="M65187 36261
L65473 36261
" />
<path d="M65330 36761
L65330 36261
" />
</g><path style="fill:#840000; fill-opacity:0.0; 
stroke:#840000; stroke-width:60.000000; stroke-opacity:1; 
stroke-linecap:round; stroke-linejoin:round;fill:none"
d="M 63500.000000,36500.000000
63937.519685,37000.157480
65866.299213,37000.157480
65866.299213,36500.000000
65866.299213,35999.842520
63937.519685,35999.842520
Z" /> 
</g>
<g style="fill:#840000; fill-opacity:0.0; 
stroke:#840000; stroke-width:62.519685; stroke-opacity:1; 
stroke-linecap:round; stroke-linejoin:round;">
</g>
<g style="fill:#840000; fill-opacity:0.0; 
stroke:#840000; stroke-width:60.000000; stroke-opacity:1; 
stroke-linecap:round; stroke-linejoin:round;">
</g>
<g style="fill:#0000C2; fill-opacity:0.0; 
stroke:#0000C2; stroke-width:60.000000; stroke-opacity:1; 
stroke-linecap:round; stroke-linejoin:round;">
<text x="72000.000000" y="67752.480315"
textLength="19562.519685" font-size="666.653543" lengthAdjust="spacingAndGlyphs"
text-anchor="start" opacity="0">Latching power switch uses momentary pushbutton</text>
<g class="stroked-text"><desc>Latching power switch uses momentary pushbutton</desc>
<path d="M72387 67728
L72149 67728
L72149 67228
" />
<path d="M72768 67728
L72768 67466
L72744 67419
L72696 67395
L72601 67395
L72553 67419
" />
<path d="M72768 67704
L72720 67728
L72601 67728
L72553 67704
L72530 67657
L72530 67609
L72553 67561
L72601 67538
L72720 67538
L72768 67514
" />
<path d="M72934 67395
L73125 67395
" />
<path d="M73006 67228
L73006 67657
L73030 67704
L73077 67728
L73125 67728
" />
<path d="M73506 67704
L73458 67728
L73363 67728
L73315 67704
L73291 67681
L73268 67633
L73268 67490
L73291 67442
L73315 67419
L73363 67395
L73458 67395
L73506 67419
" />
<path d="M73720 67728
L73720 67228
" />
<path d="M73934 67728
L73934 67466
L73910 67419
L73863 67395
L73791 67395
L73744 67419
L73720 67442
" />
<path d="M74172 67728
L74172 67395
" />
<path d="M74172 67228
L74149 67252
L74172 67276
L74196 67252
L74172 67228
L74172 67276
" />
<path d="M74410 67395
L74410 67728
" />
<path d="M74410 67442
L74434 67419
L74482 67395
L74553 67395
L74601 67419
L74625 67466
L74625 67728
" />
<path d="M75077 67395
L75077 67800
L75053 67847
L75030 67871
L74982 67895
L74910 67895
L74863 67871
" />
<path d="M75077 67704
L75030 67728
L74934 67728
L74887 67704
L74863 67681
L74839 67633
L74839 67490
L74863 67442
L74887 67419
L74934 67395
L75030 67395
L75077 67419
" />
<path d="M75696 67395
L75696 67895
" />
<path d="M75696 67419
L75744 67395
L75839 67395
L75887 67419
L75910 67442
L75934 67490
L75934 67633
L75910 67681
L75887 67704
L75839 67728
L75744 67728
L75696 67704
" />
<path d="M76220 67728
L76172 67704
L76149 67681
L76125 67633
L76125 67490
L76149 67442
L76172 67419
L76220 67395
L76291 67395
L76339 67419
L76363 67442
L76387 67490
L76387 67633
L76363 67681
L76339 67704
L76291 67728
L76220 67728
" />
<path d="M76553 67395
L76649 67728
L76744 67490
L76839 67728
L76934 67395
" />
<path d="M77315 67704
L77268 67728
L77172 67728
L77125 67704
L77101 67657
L77101 67466
L77125 67419
L77172 67395
L77268 67395
L77315 67419
L77339 67466
L77339 67514
L77101 67561
" />
<path d="M77553 67728
L77553 67395
" />
<path d="M77553 67490
L77577 67442
L77601 67419
L77649 67395
L77696 67395
" />
<path d="M78220 67704
L78268 67728
L78363 67728
L78410 67704
L78434 67657
L78434 67633
L78410 67585
L78363 67561
L78291 67561
L78244 67538
L78220 67490
L78220 67466
L78244 67419
L78291 67395
L78363 67395
L78410 67419
" />
<path d="M78601 67395
L78696 67728
L78791 67490
L78887 67728
L78982 67395
" />
<path d="M79172 67728
L79172 67395
" />
<path d="M79172 67228
L79149 67252
L79172 67276
L79196 67252
L79172 67228
L79172 67276
" />
<path d="M79339 67395
L79530 67395
" />
<path d="M79410 67228
L79410 67657
L79434 67704
L79482 67728
L79530 67728
" />
<path d="M79910 67704
L79863 67728
L79768 67728
L79720 67704
L79696 67681
L79672 67633
L79672 67490
L79696 67442
L79720 67419
L79768 67395
L79863 67395
L79910 67419
" />
<path d="M80125 67728
L80125 67228
" />
<path d="M80339 67728
L80339 67466
L80315 67419
L80268 67395
L80196 67395
L80149 67419
L80125 67442
" />
<path d="M81172 67395
L81172 67728
" />
<path d="M80958 67395
L80958 67657
L80982 67704
L81030 67728
L81101 67728
L81149 67704
L81172 67681
" />
<path d="M81387 67704
L81434 67728
L81530 67728
L81577 67704
L81601 67657
L81601 67633
L81577 67585
L81530 67561
L81458 67561
L81410 67538
L81387 67490
L81387 67466
L81410 67419
L81458 67395
L81530 67395
L81577 67419
" />
<path d="M82006 67704
L81958 67728
L81863 67728
L81815 67704
L81791 67657
L81791 67466
L81815 67419
L81863 67395
L81958 67395
L82006 67419
L82030 67466
L82030 67514
L81791 67561
" />
<path d="M82220 67704
L82268 67728
L82363 67728
L82410 67704
L82434 67657
L82434 67633
L82410 67585
L82363 67561
L82291 67561
L82244 67538
L82220 67490
L82220 67466
L82244 67419
L82291 67395
L82363 67395
L82410 67419
" />
<path d="M83030 67728
L83030 67395
" />
<path d="M83030 67442
L83053 67419
L83101 67395
L83172 67395
L83220 67419
L83244 67466
L83244 67728
" />
<path d="M83244 67466
L83268 67419
L83315 67395
L83387 67395
L83434 67419
L83458 67466
L83458 67728
" />
<path d="M83768 67728
L83720 67704
L83696 67681
L83672 67633
L83672 67490
L83696 67442
L83720 67419
L83768 67395
L83839 67395
L83887 67419
L83910 67442
L83934 67490
L83934 67633
L83910 67681
L83887 67704
L83839 67728
L83768 67728
" />
<path d="M84149 67728
L84149 67395
" />
<path d="M84149 67442
L84172 67419
L84220 67395
L84291 67395
L84339 67419
L84363 67466
L84363 67728
" />
<path d="M84363 67466
L84387 67419
L84434 67395
L84506 67395
L84553 67419
L84577 67466
L84577 67728
" />
<path d="M85006 67704
L84958 67728
L84863 67728
L84815 67704
L84791 67657
L84791 67466
L84815 67419
L84863 67395
L84958 67395
L85006 67419
L85030 67466
L85030 67514
L84791 67561
" />
<path d="M85244 67395
L85244 67728
" />
<path d="M85244 67442
L85268 67419
L85315 67395
L85387 67395
L85434 67419
L85458 67466
L85458 67728
" />
<path d="M85625 67395
L85815 67395
" />
<path d="M85696 67228
L85696 67657
L85720 67704
L85768 67728
L85815 67728
" />
<path d="M86196 67728
L86196 67466
L86172 67419
L86125 67395
L86030 67395
L85982 67419
" />
<path d="M86196 67704
L86149 67728
L86030 67728
L85982 67704
L85958 67657
L85958 67609
L85982 67561
L86030 67538
L86149 67538
L86196 67514
" />
<path d="M86434 67728
L86434 67395
" />
<path d="M86434 67490
L86458 67442
L86482 67419
L86530 67395
L86577 67395
" />
<path d="M86696 67395
L86815 67728
" />
<path d="M86934 67395
L86815 67728
L86768 67847
L86744 67871
L86696 67895
" />
<path d="M87506 67395
L87506 67895
" />
<path d="M87506 67419
L87553 67395
L87649 67395
L87696 67419
L87720 67442
L87744 67490
L87744 67633
L87720 67681
L87696 67704
L87649 67728
L87553 67728
L87506 67704
" />
<path d="M88172 67395
L88172 67728
" />
<path d="M87958 67395
L87958 67657
L87982 67704
L88030 67728
L88101 67728
L88149 67704
L88172 67681
" />
<path d="M88387 67704
L88434 67728
L88530 67728
L88577 67704
L88601 67657
L88601 67633
L88577 67585
L88530 67561
L88458 67561
L88410 67538
L88387 67490
L88387 67466
L88410 67419
L88458 67395
L88530 67395
L88577 67419
" />
<path d="M88815 67728
L88815 67228
" />
<path d="M89030 67728
L89030 67466
L89006 67419
L88958 67395
L88887 67395
L88839 67419
L88815 67442
" />
<path d="M89268 67728
L89268 67228
" />
<path d="M89268 67419
L89315 67395
L89410 67395
L89458 67419
L89482 67442
L89506 67490
L89506 67633
L89482 67681
L89458 67704
L89410 67728
L89315 67728
L89268 67704
" />
<path d="M89934 67395
L89934 67728
" />
<path d="M89720 67395
L89720 67657
L89744 67704
L89791 67728
L89863 67728
L89910 67704
L89934 67681
" />
<path d="M90101 67395
L90291 67395
" />
<path d="M90172 67228
L90172 67657
L90196 67704
L90244 67728
L90291 67728
" />
<path d="M90387 67395
L90577 67395
" />
<path d="M90458 67228
L90458 67657
L90482 67704
L90530 67728
L90577 67728
" />
<path d="M90815 67728
L90768 67704
L90744 67681
L90720 67633
L90720 67490
L90744 67442
L90768 67419
L90815 67395
L90887 67395
L90934 67419
L90958 67442
L90982 67490
L90982 67633
L90958 67681
L90934 67704
L90887 67728
L90815 67728
" />
<path d="M91196 67395
L91196 67728
" />
<path d="M91196 67442
L91220 67419
L91268 67395
L91339 67395
L91387 67419
L91410 67466
L91410 67728
" />
</g><text x="72000.000000" y="68557.480315"
textLength="60.000000" font-size="666.653543" lengthAdjust="spacingAndGlyphs"
text-anchor="start" opacity="0"></text>
<g class="stroked-text"><desc></desc>
</g><text x="72000.000000" y="69362.480315"
textLength="29750.472441" font-size="666.653543" lengthAdjust="spacingAndGlyphs"
text-anchor="start" opacity="0">https://www.edn.com/latching-power-switch-uses-momentary-pushbutton/</text>
<g class="stroked-text"><desc>https://www.edn.com/latching-power-switch-uses-momentary-pushbutton/</desc>
<path d="M72149 69338
L72149 68838
" />
<path d="M72363 69338
L72363 69076
L72339 69029
L72291 69005
L72220 69005
L72172 69029
L72149 69052
" />
<path d="M72530 69005
L72720 69005
" />
<path d="M72601 68838
L72601 69267
L72625 69314
L72672 69338
L72720 69338
" />
<path d="M72815 69005
L73006 69005
" />
<path d="M72887 68838
L72887 69267
L72910 69314
L72958 69338
L73006 69338
" />
<path d="M73172 69005
L73172 69505
" />
<path d="M73172 69029
L73220 69005
L73315 69005
L73363 69029
L73387 69052
L73410 69100
L73410 69243
L73387 69291
L73363 69314
L73315 69338
L73220 69338
L73172 69314
" />
<path d="M73601 69314
L73649 69338
L73744 69338
L73791 69314
L73815 69267
L73815 69243
L73791 69195
L73744 69171
L73672 69171
L73625 69148
L73601 69100
L73601 69076
L73625 69029
L73672 69005
L73744 69005
L73791 69029
" />
<path d="M74030 69291
L74053 69314
L74030 69338
L74006 69314
L74030 69291
L74030 69338
" />
<path d="M74030 69029
L74053 69052
L74030 69076
L74006 69052
L74030 69029
L74030 69076
" />
<path d="M74625 68814
L74196 69457
" />
<path d="M75149 68814
L74720 69457
" />
<path d="M75268 69005
L75363 69338
L75458 69100
L75553 69338
L75649 69005
" />
<path d="M75791 69005
L75887 69338
L75982 69100
L76077 69338
L76172 69005
" />
<path d="M76315 69005
L76410 69338
L76506 69100
L76601 69338
L76696 69005
" />
<path d="M76887 69291
L76910 69314
L76887 69338
L76863 69314
L76887 69291
L76887 69338
" />
<path d="M77315 69314
L77268 69338
L77172 69338
L77125 69314
L77101 69267
L77101 69076
L77125 69029
L77172 69005
L77268 69005
L77315 69029
L77339 69076
L77339 69124
L77101 69171
" />
<path d="M77768 69338
L77768 68838
" />
<path d="M77768 69314
L77720 69338
L77625 69338
L77577 69314
L77553 69291
L77530 69243
L77530 69100
L77553 69052
L77577 69029
L77625 69005
L77720 69005
L77768 69029
" />
<path d="M78006 69005
L78006 69338
" />
<path d="M78006 69052
L78030 69029
L78077 69005
L78149 69005
L78196 69029
L78220 69076
L78220 69338
" />
<path d="M78458 69291
L78482 69314
L78458 69338
L78434 69314
L78458 69291
L78458 69338
" />
<path d="M78910 69314
L78863 69338
L78768 69338
L78720 69314
L78696 69291
L78672 69243
L78672 69100
L78696 69052
L78720 69029
L78768 69005
L78863 69005
L78910 69029
" />
<path d="M79196 69338
L79149 69314
L79125 69291
L79101 69243
L79101 69100
L79125 69052
L79149 69029
L79196 69005
L79268 69005
L79315 69029
L79339 69052
L79363 69100
L79363 69243
L79339 69291
L79315 69314
L79268 69338
L79196 69338
" />
<path d="M79577 69338
L79577 69005
" />
<path d="M79577 69052
L79601 69029
L79649 69005
L79720 69005
L79768 69029
L79791 69076
L79791 69338
" />
<path d="M79791 69076
L79815 69029
L79863 69005
L79934 69005
L79982 69029
L80006 69076
L80006 69338
" />
<path d="M80601 68814
L80172 69457
" />
<path d="M80839 69338
L80791 69314
L80768 69267
L80768 68838
" />
<path d="M81244 69338
L81244 69076
L81220 69029
L81172 69005
L81077 69005
L81030 69029
" />
<path d="M81244 69314
L81196 69338
L81077 69338
L81030 69314
L81006 69267
L81006 69219
L81030 69171
L81077 69148
L81196 69148
L81244 69124
" />
<path d="M81410 69005
L81601 69005
" />
<path d="M81482 68838
L81482 69267
L81506 69314
L81553 69338
L81601 69338
" />
<path d="M81982 69314
L81934 69338
L81839 69338
L81791 69314
L81768 69291
L81744 69243
L81744 69100
L81768 69052
L81791 69029
L81839 69005
L81934 69005
L81982 69029
" />
<path d="M82196 69338
L82196 68838
" />
<path d="M82410 69338
L82410 69076
L82387 69029
L82339 69005
L82268 69005
L82220 69029
L82196 69052
" />
<path d="M82649 69338
L82649 69005
" />
<path d="M82649 68838
L82625 68862
L82649 68886
L82672 68862
L82649 68838
L82649 68886
" />
<path d="M82887 69005
L82887 69338
" />
<path d="M82887 69052
L82910 69029
L82958 69005
L83030 69005
L83077 69029
L83101 69076
L83101 69338
" />
<path d="M83553 69005
L83553 69410
L83530 69457
L83506 69481
L83458 69505
L83387 69505
L83339 69481
" />
<path d="M83553 69314
L83506 69338
L83410 69338
L83363 69314
L83339 69291
L83315 69243
L83315 69100
L83339 69052
L83363 69029
L83410 69005
L83506 69005
L83553 69029
" />
<path d="M83791 69148
L84172 69148
" />
<path d="M84410 69005
L84410 69505
" />
<path d="M84410 69029
L84458 69005
L84553 69005
L84601 69029
L84625 69052
L84649 69100
L84649 69243
L84625 69291
L84601 69314
L84553 69338
L84458 69338
L84410 69314
" />
<path d="M84934 69338
L84887 69314
L84863 69291
L84839 69243
L84839 69100
L84863 69052
L84887 69029
L84934 69005
L85006 69005
L85053 69029
L85077 69052
L85101 69100
L85101 69243
L85077 69291
L85053 69314
L85006 69338
L84934 69338
" />
<path d="M85268 69005
L85363 69338
L85458 69100
L85553 69338
L85649 69005
" />
<path d="M86030 69314
L85982 69338
L85887 69338
L85839 69314
L85815 69267
L85815 69076
L85839 69029
L85887 69005
L85982 69005
L86030 69029
L86053 69076
L86053 69124
L85815 69171
" />
<path d="M86268 69338
L86268 69005
" />
<path d="M86268 69100
L86291 69052
L86315 69029
L86363 69005
L86410 69005
" />
<path d="M86577 69148
L86958 69148
" />
<path d="M87172 69314
L87220 69338
L87315 69338
L87363 69314
L87387 69267
L87387 69243
L87363 69195
L87315 69171
L87244 69171
L87196 69148
L87172 69100
L87172 69076
L87196 69029
L87244 69005
L87315 69005
L87363 69029
" />
<path d="M87553 69005
L87649 69338
L87744 69100
L87839 69338
L87934 69005
" />
<path d="M88125 69338
L88125 69005
" />
<path d="M88125 68838
L88101 68862
L88125 68886
L88149 68862
L88125 68838
L88125 68886
" />
<path d="M88291 69005
L88482 69005
" />
<path d="M88363 68838
L88363 69267
L88387 69314
L88434 69338
L88482 69338
" />
<path d="M88863 69314
L88815 69338
L88720 69338
L88672 69314
L88649 69291
L88625 69243
L88625 69100
L88649 69052
L88672 69029
L88720 69005
L88815 69005
L88863 69029
" />
<path d="M89077 69338
L89077 68838
" />
<path d="M89291 69338
L89291 69076
L89268 69029
L89220 69005
L89149 69005
L89101 69029
L89077 69052
" />
<path d="M89530 69148
L89910 69148
" />
<path d="M90363 69005
L90363 69338
" />
<path d="M90149 69005
L90149 69267
L90172 69314
L90220 69338
L90291 69338
L90339 69314
L90363 69291
" />
<path d="M90577 69314
L90625 69338
L90720 69338
L90768 69314
L90791 69267
L90791 69243
L90768 69195
L90720 69171
L90649 69171
L90601 69148
L90577 69100
L90577 69076
L90601 69029
L90649 69005
L90720 69005
L90768 69029
" />
<path d="M91196 69314
L91149 69338
L91053 69338
L91006 69314
L90982 69267
L90982 69076
L91006 69029
L91053 69005
L91149 69005
L91196 69029
L91220 69076
L91220 69124
L90982 69171
" />
<path d="M91410 69314
L91458 69338
L91553 69338
L91601 69314
L91625 69267
L91625 69243
L91601 69195
L91553 69171
L91482 69171
L91434 69148
L91410 69100
L91410 69076
L91434 69029
L91482 69005
L91553 69005
L91601 69029
" />
<path d="M91839 69148
L92220 69148
" />
<path d="M92458 69338
L92458 69005
" />
<path d="M92458 69052
L92482 69029
L92530 69005
L92601 69005
L92649 69029
L92672 69076
L92672 69338
" />
<path d="M92672 69076
L92696 69029
L92744 69005
L92815 69005
L92863 69029
L92887 69076
L92887 69338
" />
<path d="M93196 69338
L93149 69314
L93125 69291
L93101 69243
L93101 69100
L93125 69052
L93149 69029
L93196 69005
L93268 69005
L93315 69029
L93339 69052
L93363 69100
L93363 69243
L93339 69291
L93315 69314
L93268 69338
L93196 69338
" />
<path d="M93577 69338
L93577 69005
" />
<path d="M93577 69052
L93601 69029
L93649 69005
L93720 69005
L93768 69029
L93791 69076
L93791 69338
" />
<path d="M93791 69076
L93815 69029
L93863 69005
L93934 69005
L93982 69029
L94006 69076
L94006 69338
" />
<path d="M94434 69314
L94387 69338
L94291 69338
L94244 69314
L94220 69267
L94220 69076
L94244 69029
L94291 69005
L94387 69005
L94434 69029
L94458 69076
L94458 69124
L94220 69171
" />
<path d="M94672 69005
L94672 69338
" />
<path d="M94672 69052
L94696 69029
L94744 69005
L94815 69005
L94863 69029
L94887 69076
L94887 69338
" />
<path d="M95053 69005
L95244 69005
" />
<path d="M95125 68838
L95125 69267
L95149 69314
L95196 69338
L95244 69338
" />
<path d="M95625 69338
L95625 69076
L95601 69029
L95553 69005
L95458 69005
L95410 69029
" />
<path d="M95625 69314
L95577 69338
L95458 69338
L95410 69314
L95387 69267
L95387 69219
L95410 69171
L95458 69148
L95577 69148
L95625 69124
" />
<path d="M95863 69338
L95863 69005
" />
<path d="M95863 69100
L95887 69052
L95910 69029
L95958 69005
L96006 69005
" />
<path d="M96125 69005
L96244 69338
" />
<path d="M96363 69005
L96244 69338
L96196 69457
L96172 69481
L96125 69505
" />
<path d="M96553 69148
L96934 69148
" />
<path d="M97172 69005
L97172 69505
" />
<path d="M97172 69029
L97220 69005
L97315 69005
L97363 69029
L97387 69052
L97410 69100
L97410 69243
L97387 69291
L97363 69314
L97315 69338
L97220 69338
L97172 69314
" />
<path d="M97839 69005
L97839 69338
" />
<path d="M97625 69005
L97625 69267
L97649 69314
L97696 69338
L97768 69338
L97815 69314
L97839 69291
" />
<path d="M98053 69314
L98101 69338
L98196 69338
L98244 69314
L98268 69267
L98268 69243
L98244 69195
L98196 69171
L98125 69171
L98077 69148
L98053 69100
L98053 69076
L98077 69029
L98125 69005
L98196 69005
L98244 69029
" />
<path d="M98482 69338
L98482 68838
" />
<path d="M98696 69338
L98696 69076
L98672 69029
L98625 69005
L98553 69005
L98506 69029
L98482 69052
" />
<path d="M98934 69338
L98934 68838
" />
<path d="M98934 69029
L98982 69005
L99077 69005
L99125 69029
L99149 69052
L99172 69100
L99172 69243
L99149 69291
L99125 69314
L99077 69338
L98982 69338
L98934 69314
" />
<path d="M99601 69005
L99601 69338
" />
<path d="M99387 69005
L99387 69267
L99410 69314
L99458 69338
L99530 69338
L99577 69314
L99601 69291
" />
<path d="M99768 69005
L99958 69005
" />
<path d="M99839 68838
L99839 69267
L99863 69314
L99910 69338
L99958 69338
" />
<path d="M100053 69005
L100244 69005
" />
<path d="M100125 68838
L100125 69267
L100149 69314
L100196 69338
L100244 69338
" />
<path d="M100482 69338
L100434 69314
L100410 69291
L100387 69243
L100387 69100
L100410 69052
L100434 69029
L100482 69005
L100553 69005
L100601 69029
L100625 69052
L100649 69100
L100649 69243
L100625 69291
L100601 69314
L100553 69338
L100482 69338
" />
<path d="M100863 69005
L100863 69338
" />
<path d="M100863 69052
L100887 69029
L100934 69005
L101006 69005
L101053 69029
L101077 69076
L101077 69338
" />
<path d="M101672 68814
L101244 69457
" />
</g></g>
<g style="fill:#0000C2; fill-opacity:0.0; 
stroke:#0000C2; stroke-width:62.519685; stroke-opacity:1; 
stroke-linecap:round; stroke-linejoin:round;">
</g>
<g style="fill:#0000C2; fill-opacity:0.0; 
stroke:#0000C2; stroke-width:60.000000; stroke-opacity:1; 
stroke-linecap:round; stroke-linejoin:round;">
<text x="62500.000000" y="34362.480315"
textLength="6417.125984" font-size="666.653543" lengthAdjust="spacingAndGlyphs"
text-anchor="start" opacity="0">max 200mA @5V</text>
<g class="stroked-text"><desc>max 200mA @5V</desc>
<path d="M62649 34338
L62649 34005
" />
<path d="M62649 34052
L62672 34029
L62720 34005
L62791 34005
L62839 34029
L62863 34076
L62863 34338
" />
<path d="M62863 34076
L62887 34029
L62934 34005
L63006 34005
L63053 34029
L63077 34076
L63077 34338
" />
<path d="M63530 34338
L63530 34076
L63506 34029
L63458 34005
L63363 34005
L63315 34029
" />
<path d="M63530 34314
L63482 34338
L63363 34338
L63315 34314
L63291 34267
L63291 34219
L63315 34171
L63363 34148
L63482 34148
L63530 34124
" />
<path d="M63720 34338
L63982 34005
" />
<path d="M63720 34005
L63982 34338
" />
<path d="M64530 33886
L64553 33862
L64601 33838
L64720 33838
L64768 33862
L64791 33886
L64815 33933
L64815 33981
L64791 34052
L64506 34338
L64815 34338
" />
<path d="M65125 33838
L65172 33838
L65220 33862
L65244 33886
L65268 33933
L65291 34029
L65291 34148
L65268 34243
L65244 34291
L65220 34314
L65172 34338
L65125 34338
L65077 34314
L65053 34291
L65030 34243
L65006 34148
L65006 34029
L65030 33933
L65053 33886
L65077 33862
L65125 33838
" />
<path d="M65601 33838
L65649 33838
L65696 33862
L65720 33886
L65744 33933
L65768 34029
L65768 34148
L65744 34243
L65720 34291
L65696 34314
L65649 34338
L65601 34338
L65553 34314
L65530 34291
L65506 34243
L65482 34148
L65482 34029
L65506 33933
L65530 33886
L65553 33862
L65601 33838
" />
<path d="M65982 34338
L65982 34005
" />
<path d="M65982 34052
L66006 34029
L66053 34005
L66125 34005
L66172 34029
L66196 34076
L66196 34338
" />
<path d="M66196 34076
L66220 34029
L66268 34005
L66339 34005
L66387 34029
L66410 34076
L66410 34338
" />
<path d="M66625 34195
L66863 34195
" />
<path d="M66577 34338
L66744 33838
L66910 34338
" />
<path d="M67768 34100
L67744 34076
L67696 34052
L67649 34052
L67601 34076
L67577 34100
L67553 34148
L67553 34195
L67577 34243
L67601 34267
L67649 34291
L67696 34291
L67744 34267
L67768 34243
" />
<path d="M67768 34052
L67768 34243
L67791 34267
L67815 34267
L67863 34243
L67887 34195
L67887 34076
L67839 34005
L67768 33957
L67672 33933
L67577 33957
L67506 34005
L67458 34076
L67434 34171
L67458 34267
L67506 34338
L67577 34386
L67672 34410
L67768 34386
L67839 34338
" />
<path d="M68339 33838
L68101 33838
L68077 34076
L68101 34052
L68149 34029
L68268 34029
L68315 34052
L68339 34076
L68363 34124
L68363 34243
L68339 34291
L68315 34314
L68268 34338
L68149 34338
L68101 34314
L68077 34291
" />
<path d="M68506 33838
L68672 34338
L68839 33838
" />
</g></g>
<g style="fill:#009600; fill-opacity:0.0; 
stroke:#009600; stroke-width:60.000000; stroke-opacity:1; 
stroke-linecap:round; stroke-linejoin:round;">
<path d="M41500 33000
L41500 32000
" />
<path d="M41500 32000
L49500 32000
" />
<path d="M49500 32000
L49500 33500
" />
<path d="M46500 27500
L46500 33500
" />
<path d="M52000 32000
L49500 32000
" />
<path d="M41500 50000
L49500 50000
" />
<path d="M46500 36500
L46500 38000
" />
<path d="M41500 45500
L41500 50000
" />
<path d="M55000 27500
L55000 30000
" />
<path d="M49500 38000
L49500 44500
" />
<path d="M55000 45500
L55000 46500
" />
<path d="M55000 39500
L55000 42500
" />
<path d="M55000 46500
L52500 46500
" />
<path d="M55000 34000
L55000 36500
" />
<path d="M47000 39500
L55000 39500
" />
<path d="M41500 39500
L44000 39500
" />
<path d="M59500 45500
L59500 50000
" />
<path d="M49500 50000
L49500 51500
" />
<path d="M49500 50000
L59500 50000
" />
<path d="M41500 37000
L41500 39500
" />
<path d="M59500 36500
L63500 36500
" />
<path d="M41500 39500
L41500 42500
" />
<path d="M46500 38000
L49500 38000
" />
<path d="M49500 36500
L49500 38000
" />
<path d="M59500 36500
L55000 36500
" />
<path d="M55000 36500
L55000 39500
" />
<path d="M59500 42500
L59500 36500
" />
<path d="M49500 48500
L49500 50000
" />
</g>
<g style="fill:#009600; fill-opacity:1.0; 
stroke:#009600; stroke-width:60.000000; stroke-opacity:1; 
stroke-linecap:round; stroke-linejoin:round;">
<circle cx="49500.000000" cy="38000.000000" r="180.000000" /> 
<circle cx="41500.000000" cy="39500.000000" r="180.000000" /> 
<circle cx="49500.000000" cy="32000.000000" r="180.000000" /> 
<circle cx="55000.000000" cy="39500.000000" r="180.000000" /> 
<circle cx="49500.000000" cy="50000.000000" r="180.000000" /> 
<circle cx="55000.000000" cy="36500.000000" r="180.000000" /> 
<circle cx="59500.000000" cy="36500.000000" r="180.000000" /> 
</g> 
</svg>
